<?xml version="1.0" encoding="iso-8859-1"?>
<!-- Generator: Adobe Illustrator 16.0.0, SVG Export Plug-In . SVG Version: 6.00 Build 0)  -->
<!DOCTYPE svg PUBLIC "-//W3C//DTD SVG 1.1//EN" "http://www.w3.org/Graphics/SVG/1.1/DTD/svg11.dtd">
<svg version="1.1" id="Capa_1" xmlns="http://www.w3.org/2000/svg" xmlns:xlink="http://www.w3.org/1999/xlink" x="0px" y="0px"
	 width="37.546px" height="37.546px" viewBox="0 0 37.546 37.546" style="enable-background:new 0 0 37.546 37.546;"
	 xml:space="preserve">
<g>
	<path d="M33.974,22.346c0,8.381-6.818,15.2-15.201,15.2c-8.382,0-15.201-6.819-15.201-15.2c0-4.553,2.015-8.827,5.526-11.727
		c0.779-0.643,1.928-0.531,2.568,0.245c0.641,0.775,0.531,1.926-0.244,2.566c-2.67,2.205-4.203,5.454-4.203,8.913
		c0,6.371,5.184,11.554,11.554,11.554c6.371,0,11.552-5.183,11.552-11.554c0-3.458-1.53-6.708-4.2-8.913
		c-0.775-0.642-0.888-1.791-0.244-2.566c0.643-0.776,1.791-0.888,2.565-0.245C31.96,13.52,33.974,17.793,33.974,22.346z
		 M18.773,16.566c1.007,0,1.824-0.816,1.824-1.823V1.823C20.597,0.815,19.781,0,18.773,0c-1.009,0-1.824,0.815-1.824,1.823v12.92
		C16.949,15.75,17.765,16.566,18.773,16.566z M26.703,8.234c1.752-1.753,1.398-4.944,1.398-4.944s-3.193-0.354-4.945,1.396
		S21.759,9.63,21.759,9.63S24.953,9.985,26.703,8.234z"/>
</g>
<g>
</g>
<g>
</g>
<g>
</g>
<g>
</g>
<g>
</g>
<g>
</g>
<g>
</g>
<g>
</g>
<g>
</g>
<g>
</g>
<g>
</g>
<g>
</g>
<g>
</g>
<g>
</g>
<g>
</g>
</svg>
