<?xml version="1.0" encoding="iso-8859-1"?>
<!-- Generator: Adobe Illustrator 19.0.0, SVG Export Plug-In . SVG Version: 6.00 Build 0)  -->
<svg version="1.1" id="Capa_1" xmlns="http://www.w3.org/2000/svg" xmlns:xlink="http://www.w3.org/1999/xlink" x="0px" y="0px"
	 viewBox="0 0 512 512" style="enable-background:new 0 0 512 512;" xml:space="preserve">
<path style="fill:#303C42;" d="M277.335,0c-1.156,0-5.762,0-6.188,0C177.314,0,64.001,67.375,64.001,151.042
	c0,17.526,5.947,33.612,17.145,48.146c-6.184,13.422-11.872,27.483-16.665,43c-1.75,5.625,1.417,11.594,7.042,13.333
	c1.042,0.323,2.104,0.479,3.146,0.479c4.563,0,8.771-2.938,10.188-7.521c3.641-11.78,7.772-22.62,12.186-33.018
	c6.02,4.962,12.243,9.238,18.828,12.245c10.06,30.206,26.566,51.306,38.965,66.701c8.5,10.542,15.833,19.646,15.833,25.594v21.333
	c0,15.723,8.645,29.329,21.333,36.73v67.353c0,11.229,4.563,22.229,12.5,30.167l20.792,20.792
	C235.376,506.448,248.751,512,263.001,512h28.667c14.25,0,27.625-5.552,37.708-15.625l20.792-20.792
	c7.938-7.938,12.5-18.938,12.5-30.167v-67.353c12.689-7.401,21.333-21.008,21.333-36.73V320c0-5.927,7.333-15.01,15.833-25.521
	c19.188-23.719,48.167-59.563,48.167-123.813C448.001,76.563,371.439,0,277.335,0z"/>
<path style="fill:#7CB342;" d="M233.564,69.958c-2.604-5.292-8.979-7.438-14.271-4.865c-59.788,29.44-99.505,64.225-126.98,112.249
	c-4.456-8.297-6.978-17.048-6.978-26.301c0-69.854,102.167-129.708,185.813-129.708c3.417,0,6.188,2.771,6.188,6.177
	c0,83.646-59.854,185.823-129.708,185.823c-15.074,0-28.939-6.125-41.349-17.889c25.388-48.531,62.932-81.909,122.432-111.204
	C234.001,81.635,236.168,75.24,233.564,69.958z"/>
<path style="opacity:0.1;enable-background:new    ;" d="M271.147,21.333c-2.049,0-4.152,0.198-6.223,0.27
	c-4.219,82.275-62.758,177.676-130.855,177.676c-7.94,0-17.958-1.049-27.552-3.641c12.35,11.621,26.129,17.695,41.109,17.695
	c69.854,0,129.708-102.177,129.708-185.823C277.335,24.104,274.564,21.333,271.147,21.333z"/>
<g>
	<path style="fill:#F2F2F2;" d="M340.818,448H213.852c-0.112-0.878-0.517-1.694-0.517-2.583v-18.75h128v18.75
		C341.335,446.306,340.93,447.122,340.818,448z"/>
	<path style="fill:#F2F2F2;" d="M291.668,490.667h-28.667c-8.417,0-16.667-3.417-22.625-9.375l-11.958-11.958h97.833l-11.958,11.958
		C308.335,487.25,300.085,490.667,291.668,490.667z"/>
	<rect x="213.333" y="384" style="fill:#F2F2F2;" width="128" height="21.333"/>
</g>
<path style="fill:#BBDEFB;" d="M383.251,281.073c-11.5,14.219-20.583,25.458-20.583,38.927v21.333
	c0,11.76-9.563,21.333-21.333,21.333h-128c-11.771,0-21.333-9.573-21.333-21.333V320c0-13.469-9.063-24.729-20.563-38.979
	c-9.932-12.339-21.659-27.224-30.454-47.03c2.223,0.189,4.372,0.676,6.642,0.676c83.667,0,151.042-113.323,151.042-207.156
	c0-1.637-0.659-3.057-0.935-4.616c72.695,10,128.935,72.366,128.935,147.772C426.668,227.365,401.564,258.406,383.251,281.073z"/>
<path style="opacity:0.06;enable-background:new    ;" d="M354.942,115.284c-12.457-11.811-32.856-4.502-34.855,12.547
	c-3.213,27.407-15.209,53.937-36.252,74.981c-22.717,22.717-51.822,34.733-81.53,36.677c-8.286,0.542-13.13,9.586-8.516,16.49
	c4.657,6.97,9.761,13.325,14.829,19.593c12.422,15.369,26.308,32.534,29.427,55.953c0.716,5.376,5.734,9.807,11.158,9.807h64.306
	c5.424,0,10.442-4.431,11.159-9.807c3.121-23.419,17.007-40.583,29.429-55.943c16.677-20.635,33.927-41.979,33.927-83.583
	C388.024,161.751,375.294,134.579,354.942,115.284z"/>
<linearGradient id="SVGID_1_" gradientUnits="userSpaceOnUse" x1="-44.137" y1="639.4738" x2="-26.8002" y2="631.3939" gradientTransform="matrix(21.3333 0 0 -21.3333 996.3333 13791.667)">
	<stop  offset="0" style="stop-color:#FFFFFF;stop-opacity:0.2"/>
	<stop  offset="1" style="stop-color:#FFFFFF;stop-opacity:0"/>
</linearGradient>
<path style="fill:url(#SVGID_1_);" d="M277.335,0c-1.156,0-5.762,0-6.188,0C177.314,0,64.001,67.375,64.001,151.042
	c0,17.526,5.947,33.612,17.145,48.146c-6.184,13.422-11.872,27.483-16.665,43c-1.75,5.625,1.417,11.594,7.042,13.333
	c1.042,0.323,2.104,0.479,3.146,0.479c4.563,0,8.771-2.938,10.188-7.521c3.641-11.78,7.772-22.62,12.186-33.018
	c6.02,4.962,12.243,9.238,18.828,12.245c10.06,30.206,26.566,51.306,38.965,66.701c8.5,10.542,15.833,19.646,15.833,25.594v21.333
	c0,15.723,8.645,29.329,21.333,36.73v67.353c0,11.229,4.563,22.229,12.5,30.167l20.792,20.792
	C235.376,506.448,248.751,512,263.001,512h28.667c14.25,0,27.625-5.552,37.708-15.625l20.792-20.792
	c7.938-7.938,12.5-18.938,12.5-30.167v-67.353c12.689-7.401,21.333-21.008,21.333-36.73V320c0-5.927,7.333-15.01,15.833-25.521
	c19.188-23.719,48.167-59.563,48.167-123.813C448.001,76.563,371.439,0,277.335,0z"/>
<g>
</g>
<g>
</g>
<g>
</g>
<g>
</g>
<g>
</g>
<g>
</g>
<g>
</g>
<g>
</g>
<g>
</g>
<g>
</g>
<g>
</g>
<g>
</g>
<g>
</g>
<g>
</g>
<g>
</g>
</svg>
