<?xml version="1.0" encoding="iso-8859-1"?>
<!-- Generator: Adobe Illustrator 19.0.0, SVG Export Plug-In . SVG Version: 6.00 Build 0)  -->
<svg version="1.1" id="Capa_1" xmlns="http://www.w3.org/2000/svg" xmlns:xlink="http://www.w3.org/1999/xlink" x="0px" y="0px"
	 viewBox="0 0 469.17 469.17" style="enable-background:new 0 0 469.17 469.17;" xml:space="preserve">
<path style="fill:#303C42;" d="M245.336,21.501c-3.973,0-7.846,0.384-11.764,0.59c-2.6-12.487-13.178-22.09-26.423-22.09
	c-93.833,0-207.146,67.375-207.146,151.042c0,17.526,5.947,33.612,17.145,48.146c-6.184,13.422-11.872,27.483-16.665,43
	c-1.75,5.625,1.417,11.594,7.042,13.333c1.042,0.323,2.104,0.479,3.146,0.479c4.563,0,8.771-2.938,10.188-7.521
	c0.216-0.699,0.486-1.298,0.704-1.992c0.629,122.891,100.747,222.68,223.775,222.68c123.417,0,223.833-100.406,223.833-223.833
	S368.753,21.501,245.336,21.501z"/>
<path id="SVGCleanerId_0" style="fill:#BBDEFB;" d="M245.336,447.835c-24.753,0-51.438-40.961-65.216-106.5h130.432
	C296.774,406.874,270.089,447.835,245.336,447.835z"/>
<g>
	<path style="fill:#BBDEFB;" d="M176.276,320.001c-3.517-22.725-5.607-47.708-5.607-74.667c0-19.788,1.19-39.292,3.385-58.111
		c4.613-5.225,9.029-10.729,13.211-16.556h127.13c3.517,22.725,5.607,47.708,5.607,74.667s-2.09,51.941-5.607,74.667H176.276z"/>
	<path style="fill:#BBDEFB;" d="M233.785,46.142c3.971-1.971,7.87-3.307,11.551-3.307c24.753,0,51.438,40.961,65.216,106.5H200.999
		C218.858,117.84,230.633,81.283,233.785,46.142z"/>
	<path style="fill:#BBDEFB;" d="M335.949,170.668h97.445c9.22,23.135,14.441,48.284,14.441,74.667s-5.221,51.531-14.441,74.667
		h-97.445c3.434-23.29,5.387-48.323,5.387-74.667S339.383,193.958,335.949,170.668z"/>
	<path style="fill:#BBDEFB;" d="M423.574,149.335h-91.313c-8.591-43.133-22.777-78.499-40.63-100.952
		C348.595,61.779,396.417,99.113,423.574,149.335z"/>
</g>
<path style="fill:#7CB342;" d="M21.336,151.043c0-69.854,102.167-129.708,185.813-129.708c3.417,0,6.188,2.771,6.188,6.177
	c0,83.646-59.854,185.823-129.708,185.823c-15.074,0-28.939-6.125-41.349-17.889c25.388-48.531,62.932-81.909,122.432-111.204
	c5.292-2.604,7.458-9,4.854-14.281c-2.604-5.292-8.979-7.438-14.271-4.865c-59.788,29.44-99.505,64.225-126.98,112.249
	C23.858,169.047,21.336,160.296,21.336,151.043z"/>
<path style="fill:#BBDEFB;" d="M44.168,223.346c12.207,7.275,25.339,11.322,39.46,11.322c24.126,0,46.813-9.634,67.004-25.296
	c-0.796,11.857-1.296,23.845-1.296,35.962c0,26.344,1.953,51.376,5.387,74.667H57.278c-9.22-23.135-14.441-48.284-14.441-74.667
	C42.836,238.065,43.353,230.714,44.168,223.346z"/>
<path id="SVGCleanerId_1" style="fill:#BBDEFB;" d="M67.098,341.335h91.313c8.591,43.133,22.777,78.499,40.63,100.952
	C142.077,428.891,94.255,391.556,67.098,341.335z"/>
<path id="SVGCleanerId_2" style="fill:#BBDEFB;" d="M291.632,442.287c17.853-22.453,32.039-57.819,40.63-100.952h91.313
	C396.417,391.556,348.595,428.891,291.632,442.287z"/>
<g>
	<path id="SVGCleanerId_0_1_" style="fill:#BBDEFB;" d="M245.336,447.835c-24.753,0-51.438-40.961-65.216-106.5h130.432
		C296.774,406.874,270.089,447.835,245.336,447.835z"/>
</g>
<g>
	<path id="SVGCleanerId_1_1_" style="fill:#BBDEFB;" d="M67.098,341.335h91.313c8.591,43.133,22.777,78.499,40.63,100.952
		C142.077,428.891,94.255,391.556,67.098,341.335z"/>
</g>
<g>
	<path id="SVGCleanerId_2_1_" style="fill:#BBDEFB;" d="M291.632,442.287c17.853-22.453,32.039-57.819,40.63-100.952h91.313
		C396.417,391.556,348.595,428.891,291.632,442.287z"/>
</g>
<path style="opacity:0.1;enable-background:new    ;" d="M44.168,223.346c-0.815,7.367-1.332,14.719-1.332,21.988
	c0,0.451,0.063,0.885,0.065,1.336c12.901,5.973,26.566,9.331,40.727,9.331c23.565,0,45.805-7.346,66.038-19.818
	c0.18-8.984,0.372-17.971,0.966-26.811c-20.191,15.661-42.878,25.296-67.004,25.296C69.507,234.668,56.375,230.621,44.168,223.346z"
	/>
<path style="opacity:0.1;enable-background:new    ;" d="M213.15,170.668h-25.884c-4.182,5.827-8.598,11.331-13.211,16.556
	c-1.25,10.716-2.073,21.689-2.637,32.775C187.172,206.348,201.216,189.542,213.15,170.668z"/>
<path style="opacity:0.1;enable-background:new    ;" d="M245.336,42.835c-3.681,0-7.579,1.336-11.551,3.307
	c-3.152,35.141-14.927,71.698-32.786,103.193h24.384c16.581-32.445,27.174-68.842,29.855-104.281
	C251.926,43.654,248.615,42.835,245.336,42.835z"/>
<path style="opacity:0.1;enable-background:new    ;" d="M196.345,394.449c14.04,33.57,31.926,53.385,48.991,53.385
	c22.354,0,46.188-33.618,60.764-88.366C274.723,380.889,236.998,393.586,196.345,394.449z M423.574,149.335
	c-15.198-28.104-37.031-51.948-63.151-70.044c14.026,20.915,24.203,44.599,29.66,70.044H423.574z M78.532,359.938
	c28.129,40.763,70.833,70.667,120.509,82.349c-9.878-12.423-18.482-29.108-25.788-48.565
	C138.374,390.517,106.034,378.557,78.532,359.938z M433.395,170.668h-39.866c0.734,7.014,1.141,14.125,1.141,21.333
	c0,48.559-17.117,93.098-45.594,128h84.319c9.22-23.135,14.441-48.284,14.441-74.667S442.615,193.804,433.395,170.668z
	 M291.632,442.287c56.964-13.396,104.785-50.73,131.943-100.952h-91.313C323.671,384.468,309.485,419.833,291.632,442.287z"/>
<path style="opacity:0.1;enable-background:new    ;" d="M207.149,21.335c-2.049,0-4.152,0.198-6.223,0.27
	c-4.219,82.275-62.758,177.676-130.855,177.676c-7.94,0-17.958-1.049-27.552-3.641c12.35,11.621,26.129,17.695,41.109,17.695
	c69.854,0,129.708-102.177,129.708-185.823C213.336,24.106,210.565,21.335,207.149,21.335z"/>
<linearGradient id="SVGID_1_" gradientUnits="userSpaceOnUse" x1="-67.1364" y1="617.939" x2="-46.1059" y2="608.1309" gradientTransform="matrix(21.3333 0 0 -21.3333 1431.7762 13313.3936)">
	<stop  offset="0" style="stop-color:#FFFFFF;stop-opacity:0.2"/>
	<stop  offset="1" style="stop-color:#FFFFFF;stop-opacity:0"/>
</linearGradient>
<path style="fill:url(#SVGID_1_);" d="M245.336,21.501c-3.973,0-7.846,0.384-11.764,0.59c-2.6-12.487-13.178-22.09-26.423-22.09
	c-93.833,0-207.146,67.375-207.146,151.042c0,17.526,5.947,33.612,17.145,48.146c-6.184,13.422-11.872,27.483-16.665,43
	c-1.75,5.625,1.417,11.594,7.042,13.333c1.042,0.323,2.104,0.479,3.146,0.479c4.563,0,8.771-2.938,10.188-7.521
	c0.216-0.699,0.486-1.298,0.704-1.992c0.629,122.891,100.747,222.68,223.775,222.68c123.417,0,223.833-100.406,223.833-223.833
	S368.753,21.501,245.336,21.501z"/>
<g>
</g>
<g>
</g>
<g>
</g>
<g>
</g>
<g>
</g>
<g>
</g>
<g>
</g>
<g>
</g>
<g>
</g>
<g>
</g>
<g>
</g>
<g>
</g>
<g>
</g>
<g>
</g>
<g>
</g>
</svg>
