<svg height="512pt" viewBox="0 0 512.0027 512" width="512pt" xmlns="http://www.w3.org/2000/svg" xmlns:xlink="http://www.w3.org/1999/xlink"><linearGradient id="a"><stop offset="0" stop-color="#131830" stop-opacity="0"/><stop offset=".8421" stop-color="#131830"/></linearGradient><linearGradient id="b" gradientUnits="userSpaceOnUse" x1="476.1094061468" x2="333.6097057008" xlink:href="#a" y1="268.133355409" y2="125.633654963"/><linearGradient id="c"><stop offset="0" stop-color="#3b395f"/><stop offset=".3952" stop-color="#39375d"/><stop offset=".6279" stop-color="#323154"/><stop offset=".8179" stop-color="#262846"/><stop offset=".9849" stop-color="#151a32"/><stop offset="1" stop-color="#131830"/></linearGradient><radialGradient id="d" cx="215.8434307844" cy="185.72692" gradientUnits="userSpaceOnUse" r="336.6901399656" xlink:href="#c"/><linearGradient id="e" gradientUnits="userSpaceOnUse" x1="330.7470221178" x2="142.6793020918" xlink:href="#a" y1="491.886988808" y2="251.6149232132"/><linearGradient id="f" gradientUnits="userSpaceOnUse" x1="499.0239257968" x2="318.2908599028" xlink:href="#a" y1="473.0195799166" y2="292.2864136304"/><linearGradient id="g" gradientUnits="userSpaceOnUse" x1="471.3295327204" x2="380.582814512" xlink:href="#a" y1="156.7265247938" y2="65.9798065854"/><radialGradient id="h" cx="185.9712297134" cy="18.5276261958" gradientUnits="userSpaceOnUse" r="313.8369599498"><stop offset="0" stop-color="#ecf7ff"/><stop offset=".3473" stop-color="#e9f5ff"/><stop offset=".62" stop-color="#dff0ff"/><stop offset=".8666" stop-color="#cee7ff"/><stop offset="1" stop-color="#c2e0ff"/></radialGradient><linearGradient id="i"><stop offset=".0029" stop-color="#c2e0ff" stop-opacity="0"/><stop offset=".0763" stop-color="#bfdcfd" stop-opacity=".07451"/><stop offset="1" stop-color="#9eb2e7"/></linearGradient><linearGradient id="j" gradientUnits="userSpaceOnUse" x1="385.789154004" x2="431.0262808928" xlink:href="#i" y1="228.0525726966" y2="91.5742960144"/><linearGradient id="k" gradientUnits="userSpaceOnUse" x1="334.0382800026" x2="392.199195974" xlink:href="#i" y1="134.6854172838" y2="48.4527339562"/><linearGradient id="l" gradientUnits="userSpaceOnUse" x1="215.5650432138" x2="215.5650432138" xlink:href="#i" y1="152.597494" y2="-18.1165307262"/><linearGradient id="m" gradientUnits="userSpaceOnUse" x1="126.700979932" x2="34.8886989128" xlink:href="#i" y1="226.745165076" y2="139.9750823018"/><linearGradient id="n" gradientUnits="userSpaceOnUse" x1="256.00011" x2="256.00011" xlink:href="#i" y1="246.4371954982" y2="352.4814763582"/><radialGradient id="o" cx="368.6634493904" cy="9.6311706084" gradientUnits="userSpaceOnUse" r="90.9009206276"><stop offset="0" stop-color="#ecf7ff"/><stop offset="1" stop-color="#c2e0ff"/></radialGradient><linearGradient id="p" gradientUnits="userSpaceOnUse" x1="247.6352311116" x2="136.6429198902" xlink:href="#i" y1="350.0631286524" y2="239.070817431"/><linearGradient id="q" gradientTransform="matrix(1.003118 .0375467 -.0375467 1.003118 -268.510569 535.894282)" gradientUnits="userSpaceOnUse" x1="687.4132" x2="708.8719" y1="-256.1581" y2="-171.1181"><stop offset="0" stop-color="#8be1e2"/><stop offset=".1873" stop-color="#87e1e1"/><stop offset=".3558" stop-color="#7ce2dd"/><stop offset=".5172" stop-color="#6ae2d7"/><stop offset=".6741" stop-color="#50e4ce"/><stop offset=".8278" stop-color="#2fe5c2"/><stop offset=".9772" stop-color="#07e7b4"/><stop offset="1" stop-color="#00e7b2"/></linearGradient><linearGradient id="r" gradientTransform="matrix(.916078 -.410704 .410704 .916078 806.155344 504.040051)" gradientUnits="userSpaceOnUse" x1="-231.1288" x2="-270.2115" y1="-282.4041" y2="-317.2174"><stop offset=".0029" stop-color="#00e7b2" stop-opacity="0"/><stop offset=".4308" stop-color="#1bc4b7" stop-opacity=".427451"/><stop offset="1" stop-color="#3b9abe"/></linearGradient><radialGradient id="s" cx="437.7613" cy="320.5085" gradientTransform="matrix(.547639 .841387 .841387 -.547639 -76.848389 140.523766)" gradientUnits="userSpaceOnUse" r="33.4877" xlink:href="#c"/><linearGradient id="t" gradientUnits="userSpaceOnUse" x1="387.5785445768" x2="353.4450961846" xlink:href="#i" y1="342.4743818622" y2="206.44285047"/><linearGradient id="u"><stop offset="0" stop-color="#ffebc9"/><stop offset=".2771" stop-color="#ffe9c5"/><stop offset=".5263" stop-color="#fee2bb"/><stop offset=".7641" stop-color="#fdd7a8"/><stop offset=".9948" stop-color="#fbc78f"/><stop offset="1" stop-color="#fbc78e"/></linearGradient><radialGradient id="v" cx="365.7218575382" cy="105.1193120306" gradientUnits="userSpaceOnUse" r="166.6708292634" xlink:href="#u"/><linearGradient id="w" gradientUnits="userSpaceOnUse" x1="288.3628407686" x2="230.3862448764" xlink:href="#i" y1="188.439015283" y2="143.764486283"/><radialGradient id="x" cx="241.4431406078" cy="121.475410039" gradientUnits="userSpaceOnUse" r="43.1021863636" xlink:href="#u"/><linearGradient id="y" gradientUnits="userSpaceOnUse" x1="335.692944243" x2="224.2168430098" xlink:href="#i" y1="342.2901621752" y2="230.814060942"/><radialGradient id="z" cx="212.6388113682" cy="324.7157044276" gradientUnits="userSpaceOnUse" r="175.0471528626" xlink:href="#u"/><linearGradient id="A"><stop offset="0" stop-color="#e58200" stop-opacity="0"/><stop offset=".0396" stop-color="#e27f04" stop-opacity=".039216"/><stop offset=".4671" stop-color="#c15d2f" stop-opacity=".466667"/><stop offset=".8016" stop-color="#ad4949" stop-opacity=".8"/><stop offset="1" stop-color="#a64153"/></linearGradient><linearGradient id="B" gradientUnits="userSpaceOnUse" x1="170.8383102698" x2="168.5712536094" xlink:href="#A" y1="392.850585469" y2="350.1001733742"/><linearGradient id="C" gradientUnits="userSpaceOnUse" x1="129.765451837" x2="129.765451837" xlink:href="#A" y1="324.5263647384" y2="363.513976785"/><linearGradient id="D" gradientUnits="userSpaceOnUse" x1="277.899664508" x2="257.1519097106" y1="534.1849332574" y2="484.9927552574"><stop offset="0" stop-color="#131830" stop-opacity="0"/><stop offset="1" stop-color="#131830"/></linearGradient><radialGradient id="E" cx="281.7215" cy="346.6195" gradientTransform="matrix(.927925 -.383096 .383096 .927925 -147.650962 124.423173)" gradientUnits="userSpaceOnUse" r="162.4071" xlink:href="#u"/><path d="m463.125 406.453125c30.730469-42.234375 48.875-94.21875 48.875-150.453125 0-59.324219-20.1875-113.929688-54.058594-157.339844-4.484375-.507812-8.992187-.503906-13.398437-.003906-2.917969.332031-5.789063.925781-8.585938 1.695312-2.796875.757813-5.523437 1.726563-8.136719 2.910157-2.617187 1.167969-5.125 2.535156-7.496093 4.082031-1.203125.742188-2.335938 1.59375-3.472657 2.414062-1.101562.882813-2.199218 1.746094-3.226562 2.699219-4.175781 3.703125-7.683594 8.039063-10.394531 12.71875-.699219 1.152344-1.28125 2.375-1.894531 3.566407-.542969 1.21875-1.125 2.445312-1.585938 3.648437-.972656 2.410156-1.925781 4.832031-2.855469 7.269531l61.824219 61.820313-25.015625 20.964843c-16.128906 8.789063-34.238281 13.992188-52.71875 15.15625-18.476563 1.210938-37.347656-1.644531-55.003906-8.574218-1.109375-.417969-2.210938-.859375-3.304688-1.328125-1.105469-.441407-2.183593-.9375-3.273437-1.425781-1.09375-.472657-2.15625-1.015626-3.238282-1.519532-1.078124-.519531-2.308593-1.144531-3.367187-1.691406-4.414063-2.210938-8.78125-4.566406-13.066406-7.085938-4.273438-2.53125-8.535157-5.121093-12.699219-7.878906-2.082031-1.378906-4.140625-2.792968-6.183594-4.238281-1.921875-1.351563-3.832031-2.722656-5.714844-4.132813-.125-.175781-.253906-.347656-.378906-.523437.039063.113281.082032.222656.121094.335937-.039062-.03125-.074219-.058593-.113281-.085937-.847657-.636719-1.6875-1.28125-2.53125-1.929687-.753907-1.011719-1.5-2.039063-2.234375-3.074219.21875.628906.460937 1.246093.6875 1.871093-.417969-.332031-.84375-.660156-1.261719-.996093-1.425781-1.84375-2.824219-3.714844-4.183594-5.628907.351563 1.007813.730469 2.007813 1.109375 3.007813-2.015625-2.519531-3.976562-5.101563-5.863281-7.765625.351563 1.011719.726563 2.011719 1.109375 3.011719-2.015625-2.523438-3.976562-5.105469-5.863281-7.765625.351562 1.007812.726562 2.011718 1.109375 3.011718-2.015625-2.523437-3.976563-5.105468-5.867188-7.765624.351563 1.007812.730469 2.011718 1.109375 3.007812-2.015625-2.519531-3.976562-5.101562-5.863281-7.761719.351562 1.007813.726562 2.007813 1.109375 3.007813-2.015625-2.523438-3.976563-5.105469-5.863281-7.765625.347656 1.007812.726562 2.011719 1.105468 3.011719-2.011718-2.523438-3.976562-5.105469-5.863281-7.765626.351563 1.007813.726563 2.007813 1.109375 3.007813-2.015625-2.519531-3.976562-5.101563-5.863281-7.761719 3.414063 9.832032 8.355469 19.21875 14.15625 28.054688 2.902344 4.417968 6.042969 8.695312 9.382813 12.816406 3.316406 4.148438 6.835937 8.132812 10.511718 11.980469zm0 0" fill="url(#b)"/><path d="m512 256c0 141.386719-114.613281 256-256 256s-256-114.613281-256-256c0-141.382812 114.613281-256 256-256s256 114.617188 256 256zm0 0" fill="url(#d)"/><path d="m256 512c77.222656 0 146.457031-34.191406 193.390625-88.261719l-203.878906-203.882812c-5.847657-6.390625-12.761719-11.820313-20.328125-16.085938-10.046875-5.667969-21.355469-9.195312-32.898438-10.191406-11.527344-.976563-23.21875.484375-34.195312 4.3125-10.953125 3.828125-21.113282 9.960937-29.492188 17.96875-8.375 8.011719-15.050781 17.773437-19.453125 28.507813-4.390625 10.730468-6.480469 22.429687-6.023437 33.96875l.097656 2.160156c.039062.707031.113281 1.304687.167969 1.964844l.734375 7.726562.550781 3.84375.5625 3.839844.285156 1.921875.375 1.902343c.507813 2.539063.988281 5.082032 1.527344 7.613282 2.308594 10.09375 5.460937 19.992187 9.453125 29.53125 1.527344 3.703125 3.1875 7.351562 4.960938 10.9375-2.21875-.097656-4.4375-.230469-6.65625-.410156-9.21875-.6875-18.414063-2.042969-27.503907-4.046876-9.089843-2-18.050781-4.714843-26.847656-8-8.769531-3.347656-17.328125-7.242187-25.210937-12.339843-3.675782-2.347657-7.195313-4.972657-10.511719-7.867188-.675781-.769531-1.34375-1.546875-2-2.339843.230469.402343.476562.792968.710937 1.191406-.316406-.285156-.625-.582032-.9375-.875-1.40625-1.5-2.777344-3.039063-4.09375-4.636719.285156.507813.59375.996094.890625 1.496094-1.804687-1.863281-3.546875-3.800781-5.210937-5.816407 4.160156 7.367188 9.613281 14.082032 15.914062 19.972657l182.207032 182.214843c14.113281 2.40625 28.613281 3.679688 43.414062 3.679688zm0 0" fill="url(#e)"/><path d="m512 256c0 129.910156-96.769531 237.226562-222.15625 253.78125l-164.886719-164.882812c-6.121093-4.425782-10.117187-11.636719-10.117187-19.777344 0-.792969.050781-1.574219.128906-2.347656-.722656-.746094-1.433594-1.484376-2.128906-2.25l-38.519532-38.519532c-15.429687-13.933594-25.128906-34.09375-25.128906-56.53125 0-37.777344 27.5-69.121094 63.578125-75.125-.007812-.339844-.019531-.691406-.019531-1.03125 0-56.785156 46.03125-102.824218 102.8125-102.824218 29.734375 0 56.511719 12.640624 75.285156 32.820312 1.90625 1.765625 3.734375 3.601562 5.5 5.5 1.90625 1.765625 3.734375 3.605469 5.5 5.5.441406.414062.886719.84375 1.316406 1.253906 8.503907-5.609375 18.671876-8.882812 29.625-8.882812 7.800782 0 15.210938 1.65625 21.894532 4.648437 7.269531 3.242188 13.683594 8.050781 18.824218 13.984375l137.949219 137.9375c.109375 1.707032.210938 3.414063.28125 5.121094.171875 3.855469.261719 7.730469.261719 11.625zm0 0" fill="url(#f)"/><path d="m511.738281 244.375-157.054687-157.042969-11.0625-11.0625c-5.007813-4.027343-8.210938-10.1875-8.210938-17.117187 0-12.117188 9.820313-21.9375 21.9375-21.9375 2.1875 0 4.296875.320312 6.28125.914062 1.074219-4.328125 2.964844-8.332031 5.503906-11.835937 79.921876 39.433593 136.28125 119.347656 142.324219 212.964843.109375 1.703126.210938 3.410157.28125 5.117188zm0 0" fill="url(#g)"/><path d="m386.644531 149.3125c-.515625 0-1.027343.007812-1.542969.019531 1-4.101562 1.542969-8.382812 1.542969-12.792969 0-29.742187-24.113281-53.855468-53.859375-53.855468-11.699218 0-22.519531 3.742187-31.351562 10.082031-18.390625-27.871094-49.980469-46.269531-85.871094-46.269531-56.78125 0-102.808594 46.035156-102.808594 102.816406 0 .347656.007813.691406.011719 1.039062-36.070313 6-63.574219 37.347657-63.574219 75.121094 0 42.066406 34.101563 76.164063 76.164063 76.164063h261.289062c42.0625 0 76.164063-34.097657 76.164063-76.164063 0-42.0625-34.101563-76.160156-76.164063-76.160156zm0 0" fill="url(#h)"/><path d="m462.808594 225.472656c0 42.066406-34.101563 76.164063-76.164063 76.164063-42.066406 0-76.164062-34.097657-76.164062-76.164063 0-42.0625 34.097656-76.164062 76.164062-76.164062 42.0625 0 76.164063 34.101562 76.164063 76.164062zm0 0" fill="url(#j)"/><path d="m386.644531 136.539062c0 29.746094-24.113281 53.855469-53.859375 53.855469-29.742187 0-53.855468-24.109375-53.855468-53.855469 0-29.742187 24.113281-53.855468 53.855468-53.855468 29.746094 0 53.859375 24.113281 53.859375 53.855468zm0 0" fill="url(#k)"/><path d="m318.375 149.3125c0 56.78125-46.027344 102.808594-102.808594 102.808594s-102.8125-46.027344-102.8125-102.808594 46.03125-102.8125 102.8125-102.8125 102.808594 46.03125 102.808594 102.8125zm0 0" fill="url(#l)"/><path d="m201.519531 225.472656c0 42.066406-34.097656 76.164063-76.164062 76.164063-42.0625 0-76.164063-34.097657-76.164063-76.164063 0-42.0625 34.101563-76.164062 76.164063-76.164062 42.066406 0 76.164062 34.101562 76.164062 76.164062zm0 0" fill="url(#m)"/><path d="m49.898438 235.847656c5.058593 37.15625 36.914062 65.789063 75.457031 65.789063h261.289062c38.542969 0 70.398438-28.632813 75.457031-65.789063zm0 0" fill="url(#n)"/><path d="m431.796875 46.78125c0-.09375.003906-.1875.003906-.285156 0-19.105469-15.488281-34.597656-34.597656-34.597656-16.222656 0-29.832031 11.167968-33.574219 26.230468-1.988281-.59375-4.09375-.914062-6.277344-.914062-12.117187 0-21.941406 9.820312-21.941406 21.941406 0 12.117188 9.824219 21.941406 21.941406 21.941406h70.96875c9.570313 0 17.332032-7.757812 17.332032-17.332031 0-8.382813-5.949219-15.375-13.855469-16.984375zm0 0" fill="url(#o)"/><path d="m265.761719 301.636719-3.972657-3.96875c-5.640624-6.097657-13.707031-9.917969-22.667968-9.917969-.105469 0-.207032.011719-.3125.011719-.0625-.058594-.121094-.117188-.183594-.179688l-20.382812-20.382812c-8.867188-9.285157-21.359376-15.078125-35.210938-15.078125-26.894531 0-48.699219 21.800781-48.699219 48.699218 0 .132813.011719.265626.011719.398438-.582031.117188-1.152344.261719-1.714844.417969zm0 0" fill="url(#p)"/><path d="m415.390625 377.207031s-60.972656-58.984375 38.792969-99.492187c4.164062-1.691406 8.910156.234375 10.769531 4.328125 8.9375 19.664062 26.140625 74.777343-49.5625 95.164062zm0 0" fill="url(#q)"/><path d="m464.953125 282.042969c-1.03125-2.269531-2.949219-3.867188-5.164063-4.558594-26.714843 44.480469-44.394531 99.722656-44.394531 99.722656 75.699219-20.386719 58.496094-75.5 49.558594-95.164062zm0 0" fill="url(#r)"/><path d="m453.019531 310.949219c-.746093.449219-1.523437.84375-2.285156 1.242187-.761719.402344-1.519531.804688-2.296875 1.164063-.769531.378906-1.597656.640625-2.40625.917969-.8125.273437-1.546875.664062-2.230469 1.167968-.671875.511719-1.328125 1.058594-1.957031 1.699219.40625-1.105469.816406-2.203125 1.226562-3.308594l2.070313-5.359375c.679687-1.792968 1.464844-3.527344 2.171875-5.3125 1.480469-3.535156 3.082031-6.988281 4.925781-10.347656l-.722656-.519531-1.789063 2.3125-.898437 1.164062c-.289063.394531-.546875.804688-.824219 1.203125-1.054687 1.628906-2.199218 3.230469-3.167968 4.90625-2.050782 3.3125-3.917969 6.707032-5.8125 10.101563-.347657.664062-.695313 1.324219-1.042969 1.988281-.125-.613281-.289063-1.207031-.554688-1.785156-.355469-.777344-.730469-1.5625-.984375-2.378906-.273437-.8125-.5-1.640626-.726562-2.472657-.234375-.828125-.480469-1.664062-.664063-2.515625-.445312-1.695312-.734375-3.425781-1.082031-5.195312l-.496094-.023438c-.433594 1.761719-.738281 3.570313-.886718 5.398438-.085938.917968-.105469 1.835937-.132813 2.761718.015625.917969.03125 1.84375.097656 2.765626.058594.921874.066407 1.863281.113281 2.808593.070313.9375.292969 1.84375.703126 2.695313.085937.164062.171874.328125.257812.492187.972656 1.78125.972656 3.933594.070312 5.75l-.019531.03125c-1.570312 3.160157-3.070312 6.347657-4.589843 9.53125-.191407-.855469-.449219-1.644531-.738282-2.414062-.308594-.792969-.722656-1.515625-1.265625-2.179688-.535156-.664062-1.097656-1.328125-1.546875-2.058593-.464844-.714844-.894531-1.460938-1.324218-2.207032-.433594-.746094-.878907-1.492187-1.269532-2.269531-.859375-1.527344-1.570312-3.132813-2.347656-4.761719l-.484375.101563c.019531 1.816406.175781 3.644531.492187 5.453125.144532.90625.355469 1.800781.558594 2.703125.246094.886719.492188 1.777343.789063 2.652343.289062.882813.527343 1.789063.8125 2.691407.300781.890625.746093 1.714843 1.355469 2.433593.273437.3125.5625.621094.867187.914063 1.488281 1.429687 1.816406 3.691406.902344 5.542969-.78125 1.589844-1.570313 3.179687-2.339844 4.773437-.984375 2.019531-1.859375 4.082031-2.652344 6.171875-.179687-.730468-.40625-1.417968-.65625-2.09375-.3125-.792968-.726562-1.511718-1.269531-2.175781-.535156-.664063-1.097656-1.332031-1.546875-2.058594-.464844-.71875-.890625-1.460937-1.320313-2.210937-.433593-.742188-.878906-1.492188-1.269531-2.269532-.859375-1.527343-1.570312-3.132812-2.351562-4.761718l-.484375.105468c.019531 1.8125.179687 3.640626.492187 5.449219.148438.910157.355469 1.800781.558594 2.703125.246094.886719.496094 1.777344.789063 2.65625.289062.878906.53125 1.789063.816406 2.6875.300781.890625.742187 1.714844 1.355468 2.433594.613282.707031 1.296876 1.375 2.105469 1.9375.921875.640625 1.359375 1.773438 1.054688 2.859375-.792969 2.804687-2.1875 7.882813-2.742188 10.632813-.742187 3.839843-1.347656 7.726562-1.453125 11.78125l.839844.300781c2.5-3.179688 4.574219-6.507813 6.507812-9.882813 1.925782-3.378906 3.679688-6.8125 5.292969-10.300781.03125-.058594.058594-.121094.085938-.183594.523437-1.125 1.738281-1.695312 2.957031-1.464843.898438.167968 1.789062.203124 2.664062.167968.941407-.050781 1.84375-.289062 2.699219-.683594.847657-.410156 1.675781-.859374 2.511719-1.253906.84375-.386718 1.660156-.816406 2.472656-1.246094.796875-.472656 1.589844-.929687 2.351563-1.445312 1.53125-1.011719 2.972656-2.152344 4.304687-3.382812l-.253906-.421876c-1.722656.550782-3.375 1.132813-5.078125 1.554688-.832031.25-1.683594.4375-2.523437.636719-.839844.199219-1.671876.398437-2.515626.550781-.835937.171875-1.707031.222656-2.558593.285156-.855469.0625-1.660157.253906-2.449219.570313-.851562.359375-1.6875.769531-2.53125 1.292969.730469-1.878907 1.390625-3.78125 1.996094-5.707032.464844-1.539062 1.121094-3.613281 1.699218-5.433594.617188-1.933593 2.394532-3.304687 4.425782-3.300781.992187.003907 1.976562-.140625 2.886718-.175781.941407-.046875 1.84375-.289062 2.699219-.683594.847657-.410156 1.675781-.859375 2.515625-1.253906.835938-.386719 1.65625-.816406 2.46875-1.246094.796875-.46875 1.589844-.929687 2.351563-1.445312 1.53125-1.011719 2.972656-2.152344 4.304687-3.378906l-.253906-.425782c-1.722656.550782-3.375 1.132813-5.078125 1.554688-.832031.25-1.683594.4375-2.523437.636718-.835938.199219-1.671876.398438-2.515626.550782-.835937.171875-1.703124.222656-2.558593.285156-.851563.0625-1.660157.253906-2.449219.570312-1.496094.632813-2.953125 1.40625-4.476562 2.75 1.285156-3.605468 2.539062-7.230468 3.878906-10.8125l.046875-.140624c.765625-2.195313 2.652343-3.875 4.957031-4.203126.652344-.09375 1.28125-.246093 1.894531-.429687.898438-.285156 1.714844-.746094 2.441407-1.335937.722656-.613282 1.410156-1.253907 2.121093-1.84375.71875-.585938 1.402344-1.207032 2.082031-1.824219.652344-.65625 1.308594-1.300781 1.914063-1.992188 1.230469-1.363281 2.339844-2.824219 3.320313-4.351562l-.351563-.34375c-1.53125.96875-2.988281 1.945312-4.527344 2.78125zm0 0" fill="url(#s)"/><path d="m462.808594 225.472656c0 4.628906-.414063 9.164063-1.207032 13.574219-6.402343 35.585937-37.523437 62.59375-74.960937 62.59375h-28.289063l-85.253906-85.28125-7.089844-7.097656c-3.671874-3.847657-7.195312-7.832031-10.511718-11.980469-3.339844-4.125-6.484375-8.402344-9.382813-12.816406-5.804687-8.835938-10.742187-18.222656-14.15625-28.0625.753907 1.066406 1.515625 2.109375 2.289063 3.144531.773437 1.042969 1.554687 2.066406 2.347656 3.082031.390625.511719.792969 1.023438 1.214844 1.523438 9.378906 11.757812 20.097656 22.039062 31.613281 31.171875.421875.34375.84375.675781 1.265625.996093.921875.742188 1.867188 1.464844 2.800781 2.167969.421875.332031.851563.652344 1.273438.972657.042969.03125.070312.050781.113281.082031.089844.070312.167969.128906.257812.191406.945313.699219 1.890626 1.394531 2.84375 2.085937.953126.683594 1.90625 1.363282 2.871094 2.039063 2.046875 1.445313 4.105469 2.859375 6.183594 4.234375 4.167969 2.761719 8.421875 5.351562 12.699219 7.882812 4.285156 2.519532 8.652343 4.878907 13.070312 7.089844 1.054688.539063 2.289063 1.171875 3.363281 1.683594 1.085938.511719 2.140626 1.054688 3.242188 1.527344 1.085938.480468 2.167969.984375 3.273438 1.425781 1.085937.472656 2.1875.914063 3.304687 1.324219 17.65625 6.9375 36.523437 9.789062 55.003906 8.574218 18.480469-1.164062 36.582031-6.363281 52.714844-15.160156 10.070313-5.46875 19.355469-12.316406 27.578125-20.328125.824219 2.828125 1.527344 9.34375 1.527344 23.359375zm0 0" fill="url(#t)"/><path d="m231.953125 156.40625c12.03125 16.964844 26.773437 31.007812 42.808594 43.050781 2.003906 1.503907 4.042969 2.964844 6.089843 4.402344 2.042969 1.445313 4.097657 2.863281 6.183594 4.238281 4.160156 2.761719 8.425782 5.347656 12.699219 7.882813 4.285156 2.515625 8.652344 4.871093 13.066406 7.085937 1.054688.542969 2.285157 1.167969 3.367188 1.6875 1.082031.507813 2.140625 1.050782 3.238281 1.523438 1.085938.484375 2.167969.980468 3.269531 1.425781 1.09375.46875 2.195313.910156 3.304688 1.328125 17.660156 6.929688 36.527343 9.785156 55.007812 8.574219 18.480469-1.164063 36.585938-6.367188 52.714844-15.160157 16.136719-8.773437 30.289063-21.078124 41.210937-35.980468 1.378907-1.851563 2.691407-3.761719 3.972657-5.6875l1.839843-2.90625c.480469-.832032 1.007813-1.644532 1.4375-2.503906.480469-.839844.851563-1.722657 1.277344-2.589844.351563-.894532.761719-1.769532 1.054688-2.6875.65625-1.8125 1.199218-3.675782 1.585937-5.578125.417969-1.898438.660157-3.84375.769531-5.800781.128907-1.957032.089844-3.933594-.097656-5.90625-.066406-.988282-.230468-1.964844-.339844-2.957032-.175781-.976562-.320312-1.96875-.5625-2.9375-.4375-1.953125-1.007812-3.886718-1.75-5.761718-.734374-1.878907-1.574218-3.730469-2.597656-5.488282-.996094-1.769531-2.078125-3.519531-3.34375-5.136718-2.484375-3.28125-5.507812-6.1875-8.914062-8.703126-1.695313-1.273437-3.503906-2.410156-5.390625-3.414062-1.878907-1.035156-3.859375-1.871094-5.890625-2.617188-4.054688-1.511718-8.402344-2.433593-12.859375-2.683593-2.230469-.171875-4.488281-.144531-6.75.03125-2.269531.15625-4.53125.527343-6.78125 1.03125-2.261719.480469-4.503907 1.140625-6.691407 1.984375-2.195312.835937-4.359374 1.8125-6.453124 2.96875-2.101563 1.140625-4.132813 2.453125-6.070313 3.925781-1.960937 1.449219-3.832031 3.0625-5.574219 4.835937-.90625.859376-1.722656 1.800782-2.582031 2.730469-.804687.96875-1.605469 1.917969-2.414063 2.953125-1.609374 2.046875-3.238281 4.078125-4.890624 6.097656.929687-2.4375 1.882812-4.863281 2.855468-7.273437.457032-1.203125 1.042969-2.425781 1.585938-3.648437.609375-1.1875 1.195312-2.410157 1.890625-3.566407 2.714843-4.679687 6.222656-9.015625 10.398437-12.71875 1.027344-.949219 2.125-1.816406 3.226563-2.699219 1.136719-.820312 2.269531-1.667968 3.46875-2.414062 2.371093-1.546875 4.882812-2.910156 7.5-4.082031 2.609375-1.183594 5.335937-2.152344 8.136719-2.910157 2.796874-.765624 5.667968-1.359374 8.585937-1.691406 5.832031-.667968 11.835937-.457031 17.738281.648438 2.941406.574218 5.867188 1.355468 8.707032 2.390625 2.851562 1.007812 5.636718 2.226562 8.320312 3.667969 10.734375 5.726562 19.980469 14.917968 25.65625 26.128906 1.453125 2.78125 2.667969 5.691406 3.683594 8.679687 1.027344 2.984375 1.851562 6.050781 2.375 9.179688.554687 3.125.882812 6.300781.949218 9.492187.089844 3.191406-.046874 6.398438-.453124 9.582032-.394532 3.1875-.980469 6.363281-1.890626 9.457031-.40625 1.5625-.957031 3.078125-1.472656 4.609375-.589844 1.5-1.148437 3.019531-1.839844 4.476562-.640624 1.484375-1.390624 2.910156-2.140624 4.335938-.71875 1.308594-1.394532 2.492187-2.105469 3.738281-1.441407 2.4375-2.925781 4.859375-4.507813 7.21875-12.582031 18.941406-30.046875 34.761719-50.171875 45.542969-20.105469 10.828125-42.84375 16.605468-65.539062 16.742187-11.347657.101563-22.667969-1.308593-33.621094-3.949219-5.484375-1.304687-10.847656-3.039062-16.09375-5.027343-5.238281-1.996094-10.359375-4.273438-15.265625-6.925781-1.230469-.648438-2.449219-1.324219-3.652344-2.023438-1.214844-.679688-2.402344-1.402344-3.589844-2.121094-1.195312-.707031-2.347656-1.480468-3.519531-2.21875l-3.3125-2.1875c-4.464843-3.003906-8.816406-6.140625-13.046875-9.421875-4.242187-3.257812-8.316406-6.726562-12.285156-10.285156-1.984375-1.78125-3.933594-3.597656-5.855469-5.441406-1.898437-1.871094-3.773437-3.761719-5.605469-5.691407-3.675781-3.847656-7.199218-7.832031-10.515624-11.976562-3.335938-4.125-6.476563-8.398438-9.378907-12.820312-5.800781-8.832032-10.742187-18.21875-14.160156-28.054688zm0 0" fill="url(#v)"/><path d="m229.292969 120.078125c-.496094 4.949219.496093 9.589844 1.898437 13.992187 1.449219 4.398438 3.507813 8.546876 6.058594 12.367188 2.160156 3.226562 4.644531 6.246094 7.484375 8.929688l93.746094 93.75c1.09375 1.15625 2.222656 2.28125 3.441406 3.324218 3.480469 3.042969 7.4375 5.640625 12.09375 7.246094-.699219-2.429688-1.699219-4.480469-2.625-6.566406-.941406-2.070313-2-3.992188-3.015625-5.929688-2.109375-3.808594-4.320312-7.445312-6.6875-10.980468-2.386719-3.527344-4.824219-7.015626-7.550781-10.414063-2.464844-3.054687-5.007813-6.0625-8.113281-9.050781zm0 0" fill="url(#w)"/><path d="m229.292969 120.078125c3.621093 3.332031 6.472656 6.683594 9.21875 10.09375 2.730469 3.398437 5.167969 6.886719 7.550781 10.414063 2.367188 3.535156 4.578125 7.171874 6.691406 10.980468 1.011719 1.941406 2.074219 3.859375 3.015625 5.929688.921875 2.085937 1.925781 4.136718 2.621094 6.566406-4.65625-1.605469-8.609375-4.203125-12.09375-7.246094-3.527344-3.011718-6.496094-6.566406-9.050781-10.382812-2.546875-3.816406-4.605469-7.964844-6.054688-12.367188-1.402344-4.398437-2.394531-9.039062-1.898437-13.988281zm0 0" fill="url(#x)"/><path d="m265.316406 291.078125c.972656-5.472656 1.445313-11.042969 1.425782-16.59375-.03125-1.398437-.019532-2.773437-.101563-4.1875-.109375-1.414063-.179687-2.839844-.339844-4.257813-.320312-2.828124-.761719-5.660156-1.367187-8.453124-2.398438-11.191407-7.226563-21.894532-14.035156-31.148438-1.675782-2.289062-3.472657-4.488281-5.390626-6.578125l81.78125 81.78125h-64.492187c1.054687-3.464844 1.886719-7 2.519531-10.5625zm0 0" fill="url(#y)"/><path d="m366.140625 417.863281c-16.605469 8.519531-34.664063 13.671875-52.835937 15.3125l-3.402344.316407-3.414063.152343c-2.28125.09375-4.5.21875-6.945312.230469l-6.867188-.066406-1.714843-.023438-1.710938-.105468-3.417969-.207032c-9.097656-.640625-18.125-1.855468-26.945312-3.914062-17.609375-4.203125-34.503907-10.988282-49.707031-20.476563-7.613282-4.707031-14.828126-10.019531-21.550782-15.867187l-2.492187-2.226563c-.824219-.75-1.691407-1.449219-2.472657-2.246093l-4.789062-4.644532-4.558594-4.867187c-1.515625-1.625-2.894531-3.371094-4.351562-5.042969-2.179688-2.652344-4.285156-5.367188-6.3125-8.140625l9.566406-.21875 7.183594-.164063 4-.203124c1.34375-.070313 2.675781-.265626 4.015625-.394532 5.347656-.644531 10.660156-1.765625 15.847656-3.363281 5.179687-1.597656 10.234375-3.671875 15.070313-6.191406 4.835937-2.519531 9.414062-5.535157 13.710937-8.917969 8.589844-6.773438 15.980469-15.121094 21.691406-24.558594 5.710938-9.441406 9.648438-20.007812 11.578125-30.957031.96875-5.472656 1.445313-11.035156 1.429688-16.597656-.035156-1.394531-.027344-2.769531-.105469-4.183594-.109375-1.417969-.179687-2.839844-.34375-4.253906-.3125-2.835938-.753906-5.660157-1.359375-8.457031-2.398438-11.191407-7.230469-21.894532-14.042969-31.152344-6.773437-9.296875-15.667969-17-25.707031-22.664063-10.050781-5.664062-21.359375-9.195312-32.902344-10.1875-11.527344-.980469-23.21875.480469-34.195312 4.308594-10.949219 3.828125-21.113282 9.964844-29.492188 17.972656-8.375 8.007813-15.050781 17.773438-19.453125 28.503907-4.390625 10.730468-6.476562 22.433593-6.019531 33.96875l.09375 2.160156c.039062.707031.113281 1.308594.171875 1.964844l.363281 3.863281.371094 3.863281.546875 3.84375.5625 3.839844.289063 1.921875.375 1.902343c.503906 2.539063.988281 5.085938 1.527343 7.613282 2.308594 10.09375 5.457031 19.992187 9.449219 29.53125 1.53125 3.703125 3.1875 7.351562 4.964844 10.9375-2.222656-.097656-4.441406-.230469-6.660156-.410156-9.214844-.6875-18.414063-2.042969-27.503907-4.042969-9.089843-2.003907-18.050781-4.71875-26.847656-8.003907-8.769531-3.347656-17.328125-7.242187-25.210937-12.339843-3.953126-2.523438-7.730469-5.355469-11.265626-8.515625-3.523437-3.164063-6.828124-6.625-9.886718-10.328125 4.730468 8.371093 11.125 15.902343 18.535156 22.335937 7.453125 6.402344 15.855469 11.65625 24.523438 16.183594 8.675781 4.550781 17.773437 8.367188 27.113281 11.550781 9.359375 3.152344 19.003906 5.503907 28.78125 7.234375 5.71875 1.003906 11.496093 1.710938 17.300781 2.179688 16.609375 26.40625 39.976562 48.390625 67.160156 63.054687 8.929688 4.945313 18.351563 8.933594 27.976563 12.183594 9.628906 3.242187 19.5 5.699219 29.492187 7.253906 19.996094 3.035157 40.363282 2.640625 59.945313-.960937 9.863281-1.886719 19.515625-4.679688 28.734375-8.441406 9.222656-3.742188 18.007812-8.445313 26.175781-13.953126 8.183594-5.484374 15.746094-11.792968 22.570313-18.734374 6.769531-6.996094 12.902343-14.539063 18.039062-22.664063-12.835938 14.304687-28.066406 25.996094-44.671875 34.503906zm-230.476563-162.574219c2.917969-6.96875 7.320313-13.324218 12.816407-18.519531 5.449219-5.246093 12.03125-9.277343 19.132812-11.804687 7.085938-2.539063 14.804688-3.53125 22.363281-2.972656 7.554688.5 14.980469 2.667968 21.683594 6.28125 6.707032 3.601562 12.667969 8.644531 17.398438 14.667968 4.726562 6.027344 8.171875 13.054688 10.023437 20.539063.46875 1.867187.820313 3.769531 1.097657 5.6875.148437.957031.210937 1.925781.328124 2.890625.097657.976562.125 1.996094.199219 2.996094.179688 4.007812.007813 8.03125-.519531 12.015624-.53125 3.984376-1.421875 7.925782-2.664062 11.765626-1.25 3.839843-2.882813 7.5625-4.796876 11.144531-3.820312 7.167969-8.972656 13.6875-15.136718 19.121093-6.167969 5.425782-13.308594 9.828126-21.082032 12.773438-3.882812 1.484375-7.910156 2.617188-12.03125 3.394531-1.03125.164063-2.058593.398438-3.105468.511719l-3.15625.402344-7.152344.710937-14.300781 1.421875-3.578125.355469-1.578125.148437c-3.613281-6.492187-6.773438-13.222656-9.386719-20.164062-3.117188-8.238281-5.679688-16.679688-7.488281-25.292969l-1.175781-6.492187-.296876-1.625-.207031-1.636719-.417969-3.273437-.414062-3.273438-.25-3.289062-.253906-3.292969c-.035156-.535157-.097656-1.125-.113282-1.613281l-.03125-1.425782c-.164062-7.601562 1.175782-15.171875 4.09375-22.152344zm0 0" fill="url(#z)"/><path d="m169.804688 409.832031h40.609374c-.410156-.25-.828124-.496093-1.234374-.75-7.613282-4.710937-14.828126-10.023437-21.550782-15.871093l-2.492187-2.226563c-.824219-.75-1.691407-1.445313-2.472657-2.246094l-4.789062-4.644531-4.558594-4.867188c-1.515625-1.621093-2.894531-3.367187-4.351562-5.042968-2.179688-2.652344-4.285156-5.367188-6.3125-8.136719l-31.933594-.429687c10.550781 16.773437 23.835938 31.753906 39.085938 44.214843zm0 0" fill="url(#B)"/><path d="m142.214844 328.65625c-2.136719-5.660156-4.007813-11.417969-5.5625-17.257812h-28.726563c2.257813 9.371093 5.234375 18.5625 8.949219 27.441406 1.53125 3.703125 3.1875 7.351562 4.964844 10.9375l29.765625-.957032c-3.613281-6.492187-6.773438-13.222656-9.390625-20.164062zm0 0" fill="url(#C)"/><path d="m337.320312 498.804688-26.175781-26.175782c-1.757812-.035156-3.46875.015625-5.167969.0625-1.695312.054688-3.359374.179688-5.046874.164063-3.363282.011719-6.636719.226562-9.925782.132812-1.640625-.015625-3.253906.0625-4.878906.011719-1.625-.066406-3.238281-.082031-4.84375-.125-1.605469-.015625-3.203125-.09375-4.800781-.191406l-4.761719-.253906c-6.332031-.5-12.566406-1.140626-18.742188-2.097657-6.167968-1.011719-12.273437-2.195312-18.335937-3.667969-12.089844-3.054687-24.023437-6.980468-35.851563-11.859374-5.933593-2.40625-11.824218-5.066407-17.761718-7.859376-5.960938-2.789062-11.882813-5.761718-18.03125-8.929687 1.671875 3.058594 3.730468 5.859375 5.902344 8.546875 2.171874 2.695312 4.511718 5.25 6.972656 7.679688.105468.105468.214844.199218.316406.300781l56.363281 56.378906c7.726563.699219 15.542969 1.078125 23.449219 1.078125 28.429688 0 55.769531-4.640625 81.320312-13.195312zm0 0" fill="url(#D)"/><path d="m162.996094 438.015625c6.148437 3.164063 12.070312 6.140625 18.027344 8.925781 5.941406 2.796875 11.828124 5.457032 17.761718 7.859375 11.832032 4.882813 23.765625 8.808594 35.855469 11.863281 6.0625 1.472657 12.167969 2.65625 18.335937 3.664063 6.175782.960937 12.410157 1.597656 18.742188 2.101563l4.761719.25c1.597656.101562 3.195312.179687 4.800781.195312 1.605469.042969 3.214844.058594 4.84375.125 1.621094.050781 3.238281-.027344 4.875-.015625 3.292969.097656 6.5625-.117187 9.929688-.128906 1.683593.015625 3.351562-.113281 5.046874-.167969 1.699219-.042969 3.410157-.097656 5.164063-.058594-5.757813 3.8125-12 6.902344-18.546875 9.199219-1.640625.5625-3.285156 1.152344-4.953125 1.65625-1.671875.46875-3.359375.886719-5.054687 1.332031-.847657.207032-1.691407.472656-2.550782.617188l-2.578125.476562c-1.71875.300782-3.445312.667969-5.183593.878906l-5.242188.570313c-1.75.210937-3.507812.222656-5.269531.300781-3.523438.214844-7.046875.074219-10.578125-.070312-7.046875-.464844-14.066406-1.5-20.925782-3.183594-13.695312-3.4375-26.734374-9.214844-38.28125-17.007812-5.769531-3.902344-11.1875-8.289063-16.109374-13.15625-2.460938-2.433594-4.800782-4.988282-6.972657-7.679688-2.167969-2.691406-4.226562-5.488281-5.898437-8.546875zm0 0" fill="url(#E)"/></svg>