<?xml version="1.0" encoding="iso-8859-1"?>
<!-- Generator: Adobe Illustrator 19.0.0, SVG Export Plug-In . SVG Version: 6.00 Build 0)  -->
<svg version="1.1" id="Capa_1" xmlns="http://www.w3.org/2000/svg" xmlns:xlink="http://www.w3.org/1999/xlink" x="0px" y="0px"
	 viewBox="0 0 469.333 469.333" style="enable-background:new 0 0 469.333 469.333;" xml:space="preserve">
<path style="fill:#303C42;" d="M441.823,0C347.99,0,234.667,67.375,234.667,151.042c0,19.467,7.359,37.155,21.154,52.889
	c-13.993,35.889-20.949,77.185-21.154,124.569c-3.757-9.898-8.161-19.324-12.935-28.488c8.436-12.979,12.935-27.099,12.935-42.303
	c0-83.667-113.323-151.042-207.156-151.042C12.344,106.667,0,119.01,0,134.177c0,93.833,67.375,207.156,151.052,207.156
	c20.71,0,39.477-8.126,55.939-23.74c18.658,39.378,27.676,85.846,27.676,141.073c0,5.896,4.771,10.667,10.667,10.667
	c5.896,0,10.667-4.771,10.667-10.667v-128c0-42.31,5.491-78.988,16.648-111.034c13.863,9.931,29.139,15.034,45.633,15.034
	c83.677,0,151.052-113.323,151.052-207.156C469.333,12.344,456.99,0,441.823,0z"/>
<path style="fill:#7CB342;" d="M194.042,300.708C181.24,313.51,166.771,320,151.052,320C81.188,320,21.333,217.823,21.333,134.177
	c0-3.406,2.771-6.177,6.177-6.177c83.646,0,185.823,59.854,185.823,129.708c0,7.159-1.522,14.018-4.194,20.617
	c-29.117-44.559-72.082-79.652-129.962-106.659C73.844,169.208,67.5,171.51,65,176.823c-2.49,5.333-0.188,11.688,5.156,14.177
	c57.967,27.052,99.486,61.811,126.353,106.803C195.639,298.759,194.98,299.77,194.042,300.708z"/>
<path style="opacity:0.1;enable-background:new    ;" d="M151.052,298.667c-64.707,0-120.732-87.635-128.664-167.031
	c-0.417,0.831-1.055,1.549-1.055,2.542C21.333,217.823,81.188,320,151.052,320c15.719,0,30.188-6.49,42.99-19.292
	c0.939-0.939,1.598-1.949,2.467-2.905c-2.699-4.52-5.655-8.861-8.651-13.176C176.622,293.766,164.318,298.667,151.052,298.667z"/>
<path style="fill:#7CB342;" d="M318.281,213.333c-13.479,0-25.965-5.064-37.342-14.495c22.736-49.477,61.478-86.56,118.436-114.599
	c5.292-2.604,7.458-9,4.865-14.281c-2.625-5.281-9.021-7.448-14.281-4.865c-58.068,28.592-99.043,66.928-124.301,116.921
	c-6.29-9.63-9.658-19.97-9.658-30.973c0-69.854,102.177-129.708,185.823-129.708c3.406,0,6.177,2.771,6.177,6.177
	C448,111.156,388.146,213.333,318.281,213.333z"/>
<path style="opacity:0.1;enable-background:new    ;" d="M445.007,22.654C432.165,106.156,379.033,192,318.281,192
	c-10.24,0-19.9-3.283-28.941-9.438c-2.986,5.286-5.828,10.677-8.401,16.276c11.378,9.431,23.863,14.495,37.342,14.495
	C388.146,213.333,448,111.156,448,27.51C448,25.346,446.697,23.758,445.007,22.654z"/>
<linearGradient id="SVGID_1_" gradientUnits="userSpaceOnUse" x1="-66.0579" y1="620.2456" x2="-48.8656" y2="612.2285" gradientTransform="matrix(21.3333 0 0 -21.3333 1430.1112 13315.2227)">
	<stop  offset="0" style="stop-color:#FFFFFF;stop-opacity:0.2"/>
	<stop  offset="1" style="stop-color:#FFFFFF;stop-opacity:0"/>
</linearGradient>
<path style="fill:url(#SVGID_1_);" d="M441.823,0C347.99,0,234.667,67.375,234.667,151.042c0,19.467,7.359,37.155,21.154,52.889
	c-13.993,35.889-20.949,77.185-21.154,124.569c-3.757-9.898-8.161-19.324-12.935-28.488c8.436-12.979,12.935-27.099,12.935-42.303
	c0-83.667-113.323-151.042-207.156-151.042C12.344,106.667,0,119.01,0,134.177c0,93.833,67.375,207.156,151.052,207.156
	c20.71,0,39.477-8.126,55.939-23.74c18.658,39.378,27.676,85.846,27.676,141.073c0,5.896,4.771,10.667,10.667,10.667
	c5.896,0,10.667-4.771,10.667-10.667v-128c0-42.31,5.491-78.988,16.648-111.034c13.863,9.931,29.139,15.034,45.633,15.034
	c83.677,0,151.052-113.323,151.052-207.156C469.333,12.344,456.99,0,441.823,0z"/>
<g>
</g>
<g>
</g>
<g>
</g>
<g>
</g>
<g>
</g>
<g>
</g>
<g>
</g>
<g>
</g>
<g>
</g>
<g>
</g>
<g>
</g>
<g>
</g>
<g>
</g>
<g>
</g>
<g>
</g>
</svg>
