<?xml version="1.0" encoding="iso-8859-1"?>
<!-- Generator: Adobe Illustrator 19.0.0, SVG Export Plug-In . SVG Version: 6.00 Build 0)  -->
<svg version="1.1" id="Layer_1" xmlns="http://www.w3.org/2000/svg" xmlns:xlink="http://www.w3.org/1999/xlink" x="0px" y="0px"
	 viewBox="0 0 106.581 106.581" style="enable-background:new 0 0 106.581 106.581;" xml:space="preserve">
<g id="XMLID_15_">
	<g id="XMLID_82_">
		<g id="XMLID_76_">
			<path id="XMLID_65_" style="fill:#66B406;" d="M49.641,17.054c-0.035-0.065-0.073-0.125-0.108-0.19
				c-0.186-0.336-0.38-0.66-0.58-0.973c-0.073-0.113-0.145-0.227-0.22-0.338c-0.225-0.334-0.457-0.656-0.698-0.961
				c-0.079-0.1-0.161-0.193-0.242-0.289c-0.186-0.225-0.374-0.439-0.567-0.645c-0.039-0.041-0.074-0.088-0.113-0.129
				c0.007,0.006,0.014,0.012,0.021,0.018c-0.01-0.01-0.021-0.019-0.03-0.029c-0.057-0.059-0.115-0.113-0.173-0.172
				c-0.024-0.025-0.048-0.053-0.073-0.076c0.019,0.017,0.035,0.039,0.053,0.057c-0.018-0.018-0.036-0.033-0.054-0.051
				c-0.206-0.203-0.415-0.398-0.628-0.584c-0.106-0.094-0.212-0.184-0.319-0.271c-0.259-0.213-0.522-0.414-0.792-0.602
				c-0.083-0.057-0.168-0.111-0.252-0.168c-0.258-0.17-0.52-0.328-0.785-0.475c-0.112-0.063-0.227-0.123-0.341-0.182
				c-0.252-0.129-0.508-0.25-0.766-0.359c-0.08-0.033-0.157-0.072-0.236-0.103c-0.325-0.129-0.655-0.24-0.987-0.34
				c-0.108-0.031-0.218-0.061-0.327-0.088c-0.265-0.07-0.531-0.131-0.801-0.184c-0.093-0.018-0.186-0.039-0.28-0.055
				c-0.346-0.057-0.695-0.098-1.046-0.123c-0.092-0.006-0.184-0.008-0.275-0.012c-0.286-0.014-0.572-0.018-0.86-0.012
				c-0.099,0.002-0.196,0.004-0.296,0.008c-0.361,0.018-0.724,0.049-1.086,0.098c-0.061,0.008-0.121,0.021-0.182,0.031
				c-0.314,0.047-0.628,0.107-0.942,0.18c-0.1,0.023-0.199,0.047-0.299,0.072c-0.368,0.094-0.735,0.197-1.103,0.324
				c-6.216,2.158-9.863,8.412-7.673,16.504c-8.078-2.24-14.206,1.221-16.4,7.424c-0.129,0.367-0.235,0.734-0.331,1.102
				c-0.026,0.1-0.051,0.201-0.074,0.301c-0.072,0.309-0.135,0.617-0.184,0.928c-0.011,0.066-0.024,0.131-0.034,0.197
				C9.503,37.25,9.47,37.611,9.45,37.97c-0.005,0.102-0.006,0.203-0.009,0.303c-0.008,0.281-0.006,0.561,0.006,0.84
				c0.004,0.1,0.006,0.201,0.013,0.301c0.023,0.348,0.062,0.695,0.116,1.039c0.015,0.096,0.037,0.191,0.055,0.287
				c0.049,0.262,0.106,0.524,0.173,0.781c0.031,0.119,0.062,0.238,0.096,0.357c0.095,0.32,0.199,0.639,0.321,0.953
				c0.034,0.086,0.074,0.172,0.11,0.258c0.107,0.256,0.225,0.51,0.351,0.76c0.063,0.125,0.129,0.25,0.196,0.373
				c0.127,0.231,0.264,0.457,0.407,0.682c0.061,0.094,0.115,0.189,0.178,0.283c0.196,0.289,0.41,0.57,0.635,0.848
				c0.095,0.117,0.194,0.231,0.294,0.346c0.167,0.193,0.342,0.383,0.523,0.568c0.034,0.035,0.063,0.072,0.098,0.105
				c-0.015-0.014-0.032-0.027-0.047-0.041c0.02,0.019,0.042,0.037,0.062,0.059c0.063,0.063,0.127,0.125,0.191,0.189
				c0.018,0.016,0.033,0.033,0.051,0.051c-0.01-0.012-0.019-0.021-0.029-0.033c0.025,0.025,0.056,0.049,0.082,0.074
				c0.207,0.195,0.424,0.389,0.648,0.578c0.097,0.08,0.19,0.164,0.291,0.244c0.305,0.244,0.625,0.477,0.958,0.705
				c0.107,0.072,0.218,0.143,0.328,0.215c0.309,0.201,0.629,0.395,0.962,0.582c0.068,0.039,0.132,0.078,0.2,0.115
				c0.397,0.217,0.816,0.42,1.247,0.617c0.108,0.049,0.218,0.096,0.328,0.145c0.452,0.195,0.915,0.385,1.401,0.557
				c6.434,2.275,31.474,0.416,31.479,0.414l0,0c0,0,2.013-25.033-0.225-31.481c-0.169-0.488-0.355-0.951-0.548-1.404
				c-0.048-0.111-0.096-0.225-0.146-0.334C50.056,17.875,49.855,17.453,49.641,17.054z"/>
			<path id="XMLID_77_" style="fill:#66B406;" d="M56.943,17.054c0.035-0.065,0.073-0.125,0.108-0.19
				c0.187-0.336,0.38-0.66,0.581-0.973c0.072-0.113,0.145-0.227,0.219-0.338c0.226-0.334,0.457-0.656,0.698-0.961
				c0.079-0.1,0.161-0.193,0.242-0.289c0.186-0.225,0.375-0.439,0.567-0.645c0.039-0.041,0.074-0.088,0.113-0.129
				c-0.007,0.006-0.014,0.012-0.021,0.018c0.011-0.01,0.021-0.019,0.03-0.029c0.057-0.059,0.115-0.113,0.173-0.172
				c0.024-0.025,0.048-0.053,0.073-0.076c-0.019,0.017-0.035,0.039-0.053,0.057c0.018-0.018,0.036-0.033,0.054-0.051
				c0.206-0.203,0.415-0.398,0.629-0.584c0.105-0.094,0.211-0.184,0.318-0.271c0.259-0.213,0.522-0.414,0.792-0.602
				c0.083-0.057,0.168-0.111,0.252-0.168c0.258-0.17,0.52-0.328,0.785-0.475c0.113-0.063,0.227-0.123,0.341-0.182
				c0.253-0.129,0.508-0.25,0.766-0.359c0.079-0.033,0.157-0.072,0.236-0.103c0.325-0.129,0.655-0.24,0.987-0.34
				c0.109-0.031,0.218-0.061,0.327-0.088c0.265-0.07,0.531-0.131,0.801-0.184c0.093-0.018,0.186-0.039,0.28-0.055
				c0.346-0.057,0.695-0.098,1.046-0.123c0.092-0.006,0.184-0.008,0.276-0.012c0.285-0.014,0.571-0.018,0.859-0.012
				c0.099,0.002,0.197,0.004,0.296,0.008c0.361,0.018,0.724,0.049,1.086,0.098c0.06,0.008,0.121,0.021,0.182,0.031
				c0.314,0.047,0.628,0.107,0.942,0.18c0.1,0.023,0.199,0.047,0.299,0.072c0.368,0.094,0.736,0.197,1.103,0.324
				c6.216,2.158,9.863,8.412,7.673,16.504c8.078-2.24,14.206,1.221,16.4,7.424c0.129,0.367,0.235,0.734,0.331,1.102
				c0.026,0.1,0.051,0.201,0.074,0.301c0.072,0.309,0.135,0.617,0.184,0.928c0.011,0.066,0.024,0.131,0.034,0.197
				c0.052,0.361,0.085,0.723,0.104,1.082c0.005,0.102,0.006,0.203,0.009,0.303c0.008,0.281,0.006,0.561-0.006,0.84
				c-0.004,0.1-0.006,0.201-0.013,0.301c-0.023,0.348-0.062,0.695-0.116,1.039c-0.015,0.096-0.037,0.191-0.055,0.287
				c-0.049,0.262-0.105,0.524-0.173,0.781c-0.031,0.119-0.062,0.238-0.096,0.357c-0.095,0.32-0.199,0.639-0.321,0.953
				c-0.034,0.086-0.074,0.172-0.11,0.258c-0.107,0.256-0.225,0.51-0.352,0.76c-0.063,0.125-0.129,0.25-0.196,0.373
				c-0.127,0.231-0.264,0.457-0.407,0.682c-0.061,0.094-0.114,0.189-0.178,0.283c-0.196,0.289-0.41,0.57-0.635,0.848
				c-0.095,0.117-0.194,0.231-0.294,0.346c-0.167,0.193-0.342,0.383-0.524,0.568c-0.034,0.035-0.063,0.072-0.098,0.105
				c0.016-0.014,0.032-0.027,0.047-0.041c-0.019,0.019-0.042,0.037-0.061,0.059c-0.064,0.063-0.127,0.125-0.191,0.189
				c-0.018,0.016-0.033,0.033-0.051,0.051c0.011-0.012,0.02-0.021,0.029-0.033c-0.025,0.025-0.056,0.049-0.082,0.074
				c-0.208,0.195-0.424,0.389-0.648,0.578c-0.097,0.08-0.19,0.164-0.291,0.244c-0.305,0.244-0.625,0.477-0.958,0.705
				c-0.107,0.072-0.218,0.143-0.327,0.215c-0.31,0.201-0.63,0.395-0.963,0.582c-0.068,0.039-0.132,0.078-0.2,0.115
				c-0.397,0.217-0.816,0.42-1.246,0.617c-0.109,0.049-0.219,0.096-0.329,0.145c-0.452,0.195-0.914,0.385-1.401,0.557
				c-6.434,2.275-31.474,0.416-31.479,0.414l0,0c0,0-2.013-25.033,0.225-31.481c0.169-0.488,0.354-0.951,0.548-1.404
				c0.048-0.111,0.097-0.225,0.146-0.334C56.528,17.875,56.729,17.453,56.943,17.054z"/>
		</g>
		<path id="XMLID_143_" style="fill:#C12530;" d="M53.405,54.25c-0.427,0-0.427,0-4.397-3.502c-2.073-1.828-5.236-4.656-8.527-7.746
			c-8.519-7.996-13.637-13.697-15.212-16.945c-0.259-0.533-0.505-1.094-0.773-1.766c-0.059-0.144-0.116-0.289-0.171-0.434
			c-0.237-0.621-0.429-1.174-0.583-1.689l-0.002-0.004L23.668,21.9c-0.132-0.461-0.253-0.938-0.357-1.418l-0.018-0.076
			c-0.031-0.144-0.063-0.289-0.091-0.432c-0.107-0.559-0.186-1.055-0.241-1.522c-0.013-0.111-0.023-0.227-0.031-0.34l-0.014-0.148
			c-0.034-0.375-0.057-0.748-0.069-1.115c-0.008-0.098-0.013-0.156-0.014-0.209H22.83l0.002-0.352l-0.004-0.113l0,0v-0.02
			l0.008-0.002c0.002-0.375,0.014-0.75,0.04-1.117c0.012-0.184,0.024-0.367,0.044-0.549c0.046-0.459,0.104-0.881,0.177-1.287
			c0.021-0.111,0.044-0.225,0.066-0.336c0.09-0.436,0.187-0.83,0.3-1.227c0.047-0.164,0.097-0.328,0.15-0.49
			c0.112-0.352,0.239-0.701,0.378-1.045l0.036-0.096c0.028-0.074,0.057-0.15,0.088-0.223c0.17-0.392,0.367-0.799,0.603-1.234
			c0.056-0.102,0.113-0.201,0.172-0.301l0.049-0.086c0.183-0.314,0.375-0.619,0.578-0.918l0.065-0.098
			c0.047-0.072,0.095-0.144,0.144-0.213c0.265-0.369,0.554-0.736,0.86-1.092c0.057-0.064,0.112-0.125,0.168-0.184l0.078-0.086
			c0.252-0.277,0.514-0.547,0.788-0.809l0.067-0.061c0.071-0.07,0.143-0.139,0.216-0.205c0.376-0.34,0.735-0.641,1.1-0.916
			c0.041-0.031,0.09-0.066,0.14-0.102L29.2,3.439c0.33-0.244,0.681-0.48,1.041-0.707c0.111-0.068,0.226-0.141,0.343-0.209
			c0.485-0.289,0.904-0.518,1.317-0.717c7.837-3.801,16.299-1.1,21.497,6.693c5.158-7.895,13.329-10.582,21.2-6.822
			c0.415,0.197,0.836,0.424,1.323,0.709c0.117,0.07,0.231,0.139,0.345,0.209c0.357,0.221,0.704,0.453,1.03,0.689l0.213,0.15
			c0.37,0.277,0.73,0.574,1.104,0.91c0.077,0.068,0.152,0.141,0.228,0.213l0.064,0.063c0.267,0.25,0.524,0.514,0.772,0.781
			l0.087,0.094c0.061,0.066,0.123,0.133,0.182,0.199c0.308,0.353,0.597,0.715,0.86,1.078c0.052,0.07,0.1,0.143,0.147,0.213
			l0.069,0.105c0.2,0.291,0.39,0.588,0.568,0.891c0.082,0.139,0.165,0.279,0.243,0.424c0.232,0.426,0.426,0.815,0.589,1.188
			c0.033,0.076,0.066,0.158,0.098,0.242l0.041,0.102c0.138,0.338,0.265,0.682,0.381,1.033c0.058,0.178,0.112,0.355,0.163,0.533
			c0.096,0.328,0.18,0.666,0.255,1.01l0.032,0.137c0.023,0.098,0.047,0.193,0.065,0.293c0.079,0.412,0.144,0.861,0.198,1.373
			c0.018,0.166,0.03,0.336,0.042,0.504l0.006,0.086c0.024,0.332,0.037,0.67,0.042,1.01c0.003,0.047,0.005,0.082,0.006,0.113
			l0.005,0.018l-0.005,0.435l0.002,0.094h-0.006l-0.004,0.07c-0.012,0.387-0.033,0.764-0.066,1.142l-0.012,0.148
			c-0.009,0.115-0.017,0.231-0.031,0.348c-0.054,0.475-0.131,0.986-0.231,1.52c-0.025,0.137-0.055,0.271-0.084,0.406l-0.02,0.09
			c-0.104,0.492-0.218,0.951-0.347,1.408l-0.026,0.1c-0.016,0.063-0.032,0.125-0.05,0.188c-0.153,0.519-0.34,1.072-0.572,1.691
			c-0.054,0.143-0.109,0.285-0.166,0.428c-0.266,0.674-0.508,1.234-0.764,1.772C77.809,33.356,56.482,51.908,54.062,54l-0.278,0.24
			L53.405,54.25z M25.64,21.599c0.142,0.469,0.317,0.977,0.536,1.551c0.051,0.135,0.104,0.268,0.158,0.4
			c0.252,0.629,0.479,1.15,0.718,1.639c3.204,6.609,22.55,23.484,26.349,26.76c8.257-7.17,23.48-21.25,26.185-26.918
			c0.236-0.492,0.461-1.016,0.709-1.642l0.154-0.399c0.215-0.574,0.387-1.082,0.525-1.555l0.07-0.262
			c0.118-0.418,0.221-0.838,0.317-1.287l0.02-0.092c0.025-0.119,0.052-0.238,0.074-0.357c0.091-0.484,0.161-0.947,0.21-1.375
			c0.01-0.096,0.017-0.188,0.024-0.279l0.014-0.164c0.028-0.34,0.048-0.676,0.057-1.01l0.006-0.111l0.587-0.01l-0.583-0.023
			l0.002-0.357h-0.001l-0.007-0.166c-0.004-0.299-0.016-0.598-0.037-0.893l-0.007-0.086c-0.01-0.149-0.021-0.295-0.036-0.439
			c-0.047-0.453-0.104-0.85-0.173-1.209c-0.013-0.066-0.028-0.131-0.045-0.195l-0.042-0.18c-0.065-0.301-0.14-0.596-0.224-0.887
			c-0.045-0.158-0.093-0.311-0.143-0.463c-0.101-0.305-0.212-0.607-0.333-0.902l-0.053-0.137c-0.021-0.053-0.041-0.106-0.063-0.156
			c-0.142-0.324-0.31-0.662-0.515-1.037c-0.068-0.125-0.139-0.246-0.211-0.367c-0.156-0.266-0.32-0.522-0.493-0.773l-0.09-0.133
			c-0.032-0.049-0.065-0.1-0.1-0.148c-0.227-0.313-0.479-0.627-0.748-0.935c-0.043-0.049-0.09-0.1-0.137-0.148l-0.099-0.107
			c-0.216-0.234-0.442-0.463-0.677-0.686l-0.071-0.068c-0.06-0.057-0.119-0.113-0.181-0.168c-0.33-0.297-0.646-0.559-0.967-0.799
			l-0.188-0.131c-0.295-0.215-0.598-0.416-0.91-0.609c-0.102-0.063-0.204-0.125-0.308-0.186c-0.438-0.258-0.81-0.457-1.174-0.631
			c-7.307-3.486-14.951-0.578-19.476,7.416l-0.856,1.514l-0.866-1.508c-4.536-7.904-12.487-10.836-19.78-7.299
			c-0.36,0.176-0.733,0.379-1.17,0.639c-0.103,0.061-0.201,0.123-0.3,0.184c-0.322,0.203-0.631,0.412-0.922,0.625l-0.165,0.117
			c-0.324,0.246-0.64,0.51-0.972,0.811c-0.059,0.053-0.116,0.109-0.173,0.164l-0.073,0.07c-0.239,0.229-0.47,0.465-0.69,0.707
			l-0.213,0.233c-0.265,0.307-0.517,0.627-0.746,0.947c-0.036,0.049-0.069,0.102-0.104,0.152l-0.078,0.12
			c-0.177,0.26-0.344,0.525-0.502,0.797l-0.051,0.088c-0.048,0.082-0.097,0.166-0.142,0.25c-0.207,0.383-0.38,0.734-0.526,1.074
			c-0.019,0.043-0.034,0.086-0.049,0.129l-0.057,0.147c-0.121,0.299-0.231,0.605-0.331,0.914c-0.047,0.144-0.09,0.283-0.131,0.426
			c-0.095,0.334-0.18,0.676-0.251,1.023c-0.031,0.152-0.052,0.246-0.068,0.342c-0.064,0.357-0.115,0.728-0.156,1.139
			c-0.017,0.16-0.028,0.32-0.038,0.481c-0.023,0.33-0.034,0.662-0.036,0.996l0.01,0.613c0.011,0.334,0.032,0.666,0.063,1.002
			l0.015,0.174c0.008,0.088,0.015,0.176,0.025,0.264c0.049,0.422,0.12,0.871,0.218,1.377c0.025,0.127,0.054,0.258,0.082,0.387
			l0.017,0.076c0.097,0.438,0.206,0.873,0.326,1.291L25.64,21.599z"/>
	</g>
	<g id="XMLID_88_">
		<g id="XMLID_291_">
			<path id="XMLID_293_" style="fill:#66B406;" d="M56.943,89.525c0.035,0.064,0.073,0.125,0.108,0.189
				c0.187,0.336,0.38,0.658,0.581,0.973c0.072,0.113,0.145,0.227,0.219,0.338c0.226,0.334,0.457,0.656,0.698,0.961
				c0.079,0.1,0.161,0.193,0.242,0.289c0.186,0.223,0.375,0.438,0.568,0.645c0.038,0.041,0.073,0.088,0.112,0.129
				c-0.007-0.008-0.014-0.012-0.021-0.019c0.01,0.012,0.021,0.019,0.03,0.031c0.057,0.059,0.115,0.113,0.173,0.172
				c0.024,0.025,0.048,0.053,0.073,0.076c-0.019-0.018-0.035-0.039-0.053-0.057c0.018,0.018,0.036,0.033,0.054,0.049
				c0.206,0.205,0.415,0.4,0.629,0.586c0.105,0.092,0.211,0.184,0.318,0.271c0.259,0.213,0.522,0.414,0.792,0.602
				c0.083,0.057,0.168,0.111,0.252,0.168c0.258,0.17,0.52,0.328,0.785,0.475c0.113,0.063,0.227,0.123,0.341,0.182
				c0.253,0.129,0.508,0.248,0.767,0.359c0.079,0.033,0.156,0.072,0.235,0.104c0.325,0.129,0.655,0.24,0.987,0.34
				c0.108,0.031,0.218,0.059,0.327,0.088c0.265,0.07,0.532,0.131,0.801,0.184c0.093,0.018,0.187,0.037,0.28,0.053
				c0.346,0.059,0.695,0.1,1.046,0.125c0.092,0.006,0.184,0.008,0.276,0.012c0.285,0.014,0.571,0.018,0.859,0.012
				c0.099-0.002,0.197-0.004,0.296-0.008c0.361-0.018,0.724-0.049,1.086-0.098c0.06-0.008,0.121-0.021,0.182-0.031
				c0.314-0.047,0.628-0.109,0.942-0.18c0.1-0.023,0.199-0.047,0.299-0.072c0.368-0.094,0.736-0.197,1.103-0.324
				c6.216-2.158,9.863-8.412,7.673-16.504c8.078,2.238,14.206-1.223,16.4-7.426c0.129-0.365,0.235-0.732,0.331-1.1
				c0.026-0.102,0.051-0.201,0.074-0.301c0.072-0.309,0.135-0.619,0.184-0.928c0.011-0.066,0.024-0.133,0.034-0.197
				c0.052-0.361,0.085-0.723,0.104-1.084c0.005-0.1,0.006-0.201,0.009-0.301c0.008-0.281,0.006-0.561-0.006-0.84
				c-0.004-0.1-0.006-0.201-0.012-0.301c-0.024-0.35-0.062-0.695-0.117-1.039c-0.015-0.098-0.037-0.191-0.055-0.287
				c-0.049-0.264-0.105-0.523-0.173-0.781c-0.031-0.121-0.062-0.238-0.096-0.357c-0.095-0.32-0.198-0.639-0.321-0.953
				c-0.034-0.086-0.074-0.172-0.11-0.258c-0.107-0.256-0.225-0.51-0.351-0.76c-0.063-0.125-0.129-0.25-0.197-0.373
				c-0.127-0.23-0.264-0.457-0.407-0.682c-0.061-0.094-0.114-0.191-0.178-0.283c-0.196-0.289-0.41-0.57-0.635-0.848
				c-0.095-0.117-0.194-0.232-0.294-0.346c-0.167-0.193-0.342-0.383-0.524-0.57c-0.034-0.033-0.063-0.07-0.098-0.106
				c0.016,0.016,0.032,0.029,0.047,0.043c-0.019-0.02-0.042-0.039-0.061-0.059c-0.064-0.063-0.127-0.127-0.191-0.189
				c-0.018-0.016-0.033-0.033-0.051-0.051c0.011,0.01,0.02,0.021,0.029,0.033c-0.025-0.025-0.056-0.049-0.082-0.074
				c-0.208-0.195-0.424-0.389-0.648-0.578c-0.097-0.082-0.19-0.164-0.291-0.244c-0.305-0.244-0.625-0.479-0.958-0.705
				c-0.107-0.072-0.218-0.145-0.327-0.215c-0.31-0.201-0.63-0.395-0.963-0.582c-0.067-0.039-0.132-0.078-0.2-0.115
				c-0.397-0.217-0.816-0.42-1.246-0.617c-0.109-0.049-0.219-0.098-0.329-0.144c-0.452-0.195-0.914-0.385-1.401-0.557
				c-6.433-2.275-31.474-0.416-31.479-0.414l0,0c0,0-2.013,25.033,0.225,31.48c0.169,0.488,0.356,0.951,0.548,1.404
				c0.048,0.111,0.097,0.223,0.146,0.334C56.528,88.705,56.729,89.125,56.943,89.525z"/>
			<path id="XMLID_292_" style="fill:#66B406;" d="M49.641,89.525c-0.035,0.064-0.073,0.125-0.108,0.189
				c-0.186,0.336-0.38,0.658-0.58,0.973c-0.073,0.113-0.145,0.227-0.22,0.338c-0.225,0.334-0.457,0.656-0.698,0.961
				c-0.079,0.1-0.161,0.193-0.242,0.289c-0.186,0.223-0.374,0.438-0.567,0.645c-0.039,0.041-0.074,0.088-0.113,0.129
				c0.007-0.008,0.014-0.012,0.021-0.019c-0.01,0.012-0.021,0.019-0.03,0.031c-0.057,0.059-0.115,0.113-0.173,0.172
				c-0.024,0.025-0.048,0.053-0.073,0.076c0.019-0.018,0.035-0.039,0.053-0.057c-0.018,0.018-0.036,0.033-0.054,0.049
				c-0.206,0.205-0.415,0.4-0.628,0.586c-0.106,0.092-0.212,0.184-0.319,0.271c-0.259,0.213-0.522,0.414-0.792,0.602
				c-0.083,0.057-0.168,0.111-0.252,0.168c-0.258,0.17-0.52,0.328-0.785,0.475c-0.112,0.063-0.227,0.123-0.341,0.182
				c-0.252,0.129-0.508,0.248-0.766,0.359c-0.079,0.033-0.157,0.072-0.236,0.104c-0.325,0.129-0.655,0.24-0.987,0.34
				c-0.108,0.031-0.218,0.059-0.327,0.088c-0.265,0.07-0.531,0.131-0.801,0.184c-0.094,0.018-0.186,0.037-0.28,0.053
				c-0.346,0.059-0.695,0.1-1.046,0.125c-0.092,0.006-0.184,0.008-0.275,0.012c-0.286,0.014-0.572,0.018-0.86,0.012
				c-0.099-0.002-0.196-0.004-0.296-0.008c-0.361-0.018-0.724-0.049-1.086-0.098c-0.061-0.008-0.121-0.021-0.182-0.031
				c-0.314-0.047-0.628-0.109-0.942-0.18c-0.1-0.023-0.199-0.047-0.299-0.072c-0.368-0.094-0.735-0.197-1.103-0.324
				c-6.216-2.158-9.863-8.412-7.673-16.504c-8.078,2.238-14.206-1.223-16.4-7.426c-0.129-0.365-0.235-0.732-0.331-1.1
				c-0.026-0.102-0.051-0.201-0.074-0.301c-0.072-0.309-0.135-0.619-0.184-0.928c-0.011-0.066-0.024-0.133-0.034-0.197
				c-0.052-0.361-0.085-0.723-0.105-1.084c-0.005-0.1-0.006-0.201-0.009-0.301c-0.008-0.281-0.006-0.561,0.006-0.84
				c0.004-0.1,0.006-0.201,0.013-0.301c0.023-0.35,0.062-0.695,0.116-1.039c0.015-0.098,0.037-0.191,0.055-0.287
				c0.049-0.264,0.106-0.523,0.173-0.781c0.031-0.121,0.062-0.238,0.097-0.357c0.094-0.32,0.198-0.639,0.32-0.953
				c0.034-0.086,0.074-0.172,0.11-0.258c0.107-0.256,0.225-0.51,0.351-0.76c0.063-0.125,0.129-0.25,0.196-0.373
				c0.127-0.23,0.264-0.457,0.407-0.682c0.061-0.094,0.115-0.191,0.178-0.283c0.196-0.289,0.41-0.57,0.635-0.848
				c0.095-0.117,0.194-0.232,0.294-0.346c0.167-0.193,0.342-0.383,0.523-0.57c0.034-0.033,0.063-0.07,0.098-0.106
				c-0.015,0.016-0.031,0.029-0.047,0.043c0.02-0.02,0.042-0.039,0.062-0.059c0.063-0.063,0.127-0.127,0.191-0.189
				c0.018-0.016,0.033-0.033,0.051-0.051c-0.01,0.01-0.019,0.021-0.029,0.033c0.025-0.025,0.056-0.049,0.082-0.074
				c0.207-0.195,0.424-0.389,0.648-0.578c0.097-0.082,0.19-0.164,0.291-0.244c0.305-0.244,0.625-0.479,0.958-0.705
				c0.107-0.072,0.218-0.145,0.327-0.215c0.309-0.201,0.63-0.395,0.963-0.582c0.068-0.039,0.132-0.078,0.2-0.115
				c0.397-0.217,0.816-0.42,1.247-0.617c0.108-0.049,0.218-0.098,0.328-0.144c0.452-0.195,0.915-0.385,1.401-0.557
				c6.434-2.275,31.474-0.416,31.479-0.414l0,0c0,0,2.013,25.033-0.225,31.48c-0.169,0.488-0.355,0.951-0.548,1.404
				c-0.048,0.111-0.096,0.223-0.146,0.334C50.056,88.705,49.855,89.125,49.641,89.525z"/>
		</g>
		<path id="XMLID_208_" style="fill:#C12530;" d="M53.179,52.33c0.427,0,0.427,0,4.397,3.5c2.073,1.83,5.236,4.658,8.528,7.748
			c8.519,7.996,13.636,13.697,15.211,16.945c0.259,0.533,0.505,1.094,0.773,1.766c0.059,0.145,0.116,0.289,0.172,0.434
			c0.236,0.621,0.428,1.174,0.582,1.688l0.002,0.006l0.072,0.264c0.132,0.461,0.253,0.938,0.358,1.418l0.017,0.074
			c0.031,0.145,0.064,0.289,0.091,0.434c0.107,0.557,0.187,1.055,0.241,1.521c0.013,0.111,0.022,0.225,0.031,0.34l0.014,0.148
			c0.034,0.375,0.058,0.746,0.069,1.115c0.008,0.098,0.013,0.154,0.014,0.209h0.003l-0.001,0.351l0.004,0.111l0,0v0.021
			l-0.008,0.002c-0.002,0.375-0.014,0.748-0.04,1.117c-0.012,0.184-0.024,0.365-0.044,0.547c-0.046,0.461-0.104,0.883-0.177,1.289
			c-0.021,0.111-0.044,0.225-0.066,0.336c-0.09,0.436-0.187,0.83-0.3,1.227c-0.047,0.164-0.097,0.328-0.149,0.488
			c-0.113,0.354-0.24,0.703-0.379,1.047l-0.036,0.096c-0.028,0.074-0.057,0.15-0.088,0.223c-0.17,0.393-0.367,0.799-0.603,1.234
			c-0.056,0.101-0.113,0.201-0.172,0.301l-0.049,0.086c-0.183,0.314-0.375,0.619-0.578,0.918l-0.064,0.098
			c-0.048,0.07-0.096,0.143-0.146,0.213c-0.265,0.369-0.554,0.736-0.86,1.092c-0.057,0.065-0.112,0.123-0.167,0.184l-0.078,0.086
			c-0.253,0.277-0.515,0.547-0.789,0.809l-0.067,0.064c-0.071,0.068-0.143,0.137-0.216,0.205c-0.376,0.34-0.735,0.641-1.1,0.916
			c-0.041,0.031-0.09,0.066-0.14,0.102l-0.057,0.039c-0.33,0.242-0.681,0.48-1.041,0.705c-0.111,0.07-0.226,0.143-0.343,0.211
			c-0.485,0.289-0.904,0.516-1.317,0.717c-7.837,3.801-16.299,1.1-21.497-6.693c-5.158,7.895-13.328,10.582-21.2,6.822
			c-0.415-0.197-0.836-0.424-1.323-0.709c-0.117-0.07-0.231-0.141-0.345-0.211c-0.357-0.221-0.704-0.451-1.03-0.689l-0.213-0.148
			c-0.37-0.277-0.73-0.574-1.104-0.91c-0.077-0.07-0.152-0.141-0.228-0.213l-0.064-0.063c-0.266-0.252-0.524-0.514-0.772-0.783
			l-0.087-0.092c-0.062-0.066-0.122-0.133-0.182-0.201c-0.308-0.352-0.597-0.713-0.86-1.076c-0.052-0.072-0.1-0.143-0.146-0.215
			l-0.071-0.104c-0.199-0.291-0.388-0.588-0.567-0.893c-0.082-0.139-0.165-0.279-0.243-0.422c-0.232-0.428-0.426-0.814-0.588-1.188
			c-0.034-0.076-0.067-0.158-0.099-0.242l-0.041-0.104c-0.137-0.336-0.265-0.68-0.381-1.031c-0.058-0.178-0.112-0.355-0.163-0.533
			c-0.096-0.328-0.18-0.668-0.255-1.01l-0.032-0.137c-0.023-0.098-0.047-0.195-0.066-0.293c-0.079-0.412-0.143-0.861-0.198-1.373
			c-0.018-0.166-0.03-0.336-0.042-0.506l-0.006-0.084c-0.024-0.334-0.037-0.67-0.042-1.01c-0.003-0.047-0.005-0.082-0.005-0.113
			l-0.006-0.018l0.005-0.438l-0.002-0.092h0.007l0.003-0.07c0.012-0.387,0.033-0.764,0.066-1.143l0.012-0.148
			c0.009-0.115,0.018-0.23,0.031-0.35c0.054-0.473,0.131-0.984,0.231-1.518c0.025-0.137,0.055-0.271,0.084-0.406l0.019-0.09
			c0.105-0.492,0.218-0.953,0.347-1.41l0.026-0.098c0.016-0.063,0.032-0.125,0.05-0.188c0.153-0.52,0.34-1.072,0.572-1.691
			c0.054-0.143,0.109-0.285,0.166-0.428c0.266-0.674,0.509-1.236,0.764-1.771c3.566-7.469,24.893-26.021,27.313-28.113l0.278-0.24
			L53.179,52.33z M80.944,84.98c-0.142-0.469-0.316-0.977-0.536-1.553c-0.051-0.133-0.103-0.266-0.157-0.398
			c-0.253-0.629-0.48-1.15-0.719-1.641c-3.205-6.607-22.55-23.482-26.349-26.757c-8.257,7.17-23.48,21.25-26.186,26.918
			c-0.235,0.492-0.46,1.016-0.707,1.643l-0.155,0.398c-0.215,0.574-0.387,1.082-0.525,1.555l-0.07,0.262
			c-0.118,0.418-0.221,0.838-0.317,1.285l-0.02,0.092c-0.025,0.121-0.051,0.24-0.074,0.359c-0.091,0.484-0.161,0.947-0.209,1.375
			c-0.011,0.096-0.018,0.188-0.025,0.279l-0.013,0.164c-0.029,0.34-0.049,0.676-0.058,1.008l-0.006,0.113l-0.587,0.01l0.583,0.021
			l-0.002,0.359h0.001l0.007,0.166c0.004,0.299,0.016,0.598,0.037,0.893l0.007,0.086c0.01,0.146,0.021,0.295,0.036,0.439
			c0.048,0.453,0.104,0.85,0.174,1.209c0.012,0.066,0.028,0.131,0.044,0.195l0.042,0.18c0.065,0.301,0.14,0.596,0.224,0.887
			c0.045,0.158,0.093,0.311,0.143,0.463c0.101,0.305,0.212,0.607,0.333,0.902l0.053,0.137c0.021,0.051,0.041,0.105,0.064,0.156
			c0.141,0.324,0.309,0.662,0.514,1.037c0.068,0.125,0.139,0.244,0.211,0.367c0.156,0.266,0.32,0.521,0.494,0.774l0.089,0.133
			c0.032,0.049,0.066,0.1,0.1,0.148c0.228,0.313,0.479,0.627,0.748,0.934c0.044,0.051,0.09,0.1,0.137,0.15l0.1,0.107
			c0.215,0.234,0.441,0.463,0.676,0.684l0.071,0.068c0.06,0.057,0.119,0.115,0.181,0.17c0.33,0.297,0.646,0.559,0.967,0.797
			l0.188,0.133c0.295,0.215,0.598,0.416,0.91,0.609c0.101,0.063,0.203,0.125,0.307,0.186c0.438,0.258,0.811,0.457,1.174,0.631
			c7.307,3.486,14.951,0.576,19.476-7.416l0.857-1.514l0.865,1.508c4.536,7.904,12.487,10.836,19.78,7.297
			c0.36-0.174,0.733-0.377,1.17-0.637c0.103-0.061,0.201-0.123,0.3-0.186c0.322-0.201,0.631-0.41,0.922-0.623l0.166-0.117
			c0.323-0.246,0.639-0.51,0.971-0.811c0.059-0.053,0.116-0.109,0.173-0.164l0.073-0.07c0.239-0.229,0.47-0.465,0.69-0.707
			l0.216-0.238c0.265-0.305,0.517-0.625,0.746-0.945c0.036-0.049,0.069-0.102,0.104-0.152l0.079-0.119
			c0.177-0.26,0.344-0.525,0.502-0.797l0.051-0.088c0.048-0.084,0.097-0.166,0.142-0.25c0.206-0.383,0.379-0.734,0.525-1.076
			c0.019-0.043,0.034-0.084,0.05-0.127l0.056-0.146c0.121-0.301,0.231-0.605,0.331-0.914c0.047-0.144,0.09-0.283,0.131-0.426
			c0.095-0.334,0.18-0.676,0.251-1.023c0.031-0.152,0.052-0.246,0.068-0.342c0.064-0.357,0.115-0.729,0.156-1.139
			c0.017-0.16,0.028-0.32,0.039-0.482c0.022-0.328,0.033-0.66,0.035-0.996l-0.01-0.613c-0.011-0.332-0.031-0.666-0.063-1.002
			l-0.015-0.172c-0.008-0.088-0.015-0.176-0.024-0.266c-0.05-0.42-0.121-0.869-0.219-1.375c-0.025-0.127-0.054-0.258-0.082-0.387
			l-0.017-0.076c-0.097-0.439-0.206-0.873-0.326-1.291L80.944,84.98z"/>
	</g>
</g>
<g>
</g>
<g>
</g>
<g>
</g>
<g>
</g>
<g>
</g>
<g>
</g>
<g>
</g>
<g>
</g>
<g>
</g>
<g>
</g>
<g>
</g>
<g>
</g>
<g>
</g>
<g>
</g>
<g>
</g>
</svg>
