<svg xmlns="http://www.w3.org/2000/svg" style="display: none;"><symbol id="fruit-power-button" viewBox="0 0 37.546 37.546"><title>fruit-power-button</title><path d="M33.974,22.346c0,8.381-6.818,15.2-15.201,15.2c-8.382,0-15.201-6.819-15.201-15.2c0-4.553,2.015-8.827,5.526-11.727 c0.779-0.643,1.928-0.531,2.568,0.245c0.641,0.775,0.531,1.926-0.244,2.566c-2.67,2.205-4.203,5.454-4.203,8.913 c0,6.371,5.184,11.554,11.554,11.554c6.371,0,11.552-5.183,11.552-11.554c0-3.458-1.53-6.708-4.2-8.913 c-0.775-0.642-0.888-1.791-0.244-2.566c0.643-0.776,1.791-0.888,2.565-0.245C31.96,13.52,33.974,17.793,33.974,22.346z M18.773,16.566c1.007,0,1.824-0.816,1.824-1.823V1.823C20.597,0.815,19.781,0,18.773,0c-1.009,0-1.824,0.815-1.824,1.823v12.92 C16.949,15.75,17.765,16.566,18.773,16.566z M26.703,8.234c1.752-1.753,1.398-4.944,1.398-4.944s-3.193-0.354-4.945,1.396 S21.759,9.63,21.759,9.63S24.953,9.985,26.703,8.234z"/></symbol><symbol id="bulb" viewBox="0 0 512 512"><title>bulb</title><path style="fill:#303C42;" d="M277.335,0c-1.156,0-5.762,0-6.188,0C177.314,0,64.001,67.375,64.001,151.042 c0,17.526,5.947,33.612,17.145,48.146c-6.184,13.422-11.872,27.483-16.665,43c-1.75,5.625,1.417,11.594,7.042,13.333 c1.042,0.323,2.104,0.479,3.146,0.479c4.563,0,8.771-2.938,10.188-7.521c3.641-11.78,7.772-22.62,12.186-33.018 c6.02,4.962,12.243,9.238,18.828,12.245c10.06,30.206,26.566,51.306,38.965,66.701c8.5,10.542,15.833,19.646,15.833,25.594v21.333 c0,15.723,8.645,29.329,21.333,36.73v67.353c0,11.229,4.563,22.229,12.5,30.167l20.792,20.792 C235.376,506.448,248.751,512,263.001,512h28.667c14.25,0,27.625-5.552,37.708-15.625l20.792-20.792 c7.938-7.938,12.5-18.938,12.5-30.167v-67.353c12.689-7.401,21.333-21.008,21.333-36.73V320c0-5.927,7.333-15.01,15.833-25.521 c19.188-23.719,48.167-59.563,48.167-123.813C448.001,76.563,371.439,0,277.335,0z"/><path style="fill:#7CB342;" d="M233.564,69.958c-2.604-5.292-8.979-7.438-14.271-4.865c-59.788,29.44-99.505,64.225-126.98,112.249 c-4.456-8.297-6.978-17.048-6.978-26.301c0-69.854,102.167-129.708,185.813-129.708c3.417,0,6.188,2.771,6.188,6.177 c0,83.646-59.854,185.823-129.708,185.823c-15.074,0-28.939-6.125-41.349-17.889c25.388-48.531,62.932-81.909,122.432-111.204 C234.001,81.635,236.168,75.24,233.564,69.958z"/><path style="opacity:0.1;enable-background:new ;" d="M271.147,21.333c-2.049,0-4.152,0.198-6.223,0.27 c-4.219,82.275-62.758,177.676-130.855,177.676c-7.94,0-17.958-1.049-27.552-3.641c12.35,11.621,26.129,17.695,41.109,17.695 c69.854,0,129.708-102.177,129.708-185.823C277.335,24.104,274.564,21.333,271.147,21.333z"/><g> <path style="fill:#F2F2F2;" d="M340.818,448H213.852c-0.112-0.878-0.517-1.694-0.517-2.583v-18.75h128v18.75 C341.335,446.306,340.93,447.122,340.818,448z"/> <path style="fill:#F2F2F2;" d="M291.668,490.667h-28.667c-8.417,0-16.667-3.417-22.625-9.375l-11.958-11.958h97.833l-11.958,11.958 C308.335,487.25,300.085,490.667,291.668,490.667z"/> <rect x="213.333" y="384" style="fill:#F2F2F2;" width="128" height="21.333"/> </g><path style="fill:#BBDEFB;" d="M383.251,281.073c-11.5,14.219-20.583,25.458-20.583,38.927v21.333 c0,11.76-9.563,21.333-21.333,21.333h-128c-11.771,0-21.333-9.573-21.333-21.333V320c0-13.469-9.063-24.729-20.563-38.979 c-9.932-12.339-21.659-27.224-30.454-47.03c2.223,0.189,4.372,0.676,6.642,0.676c83.667,0,151.042-113.323,151.042-207.156 c0-1.637-0.659-3.057-0.935-4.616c72.695,10,128.935,72.366,128.935,147.772C426.668,227.365,401.564,258.406,383.251,281.073z"/><path style="opacity:0.06;enable-background:new ;" d="M354.942,115.284c-12.457-11.811-32.856-4.502-34.855,12.547 c-3.213,27.407-15.209,53.937-36.252,74.981c-22.717,22.717-51.822,34.733-81.53,36.677c-8.286,0.542-13.13,9.586-8.516,16.49 c4.657,6.97,9.761,13.325,14.829,19.593c12.422,15.369,26.308,32.534,29.427,55.953c0.716,5.376,5.734,9.807,11.158,9.807h64.306 c5.424,0,10.442-4.431,11.159-9.807c3.121-23.419,17.007-40.583,29.429-55.943c16.677-20.635,33.927-41.979,33.927-83.583 C388.024,161.751,375.294,134.579,354.942,115.284z"/><linearGradient id="SVGID_1_" gradientUnits="userSpaceOnUse" x1="-44.137" y1="639.4738" x2="-26.8002" y2="631.3939" gradientTransform="matrix(21.3333 0 0 -21.3333 996.3333 13791.667)"> <stop offset="0" style="stop-color:#FFFFFF;stop-opacity:0.2"/> <stop offset="1" style="stop-color:#FFFFFF;stop-opacity:0"/> </linearGradient><path style="fill:url(#SVGID_1_);" d="M277.335,0c-1.156,0-5.762,0-6.188,0C177.314,0,64.001,67.375,64.001,151.042 c0,17.526,5.947,33.612,17.145,48.146c-6.184,13.422-11.872,27.483-16.665,43c-1.75,5.625,1.417,11.594,7.042,13.333 c1.042,0.323,2.104,0.479,3.146,0.479c4.563,0,8.771-2.938,10.188-7.521c3.641-11.78,7.772-22.62,12.186-33.018 c6.02,4.962,12.243,9.238,18.828,12.245c10.06,30.206,26.566,51.306,38.965,66.701c8.5,10.542,15.833,19.646,15.833,25.594v21.333 c0,15.723,8.645,29.329,21.333,36.73v67.353c0,11.229,4.563,22.229,12.5,30.167l20.792,20.792 C235.376,506.448,248.751,512,263.001,512h28.667c14.25,0,27.625-5.552,37.708-15.625l20.792-20.792 c7.938-7.938,12.5-18.938,12.5-30.167v-67.353c12.689-7.401,21.333-21.008,21.333-36.73V320c0-5.927,7.333-15.01,15.833-25.521 c19.188-23.719,48.167-59.563,48.167-123.813C448.001,76.563,371.439,0,277.335,0z"/></symbol><symbol id="eco-world" viewBox="0 0 469.17 469.17"><title>eco-world</title><path style="fill:#303C42;" d="M245.336,21.501c-3.973,0-7.846,0.384-11.764,0.59c-2.6-12.487-13.178-22.09-26.423-22.09 c-93.833,0-207.146,67.375-207.146,151.042c0,17.526,5.947,33.612,17.145,48.146c-6.184,13.422-11.872,27.483-16.665,43 c-1.75,5.625,1.417,11.594,7.042,13.333c1.042,0.323,2.104,0.479,3.146,0.479c4.563,0,8.771-2.938,10.188-7.521 c0.216-0.699,0.486-1.298,0.704-1.992c0.629,122.891,100.747,222.68,223.775,222.68c123.417,0,223.833-100.406,223.833-223.833 S368.753,21.501,245.336,21.501z"/><path id="SVGCleanerId_0" style="fill:#BBDEFB;" d="M245.336,447.835c-24.753,0-51.438-40.961-65.216-106.5h130.432 C296.774,406.874,270.089,447.835,245.336,447.835z"/><g> <path style="fill:#BBDEFB;" d="M176.276,320.001c-3.517-22.725-5.607-47.708-5.607-74.667c0-19.788,1.19-39.292,3.385-58.111 c4.613-5.225,9.029-10.729,13.211-16.556h127.13c3.517,22.725,5.607,47.708,5.607,74.667s-2.09,51.941-5.607,74.667H176.276z"/> <path style="fill:#BBDEFB;" d="M233.785,46.142c3.971-1.971,7.87-3.307,11.551-3.307c24.753,0,51.438,40.961,65.216,106.5H200.999 C218.858,117.84,230.633,81.283,233.785,46.142z"/> <path style="fill:#BBDEFB;" d="M335.949,170.668h97.445c9.22,23.135,14.441,48.284,14.441,74.667s-5.221,51.531-14.441,74.667 h-97.445c3.434-23.29,5.387-48.323,5.387-74.667S339.383,193.958,335.949,170.668z"/> <path style="fill:#BBDEFB;" d="M423.574,149.335h-91.313c-8.591-43.133-22.777-78.499-40.63-100.952 C348.595,61.779,396.417,99.113,423.574,149.335z"/> </g><path style="fill:#7CB342;" d="M21.336,151.043c0-69.854,102.167-129.708,185.813-129.708c3.417,0,6.188,2.771,6.188,6.177 c0,83.646-59.854,185.823-129.708,185.823c-15.074,0-28.939-6.125-41.349-17.889c25.388-48.531,62.932-81.909,122.432-111.204 c5.292-2.604,7.458-9,4.854-14.281c-2.604-5.292-8.979-7.438-14.271-4.865c-59.788,29.44-99.505,64.225-126.98,112.249 C23.858,169.047,21.336,160.296,21.336,151.043z"/><path style="fill:#BBDEFB;" d="M44.168,223.346c12.207,7.275,25.339,11.322,39.46,11.322c24.126,0,46.813-9.634,67.004-25.296 c-0.796,11.857-1.296,23.845-1.296,35.962c0,26.344,1.953,51.376,5.387,74.667H57.278c-9.22-23.135-14.441-48.284-14.441-74.667 C42.836,238.065,43.353,230.714,44.168,223.346z"/><path id="SVGCleanerId_1" style="fill:#BBDEFB;" d="M67.098,341.335h91.313c8.591,43.133,22.777,78.499,40.63,100.952 C142.077,428.891,94.255,391.556,67.098,341.335z"/><path id="SVGCleanerId_2" style="fill:#BBDEFB;" d="M291.632,442.287c17.853-22.453,32.039-57.819,40.63-100.952h91.313 C396.417,391.556,348.595,428.891,291.632,442.287z"/><g> <path id="SVGCleanerId_0_1_" style="fill:#BBDEFB;" d="M245.336,447.835c-24.753,0-51.438-40.961-65.216-106.5h130.432 C296.774,406.874,270.089,447.835,245.336,447.835z"/> </g><g> <path id="SVGCleanerId_1_1_" style="fill:#BBDEFB;" d="M67.098,341.335h91.313c8.591,43.133,22.777,78.499,40.63,100.952 C142.077,428.891,94.255,391.556,67.098,341.335z"/> </g><g> <path id="SVGCleanerId_2_1_" style="fill:#BBDEFB;" d="M291.632,442.287c17.853-22.453,32.039-57.819,40.63-100.952h91.313 C396.417,391.556,348.595,428.891,291.632,442.287z"/> </g><path style="opacity:0.1;enable-background:new ;" d="M44.168,223.346c-0.815,7.367-1.332,14.719-1.332,21.988 c0,0.451,0.063,0.885,0.065,1.336c12.901,5.973,26.566,9.331,40.727,9.331c23.565,0,45.805-7.346,66.038-19.818 c0.18-8.984,0.372-17.971,0.966-26.811c-20.191,15.661-42.878,25.296-67.004,25.296C69.507,234.668,56.375,230.621,44.168,223.346z"/><path style="opacity:0.1;enable-background:new ;" d="M213.15,170.668h-25.884c-4.182,5.827-8.598,11.331-13.211,16.556 c-1.25,10.716-2.073,21.689-2.637,32.775C187.172,206.348,201.216,189.542,213.15,170.668z"/><path style="opacity:0.1;enable-background:new ;" d="M245.336,42.835c-3.681,0-7.579,1.336-11.551,3.307 c-3.152,35.141-14.927,71.698-32.786,103.193h24.384c16.581-32.445,27.174-68.842,29.855-104.281 C251.926,43.654,248.615,42.835,245.336,42.835z"/><path style="opacity:0.1;enable-background:new ;" d="M196.345,394.449c14.04,33.57,31.926,53.385,48.991,53.385 c22.354,0,46.188-33.618,60.764-88.366C274.723,380.889,236.998,393.586,196.345,394.449z M423.574,149.335 c-15.198-28.104-37.031-51.948-63.151-70.044c14.026,20.915,24.203,44.599,29.66,70.044H423.574z M78.532,359.938 c28.129,40.763,70.833,70.667,120.509,82.349c-9.878-12.423-18.482-29.108-25.788-48.565 C138.374,390.517,106.034,378.557,78.532,359.938z M433.395,170.668h-39.866c0.734,7.014,1.141,14.125,1.141,21.333 c0,48.559-17.117,93.098-45.594,128h84.319c9.22-23.135,14.441-48.284,14.441-74.667S442.615,193.804,433.395,170.668z M291.632,442.287c56.964-13.396,104.785-50.73,131.943-100.952h-91.313C323.671,384.468,309.485,419.833,291.632,442.287z"/><path style="opacity:0.1;enable-background:new ;" d="M207.149,21.335c-2.049,0-4.152,0.198-6.223,0.27 c-4.219,82.275-62.758,177.676-130.855,177.676c-7.94,0-17.958-1.049-27.552-3.641c12.35,11.621,26.129,17.695,41.109,17.695 c69.854,0,129.708-102.177,129.708-185.823C213.336,24.106,210.565,21.335,207.149,21.335z"/><linearGradient id="SVGID_1_" gradientUnits="userSpaceOnUse" x1="-67.1364" y1="617.939" x2="-46.1059" y2="608.1309" gradientTransform="matrix(21.3333 0 0 -21.3333 1431.7762 13313.3936)"> <stop offset="0" style="stop-color:#FFFFFF;stop-opacity:0.2"/> <stop offset="1" style="stop-color:#FFFFFF;stop-opacity:0"/> </linearGradient><path style="fill:url(#SVGID_1_);" d="M245.336,21.501c-3.973,0-7.846,0.384-11.764,0.59c-2.6-12.487-13.178-22.09-26.423-22.09 c-93.833,0-207.146,67.375-207.146,151.042c0,17.526,5.947,33.612,17.145,48.146c-6.184,13.422-11.872,27.483-16.665,43 c-1.75,5.625,1.417,11.594,7.042,13.333c1.042,0.323,2.104,0.479,3.146,0.479c4.563,0,8.771-2.938,10.188-7.521 c0.216-0.699,0.486-1.298,0.704-1.992c0.629,122.891,100.747,222.68,223.775,222.68c123.417,0,223.833-100.406,223.833-223.833 S368.753,21.501,245.336,21.501z"/></symbol><symbol id="windy" viewBox="0 0 512.0027 512"><title>windy</title><linearGradient id="a"><stop offset="0" stop-color="#131830" stop-opacity="0"/><stop offset=".8421" stop-color="#131830"/></linearGradient><linearGradient id="b" gradientUnits="userSpaceOnUse" x1="476.1094061468" x2="333.6097057008" xlink:href="#a" y1="268.133355409" y2="125.633654963"/><linearGradient id="c"><stop offset="0" stop-color="#3b395f"/><stop offset=".3952" stop-color="#39375d"/><stop offset=".6279" stop-color="#323154"/><stop offset=".8179" stop-color="#262846"/><stop offset=".9849" stop-color="#151a32"/><stop offset="1" stop-color="#131830"/></linearGradient><radialGradient id="d" cx="215.8434307844" cy="185.72692" gradientUnits="userSpaceOnUse" r="336.6901399656" xlink:href="#c"/><linearGradient id="e" gradientUnits="userSpaceOnUse" x1="330.7470221178" x2="142.6793020918" xlink:href="#a" y1="491.886988808" y2="251.6149232132"/><linearGradient id="f" gradientUnits="userSpaceOnUse" x1="499.0239257968" x2="318.2908599028" xlink:href="#a" y1="473.0195799166" y2="292.2864136304"/><linearGradient id="g" gradientUnits="userSpaceOnUse" x1="471.3295327204" x2="380.582814512" xlink:href="#a" y1="156.7265247938" y2="65.9798065854"/><radialGradient id="h" cx="185.9712297134" cy="18.5276261958" gradientUnits="userSpaceOnUse" r="313.8369599498"><stop offset="0" stop-color="#ecf7ff"/><stop offset=".3473" stop-color="#e9f5ff"/><stop offset=".62" stop-color="#dff0ff"/><stop offset=".8666" stop-color="#cee7ff"/><stop offset="1" stop-color="#c2e0ff"/></radialGradient><linearGradient id="i"><stop offset=".0029" stop-color="#c2e0ff" stop-opacity="0"/><stop offset=".0763" stop-color="#bfdcfd" stop-opacity=".07451"/><stop offset="1" stop-color="#9eb2e7"/></linearGradient><linearGradient id="j" gradientUnits="userSpaceOnUse" x1="385.789154004" x2="431.0262808928" xlink:href="#i" y1="228.0525726966" y2="91.5742960144"/><linearGradient id="k" gradientUnits="userSpaceOnUse" x1="334.0382800026" x2="392.199195974" xlink:href="#i" y1="134.6854172838" y2="48.4527339562"/><linearGradient id="l" gradientUnits="userSpaceOnUse" x1="215.5650432138" x2="215.5650432138" xlink:href="#i" y1="152.597494" y2="-18.1165307262"/><linearGradient id="m" gradientUnits="userSpaceOnUse" x1="126.700979932" x2="34.8886989128" xlink:href="#i" y1="226.745165076" y2="139.9750823018"/><linearGradient id="n" gradientUnits="userSpaceOnUse" x1="256.00011" x2="256.00011" xlink:href="#i" y1="246.4371954982" y2="352.4814763582"/><radialGradient id="o" cx="368.6634493904" cy="9.6311706084" gradientUnits="userSpaceOnUse" r="90.9009206276"><stop offset="0" stop-color="#ecf7ff"/><stop offset="1" stop-color="#c2e0ff"/></radialGradient><linearGradient id="p" gradientUnits="userSpaceOnUse" x1="247.6352311116" x2="136.6429198902" xlink:href="#i" y1="350.0631286524" y2="239.070817431"/><linearGradient id="q" gradientTransform="matrix(1.003118 .0375467 -.0375467 1.003118 -268.510569 535.894282)" gradientUnits="userSpaceOnUse" x1="687.4132" x2="708.8719" y1="-256.1581" y2="-171.1181"><stop offset="0" stop-color="#8be1e2"/><stop offset=".1873" stop-color="#87e1e1"/><stop offset=".3558" stop-color="#7ce2dd"/><stop offset=".5172" stop-color="#6ae2d7"/><stop offset=".6741" stop-color="#50e4ce"/><stop offset=".8278" stop-color="#2fe5c2"/><stop offset=".9772" stop-color="#07e7b4"/><stop offset="1" stop-color="#00e7b2"/></linearGradient><linearGradient id="r" gradientTransform="matrix(.916078 -.410704 .410704 .916078 806.155344 504.040051)" gradientUnits="userSpaceOnUse" x1="-231.1288" x2="-270.2115" y1="-282.4041" y2="-317.2174"><stop offset=".0029" stop-color="#00e7b2" stop-opacity="0"/><stop offset=".4308" stop-color="#1bc4b7" stop-opacity=".427451"/><stop offset="1" stop-color="#3b9abe"/></linearGradient><radialGradient id="s" cx="437.7613" cy="320.5085" gradientTransform="matrix(.547639 .841387 .841387 -.547639 -76.848389 140.523766)" gradientUnits="userSpaceOnUse" r="33.4877" xlink:href="#c"/><linearGradient id="t" gradientUnits="userSpaceOnUse" x1="387.5785445768" x2="353.4450961846" xlink:href="#i" y1="342.4743818622" y2="206.44285047"/><linearGradient id="u"><stop offset="0" stop-color="#ffebc9"/><stop offset=".2771" stop-color="#ffe9c5"/><stop offset=".5263" stop-color="#fee2bb"/><stop offset=".7641" stop-color="#fdd7a8"/><stop offset=".9948" stop-color="#fbc78f"/><stop offset="1" stop-color="#fbc78e"/></linearGradient><radialGradient id="v" cx="365.7218575382" cy="105.1193120306" gradientUnits="userSpaceOnUse" r="166.6708292634" xlink:href="#u"/><linearGradient id="w" gradientUnits="userSpaceOnUse" x1="288.3628407686" x2="230.3862448764" xlink:href="#i" y1="188.439015283" y2="143.764486283"/><radialGradient id="x" cx="241.4431406078" cy="121.475410039" gradientUnits="userSpaceOnUse" r="43.1021863636" xlink:href="#u"/><linearGradient id="y" gradientUnits="userSpaceOnUse" x1="335.692944243" x2="224.2168430098" xlink:href="#i" y1="342.2901621752" y2="230.814060942"/><radialGradient id="z" cx="212.6388113682" cy="324.7157044276" gradientUnits="userSpaceOnUse" r="175.0471528626" xlink:href="#u"/><linearGradient id="A"><stop offset="0" stop-color="#e58200" stop-opacity="0"/><stop offset=".0396" stop-color="#e27f04" stop-opacity=".039216"/><stop offset=".4671" stop-color="#c15d2f" stop-opacity=".466667"/><stop offset=".8016" stop-color="#ad4949" stop-opacity=".8"/><stop offset="1" stop-color="#a64153"/></linearGradient><linearGradient id="B" gradientUnits="userSpaceOnUse" x1="170.8383102698" x2="168.5712536094" xlink:href="#A" y1="392.850585469" y2="350.1001733742"/><linearGradient id="C" gradientUnits="userSpaceOnUse" x1="129.765451837" x2="129.765451837" xlink:href="#A" y1="324.5263647384" y2="363.513976785"/><linearGradient id="D" gradientUnits="userSpaceOnUse" x1="277.899664508" x2="257.1519097106" y1="534.1849332574" y2="484.9927552574"><stop offset="0" stop-color="#131830" stop-opacity="0"/><stop offset="1" stop-color="#131830"/></linearGradient><radialGradient id="E" cx="281.7215" cy="346.6195" gradientTransform="matrix(.927925 -.383096 .383096 .927925 -147.650962 124.423173)" gradientUnits="userSpaceOnUse" r="162.4071" xlink:href="#u"/><path d="m463.125 406.453125c30.730469-42.234375 48.875-94.21875 48.875-150.453125 0-59.324219-20.1875-113.929688-54.058594-157.339844-4.484375-.507812-8.992187-.503906-13.398437-.003906-2.917969.332031-5.789063.925781-8.585938 1.695312-2.796875.757813-5.523437 1.726563-8.136719 2.910157-2.617187 1.167969-5.125 2.535156-7.496093 4.082031-1.203125.742188-2.335938 1.59375-3.472657 2.414062-1.101562.882813-2.199218 1.746094-3.226562 2.699219-4.175781 3.703125-7.683594 8.039063-10.394531 12.71875-.699219 1.152344-1.28125 2.375-1.894531 3.566407-.542969 1.21875-1.125 2.445312-1.585938 3.648437-.972656 2.410156-1.925781 4.832031-2.855469 7.269531l61.824219 61.820313-25.015625 20.964843c-16.128906 8.789063-34.238281 13.992188-52.71875 15.15625-18.476563 1.210938-37.347656-1.644531-55.003906-8.574218-1.109375-.417969-2.210938-.859375-3.304688-1.328125-1.105469-.441407-2.183593-.9375-3.273437-1.425781-1.09375-.472657-2.15625-1.015626-3.238282-1.519532-1.078124-.519531-2.308593-1.144531-3.367187-1.691406-4.414063-2.210938-8.78125-4.566406-13.066406-7.085938-4.273438-2.53125-8.535157-5.121093-12.699219-7.878906-2.082031-1.378906-4.140625-2.792968-6.183594-4.238281-1.921875-1.351563-3.832031-2.722656-5.714844-4.132813-.125-.175781-.253906-.347656-.378906-.523437.039063.113281.082032.222656.121094.335937-.039062-.03125-.074219-.058593-.113281-.085937-.847657-.636719-1.6875-1.28125-2.53125-1.929687-.753907-1.011719-1.5-2.039063-2.234375-3.074219.21875.628906.460937 1.246093.6875 1.871093-.417969-.332031-.84375-.660156-1.261719-.996093-1.425781-1.84375-2.824219-3.714844-4.183594-5.628907.351563 1.007813.730469 2.007813 1.109375 3.007813-2.015625-2.519531-3.976562-5.101563-5.863281-7.765625.351563 1.011719.726563 2.011719 1.109375 3.011719-2.015625-2.523438-3.976562-5.105469-5.863281-7.765625.351562 1.007812.726562 2.011718 1.109375 3.011718-2.015625-2.523437-3.976563-5.105468-5.867188-7.765624.351563 1.007812.730469 2.011718 1.109375 3.007812-2.015625-2.519531-3.976562-5.101562-5.863281-7.761719.351562 1.007813.726562 2.007813 1.109375 3.007813-2.015625-2.523438-3.976563-5.105469-5.863281-7.765625.347656 1.007812.726562 2.011719 1.105468 3.011719-2.011718-2.523438-3.976562-5.105469-5.863281-7.765626.351563 1.007813.726563 2.007813 1.109375 3.007813-2.015625-2.519531-3.976562-5.101563-5.863281-7.761719 3.414063 9.832032 8.355469 19.21875 14.15625 28.054688 2.902344 4.417968 6.042969 8.695312 9.382813 12.816406 3.316406 4.148438 6.835937 8.132812 10.511718 11.980469zm0 0" fill="url(#b)"/><path d="m512 256c0 141.386719-114.613281 256-256 256s-256-114.613281-256-256c0-141.382812 114.613281-256 256-256s256 114.617188 256 256zm0 0" fill="url(#d)"/><path d="m256 512c77.222656 0 146.457031-34.191406 193.390625-88.261719l-203.878906-203.882812c-5.847657-6.390625-12.761719-11.820313-20.328125-16.085938-10.046875-5.667969-21.355469-9.195312-32.898438-10.191406-11.527344-.976563-23.21875.484375-34.195312 4.3125-10.953125 3.828125-21.113282 9.960937-29.492188 17.96875-8.375 8.011719-15.050781 17.773437-19.453125 28.507813-4.390625 10.730468-6.480469 22.429687-6.023437 33.96875l.097656 2.160156c.039062.707031.113281 1.304687.167969 1.964844l.734375 7.726562.550781 3.84375.5625 3.839844.285156 1.921875.375 1.902343c.507813 2.539063.988281 5.082032 1.527344 7.613282 2.308594 10.09375 5.460937 19.992187 9.453125 29.53125 1.527344 3.703125 3.1875 7.351562 4.960938 10.9375-2.21875-.097656-4.4375-.230469-6.65625-.410156-9.21875-.6875-18.414063-2.042969-27.503907-4.046876-9.089843-2-18.050781-4.714843-26.847656-8-8.769531-3.347656-17.328125-7.242187-25.210937-12.339843-3.675782-2.347657-7.195313-4.972657-10.511719-7.867188-.675781-.769531-1.34375-1.546875-2-2.339843.230469.402343.476562.792968.710937 1.191406-.316406-.285156-.625-.582032-.9375-.875-1.40625-1.5-2.777344-3.039063-4.09375-4.636719.285156.507813.59375.996094.890625 1.496094-1.804687-1.863281-3.546875-3.800781-5.210937-5.816407 4.160156 7.367188 9.613281 14.082032 15.914062 19.972657l182.207032 182.214843c14.113281 2.40625 28.613281 3.679688 43.414062 3.679688zm0 0" fill="url(#e)"/><path d="m512 256c0 129.910156-96.769531 237.226562-222.15625 253.78125l-164.886719-164.882812c-6.121093-4.425782-10.117187-11.636719-10.117187-19.777344 0-.792969.050781-1.574219.128906-2.347656-.722656-.746094-1.433594-1.484376-2.128906-2.25l-38.519532-38.519532c-15.429687-13.933594-25.128906-34.09375-25.128906-56.53125 0-37.777344 27.5-69.121094 63.578125-75.125-.007812-.339844-.019531-.691406-.019531-1.03125 0-56.785156 46.03125-102.824218 102.8125-102.824218 29.734375 0 56.511719 12.640624 75.285156 32.820312 1.90625 1.765625 3.734375 3.601562 5.5 5.5 1.90625 1.765625 3.734375 3.605469 5.5 5.5.441406.414062.886719.84375 1.316406 1.253906 8.503907-5.609375 18.671876-8.882812 29.625-8.882812 7.800782 0 15.210938 1.65625 21.894532 4.648437 7.269531 3.242188 13.683594 8.050781 18.824218 13.984375l137.949219 137.9375c.109375 1.707032.210938 3.414063.28125 5.121094.171875 3.855469.261719 7.730469.261719 11.625zm0 0" fill="url(#f)"/><path d="m511.738281 244.375-157.054687-157.042969-11.0625-11.0625c-5.007813-4.027343-8.210938-10.1875-8.210938-17.117187 0-12.117188 9.820313-21.9375 21.9375-21.9375 2.1875 0 4.296875.320312 6.28125.914062 1.074219-4.328125 2.964844-8.332031 5.503906-11.835937 79.921876 39.433593 136.28125 119.347656 142.324219 212.964843.109375 1.703126.210938 3.410157.28125 5.117188zm0 0" fill="url(#g)"/><path d="m386.644531 149.3125c-.515625 0-1.027343.007812-1.542969.019531 1-4.101562 1.542969-8.382812 1.542969-12.792969 0-29.742187-24.113281-53.855468-53.859375-53.855468-11.699218 0-22.519531 3.742187-31.351562 10.082031-18.390625-27.871094-49.980469-46.269531-85.871094-46.269531-56.78125 0-102.808594 46.035156-102.808594 102.816406 0 .347656.007813.691406.011719 1.039062-36.070313 6-63.574219 37.347657-63.574219 75.121094 0 42.066406 34.101563 76.164063 76.164063 76.164063h261.289062c42.0625 0 76.164063-34.097657 76.164063-76.164063 0-42.0625-34.101563-76.160156-76.164063-76.160156zm0 0" fill="url(#h)"/><path d="m462.808594 225.472656c0 42.066406-34.101563 76.164063-76.164063 76.164063-42.066406 0-76.164062-34.097657-76.164062-76.164063 0-42.0625 34.097656-76.164062 76.164062-76.164062 42.0625 0 76.164063 34.101562 76.164063 76.164062zm0 0" fill="url(#j)"/><path d="m386.644531 136.539062c0 29.746094-24.113281 53.855469-53.859375 53.855469-29.742187 0-53.855468-24.109375-53.855468-53.855469 0-29.742187 24.113281-53.855468 53.855468-53.855468 29.746094 0 53.859375 24.113281 53.859375 53.855468zm0 0" fill="url(#k)"/><path d="m318.375 149.3125c0 56.78125-46.027344 102.808594-102.808594 102.808594s-102.8125-46.027344-102.8125-102.808594 46.03125-102.8125 102.8125-102.8125 102.808594 46.03125 102.808594 102.8125zm0 0" fill="url(#l)"/><path d="m201.519531 225.472656c0 42.066406-34.097656 76.164063-76.164062 76.164063-42.0625 0-76.164063-34.097657-76.164063-76.164063 0-42.0625 34.101563-76.164062 76.164063-76.164062 42.066406 0 76.164062 34.101562 76.164062 76.164062zm0 0" fill="url(#m)"/><path d="m49.898438 235.847656c5.058593 37.15625 36.914062 65.789063 75.457031 65.789063h261.289062c38.542969 0 70.398438-28.632813 75.457031-65.789063zm0 0" fill="url(#n)"/><path d="m431.796875 46.78125c0-.09375.003906-.1875.003906-.285156 0-19.105469-15.488281-34.597656-34.597656-34.597656-16.222656 0-29.832031 11.167968-33.574219 26.230468-1.988281-.59375-4.09375-.914062-6.277344-.914062-12.117187 0-21.941406 9.820312-21.941406 21.941406 0 12.117188 9.824219 21.941406 21.941406 21.941406h70.96875c9.570313 0 17.332032-7.757812 17.332032-17.332031 0-8.382813-5.949219-15.375-13.855469-16.984375zm0 0" fill="url(#o)"/><path d="m265.761719 301.636719-3.972657-3.96875c-5.640624-6.097657-13.707031-9.917969-22.667968-9.917969-.105469 0-.207032.011719-.3125.011719-.0625-.058594-.121094-.117188-.183594-.179688l-20.382812-20.382812c-8.867188-9.285157-21.359376-15.078125-35.210938-15.078125-26.894531 0-48.699219 21.800781-48.699219 48.699218 0 .132813.011719.265626.011719.398438-.582031.117188-1.152344.261719-1.714844.417969zm0 0" fill="url(#p)"/><path d="m415.390625 377.207031s-60.972656-58.984375 38.792969-99.492187c4.164062-1.691406 8.910156.234375 10.769531 4.328125 8.9375 19.664062 26.140625 74.777343-49.5625 95.164062zm0 0" fill="url(#q)"/><path d="m464.953125 282.042969c-1.03125-2.269531-2.949219-3.867188-5.164063-4.558594-26.714843 44.480469-44.394531 99.722656-44.394531 99.722656 75.699219-20.386719 58.496094-75.5 49.558594-95.164062zm0 0" fill="url(#r)"/><path d="m453.019531 310.949219c-.746093.449219-1.523437.84375-2.285156 1.242187-.761719.402344-1.519531.804688-2.296875 1.164063-.769531.378906-1.597656.640625-2.40625.917969-.8125.273437-1.546875.664062-2.230469 1.167968-.671875.511719-1.328125 1.058594-1.957031 1.699219.40625-1.105469.816406-2.203125 1.226562-3.308594l2.070313-5.359375c.679687-1.792968 1.464844-3.527344 2.171875-5.3125 1.480469-3.535156 3.082031-6.988281 4.925781-10.347656l-.722656-.519531-1.789063 2.3125-.898437 1.164062c-.289063.394531-.546875.804688-.824219 1.203125-1.054687 1.628906-2.199218 3.230469-3.167968 4.90625-2.050782 3.3125-3.917969 6.707032-5.8125 10.101563-.347657.664062-.695313 1.324219-1.042969 1.988281-.125-.613281-.289063-1.207031-.554688-1.785156-.355469-.777344-.730469-1.5625-.984375-2.378906-.273437-.8125-.5-1.640626-.726562-2.472657-.234375-.828125-.480469-1.664062-.664063-2.515625-.445312-1.695312-.734375-3.425781-1.082031-5.195312l-.496094-.023438c-.433594 1.761719-.738281 3.570313-.886718 5.398438-.085938.917968-.105469 1.835937-.132813 2.761718.015625.917969.03125 1.84375.097656 2.765626.058594.921874.066407 1.863281.113281 2.808593.070313.9375.292969 1.84375.703126 2.695313.085937.164062.171874.328125.257812.492187.972656 1.78125.972656 3.933594.070312 5.75l-.019531.03125c-1.570312 3.160157-3.070312 6.347657-4.589843 9.53125-.191407-.855469-.449219-1.644531-.738282-2.414062-.308594-.792969-.722656-1.515625-1.265625-2.179688-.535156-.664062-1.097656-1.328125-1.546875-2.058593-.464844-.714844-.894531-1.460938-1.324218-2.207032-.433594-.746094-.878907-1.492187-1.269532-2.269531-.859375-1.527344-1.570312-3.132813-2.347656-4.761719l-.484375.101563c.019531 1.816406.175781 3.644531.492187 5.453125.144532.90625.355469 1.800781.558594 2.703125.246094.886719.492188 1.777343.789063 2.652343.289062.882813.527343 1.789063.8125 2.691407.300781.890625.746093 1.714843 1.355469 2.433593.273437.3125.5625.621094.867187.914063 1.488281 1.429687 1.816406 3.691406.902344 5.542969-.78125 1.589844-1.570313 3.179687-2.339844 4.773437-.984375 2.019531-1.859375 4.082031-2.652344 6.171875-.179687-.730468-.40625-1.417968-.65625-2.09375-.3125-.792968-.726562-1.511718-1.269531-2.175781-.535156-.664063-1.097656-1.332031-1.546875-2.058594-.464844-.71875-.890625-1.460937-1.320313-2.210937-.433593-.742188-.878906-1.492188-1.269531-2.269532-.859375-1.527343-1.570312-3.132812-2.351562-4.761718l-.484375.105468c.019531 1.8125.179687 3.640626.492187 5.449219.148438.910157.355469 1.800781.558594 2.703125.246094.886719.496094 1.777344.789063 2.65625.289062.878906.53125 1.789063.816406 2.6875.300781.890625.742187 1.714844 1.355468 2.433594.613282.707031 1.296876 1.375 2.105469 1.9375.921875.640625 1.359375 1.773438 1.054688 2.859375-.792969 2.804687-2.1875 7.882813-2.742188 10.632813-.742187 3.839843-1.347656 7.726562-1.453125 11.78125l.839844.300781c2.5-3.179688 4.574219-6.507813 6.507812-9.882813 1.925782-3.378906 3.679688-6.8125 5.292969-10.300781.03125-.058594.058594-.121094.085938-.183594.523437-1.125 1.738281-1.695312 2.957031-1.464843.898438.167968 1.789062.203124 2.664062.167968.941407-.050781 1.84375-.289062 2.699219-.683594.847657-.410156 1.675781-.859374 2.511719-1.253906.84375-.386718 1.660156-.816406 2.472656-1.246094.796875-.472656 1.589844-.929687 2.351563-1.445312 1.53125-1.011719 2.972656-2.152344 4.304687-3.382812l-.253906-.421876c-1.722656.550782-3.375 1.132813-5.078125 1.554688-.832031.25-1.683594.4375-2.523437.636719-.839844.199219-1.671876.398437-2.515626.550781-.835937.171875-1.707031.222656-2.558593.285156-.855469.0625-1.660157.253906-2.449219.570313-.851562.359375-1.6875.769531-2.53125 1.292969.730469-1.878907 1.390625-3.78125 1.996094-5.707032.464844-1.539062 1.121094-3.613281 1.699218-5.433594.617188-1.933593 2.394532-3.304687 4.425782-3.300781.992187.003907 1.976562-.140625 2.886718-.175781.941407-.046875 1.84375-.289062 2.699219-.683594.847657-.410156 1.675781-.859375 2.515625-1.253906.835938-.386719 1.65625-.816406 2.46875-1.246094.796875-.46875 1.589844-.929687 2.351563-1.445312 1.53125-1.011719 2.972656-2.152344 4.304687-3.378906l-.253906-.425782c-1.722656.550782-3.375 1.132813-5.078125 1.554688-.832031.25-1.683594.4375-2.523437.636718-.835938.199219-1.671876.398438-2.515626.550782-.835937.171875-1.703124.222656-2.558593.285156-.851563.0625-1.660157.253906-2.449219.570312-1.496094.632813-2.953125 1.40625-4.476562 2.75 1.285156-3.605468 2.539062-7.230468 3.878906-10.8125l.046875-.140624c.765625-2.195313 2.652343-3.875 4.957031-4.203126.652344-.09375 1.28125-.246093 1.894531-.429687.898438-.285156 1.714844-.746094 2.441407-1.335937.722656-.613282 1.410156-1.253907 2.121093-1.84375.71875-.585938 1.402344-1.207032 2.082031-1.824219.652344-.65625 1.308594-1.300781 1.914063-1.992188 1.230469-1.363281 2.339844-2.824219 3.320313-4.351562l-.351563-.34375c-1.53125.96875-2.988281 1.945312-4.527344 2.78125zm0 0" fill="url(#s)"/><path d="m462.808594 225.472656c0 4.628906-.414063 9.164063-1.207032 13.574219-6.402343 35.585937-37.523437 62.59375-74.960937 62.59375h-28.289063l-85.253906-85.28125-7.089844-7.097656c-3.671874-3.847657-7.195312-7.832031-10.511718-11.980469-3.339844-4.125-6.484375-8.402344-9.382813-12.816406-5.804687-8.835938-10.742187-18.222656-14.15625-28.0625.753907 1.066406 1.515625 2.109375 2.289063 3.144531.773437 1.042969 1.554687 2.066406 2.347656 3.082031.390625.511719.792969 1.023438 1.214844 1.523438 9.378906 11.757812 20.097656 22.039062 31.613281 31.171875.421875.34375.84375.675781 1.265625.996093.921875.742188 1.867188 1.464844 2.800781 2.167969.421875.332031.851563.652344 1.273438.972657.042969.03125.070312.050781.113281.082031.089844.070312.167969.128906.257812.191406.945313.699219 1.890626 1.394531 2.84375 2.085937.953126.683594 1.90625 1.363282 2.871094 2.039063 2.046875 1.445313 4.105469 2.859375 6.183594 4.234375 4.167969 2.761719 8.421875 5.351562 12.699219 7.882812 4.285156 2.519532 8.652343 4.878907 13.070312 7.089844 1.054688.539063 2.289063 1.171875 3.363281 1.683594 1.085938.511719 2.140626 1.054688 3.242188 1.527344 1.085938.480468 2.167969.984375 3.273438 1.425781 1.085937.472656 2.1875.914063 3.304687 1.324219 17.65625 6.9375 36.523437 9.789062 55.003906 8.574218 18.480469-1.164062 36.582031-6.363281 52.714844-15.160156 10.070313-5.46875 19.355469-12.316406 27.578125-20.328125.824219 2.828125 1.527344 9.34375 1.527344 23.359375zm0 0" fill="url(#t)"/><path d="m231.953125 156.40625c12.03125 16.964844 26.773437 31.007812 42.808594 43.050781 2.003906 1.503907 4.042969 2.964844 6.089843 4.402344 2.042969 1.445313 4.097657 2.863281 6.183594 4.238281 4.160156 2.761719 8.425782 5.347656 12.699219 7.882813 4.285156 2.515625 8.652344 4.871093 13.066406 7.085937 1.054688.542969 2.285157 1.167969 3.367188 1.6875 1.082031.507813 2.140625 1.050782 3.238281 1.523438 1.085938.484375 2.167969.980468 3.269531 1.425781 1.09375.46875 2.195313.910156 3.304688 1.328125 17.660156 6.929688 36.527343 9.785156 55.007812 8.574219 18.480469-1.164063 36.585938-6.367188 52.714844-15.160157 16.136719-8.773437 30.289063-21.078124 41.210937-35.980468 1.378907-1.851563 2.691407-3.761719 3.972657-5.6875l1.839843-2.90625c.480469-.832032 1.007813-1.644532 1.4375-2.503906.480469-.839844.851563-1.722657 1.277344-2.589844.351563-.894532.761719-1.769532 1.054688-2.6875.65625-1.8125 1.199218-3.675782 1.585937-5.578125.417969-1.898438.660157-3.84375.769531-5.800781.128907-1.957032.089844-3.933594-.097656-5.90625-.066406-.988282-.230468-1.964844-.339844-2.957032-.175781-.976562-.320312-1.96875-.5625-2.9375-.4375-1.953125-1.007812-3.886718-1.75-5.761718-.734374-1.878907-1.574218-3.730469-2.597656-5.488282-.996094-1.769531-2.078125-3.519531-3.34375-5.136718-2.484375-3.28125-5.507812-6.1875-8.914062-8.703126-1.695313-1.273437-3.503906-2.410156-5.390625-3.414062-1.878907-1.035156-3.859375-1.871094-5.890625-2.617188-4.054688-1.511718-8.402344-2.433593-12.859375-2.683593-2.230469-.171875-4.488281-.144531-6.75.03125-2.269531.15625-4.53125.527343-6.78125 1.03125-2.261719.480469-4.503907 1.140625-6.691407 1.984375-2.195312.835937-4.359374 1.8125-6.453124 2.96875-2.101563 1.140625-4.132813 2.453125-6.070313 3.925781-1.960937 1.449219-3.832031 3.0625-5.574219 4.835937-.90625.859376-1.722656 1.800782-2.582031 2.730469-.804687.96875-1.605469 1.917969-2.414063 2.953125-1.609374 2.046875-3.238281 4.078125-4.890624 6.097656.929687-2.4375 1.882812-4.863281 2.855468-7.273437.457032-1.203125 1.042969-2.425781 1.585938-3.648437.609375-1.1875 1.195312-2.410157 1.890625-3.566407 2.714843-4.679687 6.222656-9.015625 10.398437-12.71875 1.027344-.949219 2.125-1.816406 3.226563-2.699219 1.136719-.820312 2.269531-1.667968 3.46875-2.414062 2.371093-1.546875 4.882812-2.910156 7.5-4.082031 2.609375-1.183594 5.335937-2.152344 8.136719-2.910157 2.796874-.765624 5.667968-1.359374 8.585937-1.691406 5.832031-.667968 11.835937-.457031 17.738281.648438 2.941406.574218 5.867188 1.355468 8.707032 2.390625 2.851562 1.007812 5.636718 2.226562 8.320312 3.667969 10.734375 5.726562 19.980469 14.917968 25.65625 26.128906 1.453125 2.78125 2.667969 5.691406 3.683594 8.679687 1.027344 2.984375 1.851562 6.050781 2.375 9.179688.554687 3.125.882812 6.300781.949218 9.492187.089844 3.191406-.046874 6.398438-.453124 9.582032-.394532 3.1875-.980469 6.363281-1.890626 9.457031-.40625 1.5625-.957031 3.078125-1.472656 4.609375-.589844 1.5-1.148437 3.019531-1.839844 4.476562-.640624 1.484375-1.390624 2.910156-2.140624 4.335938-.71875 1.308594-1.394532 2.492187-2.105469 3.738281-1.441407 2.4375-2.925781 4.859375-4.507813 7.21875-12.582031 18.941406-30.046875 34.761719-50.171875 45.542969-20.105469 10.828125-42.84375 16.605468-65.539062 16.742187-11.347657.101563-22.667969-1.308593-33.621094-3.949219-5.484375-1.304687-10.847656-3.039062-16.09375-5.027343-5.238281-1.996094-10.359375-4.273438-15.265625-6.925781-1.230469-.648438-2.449219-1.324219-3.652344-2.023438-1.214844-.679688-2.402344-1.402344-3.589844-2.121094-1.195312-.707031-2.347656-1.480468-3.519531-2.21875l-3.3125-2.1875c-4.464843-3.003906-8.816406-6.140625-13.046875-9.421875-4.242187-3.257812-8.316406-6.726562-12.285156-10.285156-1.984375-1.78125-3.933594-3.597656-5.855469-5.441406-1.898437-1.871094-3.773437-3.761719-5.605469-5.691407-3.675781-3.847656-7.199218-7.832031-10.515624-11.976562-3.335938-4.125-6.476563-8.398438-9.378907-12.820312-5.800781-8.832032-10.742187-18.21875-14.160156-28.054688zm0 0" fill="url(#v)"/><path d="m229.292969 120.078125c-.496094 4.949219.496093 9.589844 1.898437 13.992187 1.449219 4.398438 3.507813 8.546876 6.058594 12.367188 2.160156 3.226562 4.644531 6.246094 7.484375 8.929688l93.746094 93.75c1.09375 1.15625 2.222656 2.28125 3.441406 3.324218 3.480469 3.042969 7.4375 5.640625 12.09375 7.246094-.699219-2.429688-1.699219-4.480469-2.625-6.566406-.941406-2.070313-2-3.992188-3.015625-5.929688-2.109375-3.808594-4.320312-7.445312-6.6875-10.980468-2.386719-3.527344-4.824219-7.015626-7.550781-10.414063-2.464844-3.054687-5.007813-6.0625-8.113281-9.050781zm0 0" fill="url(#w)"/><path d="m229.292969 120.078125c3.621093 3.332031 6.472656 6.683594 9.21875 10.09375 2.730469 3.398437 5.167969 6.886719 7.550781 10.414063 2.367188 3.535156 4.578125 7.171874 6.691406 10.980468 1.011719 1.941406 2.074219 3.859375 3.015625 5.929688.921875 2.085937 1.925781 4.136718 2.621094 6.566406-4.65625-1.605469-8.609375-4.203125-12.09375-7.246094-3.527344-3.011718-6.496094-6.566406-9.050781-10.382812-2.546875-3.816406-4.605469-7.964844-6.054688-12.367188-1.402344-4.398437-2.394531-9.039062-1.898437-13.988281zm0 0" fill="url(#x)"/><path d="m265.316406 291.078125c.972656-5.472656 1.445313-11.042969 1.425782-16.59375-.03125-1.398437-.019532-2.773437-.101563-4.1875-.109375-1.414063-.179687-2.839844-.339844-4.257813-.320312-2.828124-.761719-5.660156-1.367187-8.453124-2.398438-11.191407-7.226563-21.894532-14.035156-31.148438-1.675782-2.289062-3.472657-4.488281-5.390626-6.578125l81.78125 81.78125h-64.492187c1.054687-3.464844 1.886719-7 2.519531-10.5625zm0 0" fill="url(#y)"/><path d="m366.140625 417.863281c-16.605469 8.519531-34.664063 13.671875-52.835937 15.3125l-3.402344.316407-3.414063.152343c-2.28125.09375-4.5.21875-6.945312.230469l-6.867188-.066406-1.714843-.023438-1.710938-.105468-3.417969-.207032c-9.097656-.640625-18.125-1.855468-26.945312-3.914062-17.609375-4.203125-34.503907-10.988282-49.707031-20.476563-7.613282-4.707031-14.828126-10.019531-21.550782-15.867187l-2.492187-2.226563c-.824219-.75-1.691407-1.449219-2.472657-2.246093l-4.789062-4.644532-4.558594-4.867187c-1.515625-1.625-2.894531-3.371094-4.351562-5.042969-2.179688-2.652344-4.285156-5.367188-6.3125-8.140625l9.566406-.21875 7.183594-.164063 4-.203124c1.34375-.070313 2.675781-.265626 4.015625-.394532 5.347656-.644531 10.660156-1.765625 15.847656-3.363281 5.179687-1.597656 10.234375-3.671875 15.070313-6.191406 4.835937-2.519531 9.414062-5.535157 13.710937-8.917969 8.589844-6.773438 15.980469-15.121094 21.691406-24.558594 5.710938-9.441406 9.648438-20.007812 11.578125-30.957031.96875-5.472656 1.445313-11.035156 1.429688-16.597656-.035156-1.394531-.027344-2.769531-.105469-4.183594-.109375-1.417969-.179687-2.839844-.34375-4.253906-.3125-2.835938-.753906-5.660157-1.359375-8.457031-2.398438-11.191407-7.230469-21.894532-14.042969-31.152344-6.773437-9.296875-15.667969-17-25.707031-22.664063-10.050781-5.664062-21.359375-9.195312-32.902344-10.1875-11.527344-.980469-23.21875.480469-34.195312 4.308594-10.949219 3.828125-21.113282 9.964844-29.492188 17.972656-8.375 8.007813-15.050781 17.773438-19.453125 28.503907-4.390625 10.730468-6.476562 22.433593-6.019531 33.96875l.09375 2.160156c.039062.707031.113281 1.308594.171875 1.964844l.363281 3.863281.371094 3.863281.546875 3.84375.5625 3.839844.289063 1.921875.375 1.902343c.503906 2.539063.988281 5.085938 1.527343 7.613282 2.308594 10.09375 5.457031 19.992187 9.449219 29.53125 1.53125 3.703125 3.1875 7.351562 4.964844 10.9375-2.222656-.097656-4.441406-.230469-6.660156-.410156-9.214844-.6875-18.414063-2.042969-27.503907-4.042969-9.089843-2.003907-18.050781-4.71875-26.847656-8.003907-8.769531-3.347656-17.328125-7.242187-25.210937-12.339843-3.953126-2.523438-7.730469-5.355469-11.265626-8.515625-3.523437-3.164063-6.828124-6.625-9.886718-10.328125 4.730468 8.371093 11.125 15.902343 18.535156 22.335937 7.453125 6.402344 15.855469 11.65625 24.523438 16.183594 8.675781 4.550781 17.773437 8.367188 27.113281 11.550781 9.359375 3.152344 19.003906 5.503907 28.78125 7.234375 5.71875 1.003906 11.496093 1.710938 17.300781 2.179688 16.609375 26.40625 39.976562 48.390625 67.160156 63.054687 8.929688 4.945313 18.351563 8.933594 27.976563 12.183594 9.628906 3.242187 19.5 5.699219 29.492187 7.253906 19.996094 3.035157 40.363282 2.640625 59.945313-.960937 9.863281-1.886719 19.515625-4.679688 28.734375-8.441406 9.222656-3.742188 18.007812-8.445313 26.175781-13.953126 8.183594-5.484374 15.746094-11.792968 22.570313-18.734374 6.769531-6.996094 12.902343-14.539063 18.039062-22.664063-12.835938 14.304687-28.066406 25.996094-44.671875 34.503906zm-230.476563-162.574219c2.917969-6.96875 7.320313-13.324218 12.816407-18.519531 5.449219-5.246093 12.03125-9.277343 19.132812-11.804687 7.085938-2.539063 14.804688-3.53125 22.363281-2.972656 7.554688.5 14.980469 2.667968 21.683594 6.28125 6.707032 3.601562 12.667969 8.644531 17.398438 14.667968 4.726562 6.027344 8.171875 13.054688 10.023437 20.539063.46875 1.867187.820313 3.769531 1.097657 5.6875.148437.957031.210937 1.925781.328124 2.890625.097657.976562.125 1.996094.199219 2.996094.179688 4.007812.007813 8.03125-.519531 12.015624-.53125 3.984376-1.421875 7.925782-2.664062 11.765626-1.25 3.839843-2.882813 7.5625-4.796876 11.144531-3.820312 7.167969-8.972656 13.6875-15.136718 19.121093-6.167969 5.425782-13.308594 9.828126-21.082032 12.773438-3.882812 1.484375-7.910156 2.617188-12.03125 3.394531-1.03125.164063-2.058593.398438-3.105468.511719l-3.15625.402344-7.152344.710937-14.300781 1.421875-3.578125.355469-1.578125.148437c-3.613281-6.492187-6.773438-13.222656-9.386719-20.164062-3.117188-8.238281-5.679688-16.679688-7.488281-25.292969l-1.175781-6.492187-.296876-1.625-.207031-1.636719-.417969-3.273437-.414062-3.273438-.25-3.289062-.253906-3.292969c-.035156-.535157-.097656-1.125-.113282-1.613281l-.03125-1.425782c-.164062-7.601562 1.175782-15.171875 4.09375-22.152344zm0 0" fill="url(#z)"/><path d="m169.804688 409.832031h40.609374c-.410156-.25-.828124-.496093-1.234374-.75-7.613282-4.710937-14.828126-10.023437-21.550782-15.871093l-2.492187-2.226563c-.824219-.75-1.691407-1.445313-2.472657-2.246094l-4.789062-4.644531-4.558594-4.867188c-1.515625-1.621093-2.894531-3.367187-4.351562-5.042968-2.179688-2.652344-4.285156-5.367188-6.3125-8.136719l-31.933594-.429687c10.550781 16.773437 23.835938 31.753906 39.085938 44.214843zm0 0" fill="url(#B)"/><path d="m142.214844 328.65625c-2.136719-5.660156-4.007813-11.417969-5.5625-17.257812h-28.726563c2.257813 9.371093 5.234375 18.5625 8.949219 27.441406 1.53125 3.703125 3.1875 7.351562 4.964844 10.9375l29.765625-.957032c-3.613281-6.492187-6.773438-13.222656-9.390625-20.164062zm0 0" fill="url(#C)"/><path d="m337.320312 498.804688-26.175781-26.175782c-1.757812-.035156-3.46875.015625-5.167969.0625-1.695312.054688-3.359374.179688-5.046874.164063-3.363282.011719-6.636719.226562-9.925782.132812-1.640625-.015625-3.253906.0625-4.878906.011719-1.625-.066406-3.238281-.082031-4.84375-.125-1.605469-.015625-3.203125-.09375-4.800781-.191406l-4.761719-.253906c-6.332031-.5-12.566406-1.140626-18.742188-2.097657-6.167968-1.011719-12.273437-2.195312-18.335937-3.667969-12.089844-3.054687-24.023437-6.980468-35.851563-11.859374-5.933593-2.40625-11.824218-5.066407-17.761718-7.859376-5.960938-2.789062-11.882813-5.761718-18.03125-8.929687 1.671875 3.058594 3.730468 5.859375 5.902344 8.546875 2.171874 2.695312 4.511718 5.25 6.972656 7.679688.105468.105468.214844.199218.316406.300781l56.363281 56.378906c7.726563.699219 15.542969 1.078125 23.449219 1.078125 28.429688 0 55.769531-4.640625 81.320312-13.195312zm0 0" fill="url(#D)"/><path d="m162.996094 438.015625c6.148437 3.164063 12.070312 6.140625 18.027344 8.925781 5.941406 2.796875 11.828124 5.457032 17.761718 7.859375 11.832032 4.882813 23.765625 8.808594 35.855469 11.863281 6.0625 1.472657 12.167969 2.65625 18.335937 3.664063 6.175782.960937 12.410157 1.597656 18.742188 2.101563l4.761719.25c1.597656.101562 3.195312.179687 4.800781.195312 1.605469.042969 3.214844.058594 4.84375.125 1.621094.050781 3.238281-.027344 4.875-.015625 3.292969.097656 6.5625-.117187 9.929688-.128906 1.683593.015625 3.351562-.113281 5.046874-.167969 1.699219-.042969 3.410157-.097656 5.164063-.058594-5.757813 3.8125-12 6.902344-18.546875 9.199219-1.640625.5625-3.285156 1.152344-4.953125 1.65625-1.671875.46875-3.359375.886719-5.054687 1.332031-.847657.207032-1.691407.472656-2.550782.617188l-2.578125.476562c-1.71875.300782-3.445312.667969-5.183593.878906l-5.242188.570313c-1.75.210937-3.507812.222656-5.269531.300781-3.523438.214844-7.046875.074219-10.578125-.070312-7.046875-.464844-14.066406-1.5-20.925782-3.183594-13.695312-3.4375-26.734374-9.214844-38.28125-17.007812-5.769531-3.902344-11.1875-8.289063-16.109374-13.15625-2.460938-2.433594-4.800782-4.988282-6.972657-7.679688-2.167969-2.691406-4.226562-5.488281-5.898437-8.546875zm0 0" fill="url(#E)"/></symbol><symbol id="leaf" viewBox="0 0 469.333 469.333"><title>leaf</title><path style="fill:#303C42;" d="M441.823,0C347.99,0,234.667,67.375,234.667,151.042c0,19.467,7.359,37.155,21.154,52.889 c-13.993,35.889-20.949,77.185-21.154,124.569c-3.757-9.898-8.161-19.324-12.935-28.488c8.436-12.979,12.935-27.099,12.935-42.303 c0-83.667-113.323-151.042-207.156-151.042C12.344,106.667,0,119.01,0,134.177c0,93.833,67.375,207.156,151.052,207.156 c20.71,0,39.477-8.126,55.939-23.74c18.658,39.378,27.676,85.846,27.676,141.073c0,5.896,4.771,10.667,10.667,10.667 c5.896,0,10.667-4.771,10.667-10.667v-128c0-42.31,5.491-78.988,16.648-111.034c13.863,9.931,29.139,15.034,45.633,15.034 c83.677,0,151.052-113.323,151.052-207.156C469.333,12.344,456.99,0,441.823,0z"/><path style="fill:#7CB342;" d="M194.042,300.708C181.24,313.51,166.771,320,151.052,320C81.188,320,21.333,217.823,21.333,134.177 c0-3.406,2.771-6.177,6.177-6.177c83.646,0,185.823,59.854,185.823,129.708c0,7.159-1.522,14.018-4.194,20.617 c-29.117-44.559-72.082-79.652-129.962-106.659C73.844,169.208,67.5,171.51,65,176.823c-2.49,5.333-0.188,11.688,5.156,14.177 c57.967,27.052,99.486,61.811,126.353,106.803C195.639,298.759,194.98,299.77,194.042,300.708z"/><path style="opacity:0.1;enable-background:new ;" d="M151.052,298.667c-64.707,0-120.732-87.635-128.664-167.031 c-0.417,0.831-1.055,1.549-1.055,2.542C21.333,217.823,81.188,320,151.052,320c15.719,0,30.188-6.49,42.99-19.292 c0.939-0.939,1.598-1.949,2.467-2.905c-2.699-4.52-5.655-8.861-8.651-13.176C176.622,293.766,164.318,298.667,151.052,298.667z"/><path style="fill:#7CB342;" d="M318.281,213.333c-13.479,0-25.965-5.064-37.342-14.495c22.736-49.477,61.478-86.56,118.436-114.599 c5.292-2.604,7.458-9,4.865-14.281c-2.625-5.281-9.021-7.448-14.281-4.865c-58.068,28.592-99.043,66.928-124.301,116.921 c-6.29-9.63-9.658-19.97-9.658-30.973c0-69.854,102.177-129.708,185.823-129.708c3.406,0,6.177,2.771,6.177,6.177 C448,111.156,388.146,213.333,318.281,213.333z"/><path style="opacity:0.1;enable-background:new ;" d="M445.007,22.654C432.165,106.156,379.033,192,318.281,192 c-10.24,0-19.9-3.283-28.941-9.438c-2.986,5.286-5.828,10.677-8.401,16.276c11.378,9.431,23.863,14.495,37.342,14.495 C388.146,213.333,448,111.156,448,27.51C448,25.346,446.697,23.758,445.007,22.654z"/><linearGradient id="SVGID_1_" gradientUnits="userSpaceOnUse" x1="-66.0579" y1="620.2456" x2="-48.8656" y2="612.2285" gradientTransform="matrix(21.3333 0 0 -21.3333 1430.1112 13315.2227)"> <stop offset="0" style="stop-color:#FFFFFF;stop-opacity:0.2"/> <stop offset="1" style="stop-color:#FFFFFF;stop-opacity:0"/> </linearGradient><path style="fill:url(#SVGID_1_);" d="M441.823,0C347.99,0,234.667,67.375,234.667,151.042c0,19.467,7.359,37.155,21.154,52.889 c-13.993,35.889-20.949,77.185-21.154,124.569c-3.757-9.898-8.161-19.324-12.935-28.488c8.436-12.979,12.935-27.099,12.935-42.303 c0-83.667-113.323-151.042-207.156-151.042C12.344,106.667,0,119.01,0,134.177c0,93.833,67.375,207.156,151.052,207.156 c20.71,0,39.477-8.126,55.939-23.74c18.658,39.378,27.676,85.846,27.676,141.073c0,5.896,4.771,10.667,10.667,10.667 c5.896,0,10.667-4.771,10.667-10.667v-128c0-42.31,5.491-78.988,16.648-111.034c13.863,9.931,29.139,15.034,45.633,15.034 c83.677,0,151.052-113.323,151.052-207.156C469.333,12.344,456.99,0,441.823,0z"/></symbol><symbol id="leaf-1" viewBox="0 0 106.581 106.581"><title>leaf-1</title><g id="XMLID_82_"> <g id="XMLID_76_"> <path id="XMLID_65_" style="fill:#66B406;" d="M49.641,17.054c-0.035-0.065-0.073-0.125-0.108-0.19 c-0.186-0.336-0.38-0.66-0.58-0.973c-0.073-0.113-0.145-0.227-0.22-0.338c-0.225-0.334-0.457-0.656-0.698-0.961 c-0.079-0.1-0.161-0.193-0.242-0.289c-0.186-0.225-0.374-0.439-0.567-0.645c-0.039-0.041-0.074-0.088-0.113-0.129 c0.007,0.006,0.014,0.012,0.021,0.018c-0.01-0.01-0.021-0.019-0.03-0.029c-0.057-0.059-0.115-0.113-0.173-0.172 c-0.024-0.025-0.048-0.053-0.073-0.076c0.019,0.017,0.035,0.039,0.053,0.057c-0.018-0.018-0.036-0.033-0.054-0.051 c-0.206-0.203-0.415-0.398-0.628-0.584c-0.106-0.094-0.212-0.184-0.319-0.271c-0.259-0.213-0.522-0.414-0.792-0.602 c-0.083-0.057-0.168-0.111-0.252-0.168c-0.258-0.17-0.52-0.328-0.785-0.475c-0.112-0.063-0.227-0.123-0.341-0.182 c-0.252-0.129-0.508-0.25-0.766-0.359c-0.08-0.033-0.157-0.072-0.236-0.103c-0.325-0.129-0.655-0.24-0.987-0.34 c-0.108-0.031-0.218-0.061-0.327-0.088c-0.265-0.07-0.531-0.131-0.801-0.184c-0.093-0.018-0.186-0.039-0.28-0.055 c-0.346-0.057-0.695-0.098-1.046-0.123c-0.092-0.006-0.184-0.008-0.275-0.012c-0.286-0.014-0.572-0.018-0.86-0.012 c-0.099,0.002-0.196,0.004-0.296,0.008c-0.361,0.018-0.724,0.049-1.086,0.098c-0.061,0.008-0.121,0.021-0.182,0.031 c-0.314,0.047-0.628,0.107-0.942,0.18c-0.1,0.023-0.199,0.047-0.299,0.072c-0.368,0.094-0.735,0.197-1.103,0.324 c-6.216,2.158-9.863,8.412-7.673,16.504c-8.078-2.24-14.206,1.221-16.4,7.424c-0.129,0.367-0.235,0.734-0.331,1.102 c-0.026,0.1-0.051,0.201-0.074,0.301c-0.072,0.309-0.135,0.617-0.184,0.928c-0.011,0.066-0.024,0.131-0.034,0.197 C9.503,37.25,9.47,37.611,9.45,37.97c-0.005,0.102-0.006,0.203-0.009,0.303c-0.008,0.281-0.006,0.561,0.006,0.84 c0.004,0.1,0.006,0.201,0.013,0.301c0.023,0.348,0.062,0.695,0.116,1.039c0.015,0.096,0.037,0.191,0.055,0.287 c0.049,0.262,0.106,0.524,0.173,0.781c0.031,0.119,0.062,0.238,0.096,0.357c0.095,0.32,0.199,0.639,0.321,0.953 c0.034,0.086,0.074,0.172,0.11,0.258c0.107,0.256,0.225,0.51,0.351,0.76c0.063,0.125,0.129,0.25,0.196,0.373 c0.127,0.231,0.264,0.457,0.407,0.682c0.061,0.094,0.115,0.189,0.178,0.283c0.196,0.289,0.41,0.57,0.635,0.848 c0.095,0.117,0.194,0.231,0.294,0.346c0.167,0.193,0.342,0.383,0.523,0.568c0.034,0.035,0.063,0.072,0.098,0.105 c-0.015-0.014-0.032-0.027-0.047-0.041c0.02,0.019,0.042,0.037,0.062,0.059c0.063,0.063,0.127,0.125,0.191,0.189 c0.018,0.016,0.033,0.033,0.051,0.051c-0.01-0.012-0.019-0.021-0.029-0.033c0.025,0.025,0.056,0.049,0.082,0.074 c0.207,0.195,0.424,0.389,0.648,0.578c0.097,0.08,0.19,0.164,0.291,0.244c0.305,0.244,0.625,0.477,0.958,0.705 c0.107,0.072,0.218,0.143,0.328,0.215c0.309,0.201,0.629,0.395,0.962,0.582c0.068,0.039,0.132,0.078,0.2,0.115 c0.397,0.217,0.816,0.42,1.247,0.617c0.108,0.049,0.218,0.096,0.328,0.145c0.452,0.195,0.915,0.385,1.401,0.557 c6.434,2.275,31.474,0.416,31.479,0.414l0,0c0,0,2.013-25.033-0.225-31.481c-0.169-0.488-0.355-0.951-0.548-1.404 c-0.048-0.111-0.096-0.225-0.146-0.334C50.056,17.875,49.855,17.453,49.641,17.054z"/> <path id="XMLID_77_" style="fill:#66B406;" d="M56.943,17.054c0.035-0.065,0.073-0.125,0.108-0.19 c0.187-0.336,0.38-0.66,0.581-0.973c0.072-0.113,0.145-0.227,0.219-0.338c0.226-0.334,0.457-0.656,0.698-0.961 c0.079-0.1,0.161-0.193,0.242-0.289c0.186-0.225,0.375-0.439,0.567-0.645c0.039-0.041,0.074-0.088,0.113-0.129 c-0.007,0.006-0.014,0.012-0.021,0.018c0.011-0.01,0.021-0.019,0.03-0.029c0.057-0.059,0.115-0.113,0.173-0.172 c0.024-0.025,0.048-0.053,0.073-0.076c-0.019,0.017-0.035,0.039-0.053,0.057c0.018-0.018,0.036-0.033,0.054-0.051 c0.206-0.203,0.415-0.398,0.629-0.584c0.105-0.094,0.211-0.184,0.318-0.271c0.259-0.213,0.522-0.414,0.792-0.602 c0.083-0.057,0.168-0.111,0.252-0.168c0.258-0.17,0.52-0.328,0.785-0.475c0.113-0.063,0.227-0.123,0.341-0.182 c0.253-0.129,0.508-0.25,0.766-0.359c0.079-0.033,0.157-0.072,0.236-0.103c0.325-0.129,0.655-0.24,0.987-0.34 c0.109-0.031,0.218-0.061,0.327-0.088c0.265-0.07,0.531-0.131,0.801-0.184c0.093-0.018,0.186-0.039,0.28-0.055 c0.346-0.057,0.695-0.098,1.046-0.123c0.092-0.006,0.184-0.008,0.276-0.012c0.285-0.014,0.571-0.018,0.859-0.012 c0.099,0.002,0.197,0.004,0.296,0.008c0.361,0.018,0.724,0.049,1.086,0.098c0.06,0.008,0.121,0.021,0.182,0.031 c0.314,0.047,0.628,0.107,0.942,0.18c0.1,0.023,0.199,0.047,0.299,0.072c0.368,0.094,0.736,0.197,1.103,0.324 c6.216,2.158,9.863,8.412,7.673,16.504c8.078-2.24,14.206,1.221,16.4,7.424c0.129,0.367,0.235,0.734,0.331,1.102 c0.026,0.1,0.051,0.201,0.074,0.301c0.072,0.309,0.135,0.617,0.184,0.928c0.011,0.066,0.024,0.131,0.034,0.197 c0.052,0.361,0.085,0.723,0.104,1.082c0.005,0.102,0.006,0.203,0.009,0.303c0.008,0.281,0.006,0.561-0.006,0.84 c-0.004,0.1-0.006,0.201-0.013,0.301c-0.023,0.348-0.062,0.695-0.116,1.039c-0.015,0.096-0.037,0.191-0.055,0.287 c-0.049,0.262-0.105,0.524-0.173,0.781c-0.031,0.119-0.062,0.238-0.096,0.357c-0.095,0.32-0.199,0.639-0.321,0.953 c-0.034,0.086-0.074,0.172-0.11,0.258c-0.107,0.256-0.225,0.51-0.352,0.76c-0.063,0.125-0.129,0.25-0.196,0.373 c-0.127,0.231-0.264,0.457-0.407,0.682c-0.061,0.094-0.114,0.189-0.178,0.283c-0.196,0.289-0.41,0.57-0.635,0.848 c-0.095,0.117-0.194,0.231-0.294,0.346c-0.167,0.193-0.342,0.383-0.524,0.568c-0.034,0.035-0.063,0.072-0.098,0.105 c0.016-0.014,0.032-0.027,0.047-0.041c-0.019,0.019-0.042,0.037-0.061,0.059c-0.064,0.063-0.127,0.125-0.191,0.189 c-0.018,0.016-0.033,0.033-0.051,0.051c0.011-0.012,0.02-0.021,0.029-0.033c-0.025,0.025-0.056,0.049-0.082,0.074 c-0.208,0.195-0.424,0.389-0.648,0.578c-0.097,0.08-0.19,0.164-0.291,0.244c-0.305,0.244-0.625,0.477-0.958,0.705 c-0.107,0.072-0.218,0.143-0.327,0.215c-0.31,0.201-0.63,0.395-0.963,0.582c-0.068,0.039-0.132,0.078-0.2,0.115 c-0.397,0.217-0.816,0.42-1.246,0.617c-0.109,0.049-0.219,0.096-0.329,0.145c-0.452,0.195-0.914,0.385-1.401,0.557 c-6.434,2.275-31.474,0.416-31.479,0.414l0,0c0,0-2.013-25.033,0.225-31.481c0.169-0.488,0.354-0.951,0.548-1.404 c0.048-0.111,0.097-0.225,0.146-0.334C56.528,17.875,56.729,17.453,56.943,17.054z"/> </g> <path id="XMLID_143_" style="fill:#C12530;" d="M53.405,54.25c-0.427,0-0.427,0-4.397-3.502c-2.073-1.828-5.236-4.656-8.527-7.746 c-8.519-7.996-13.637-13.697-15.212-16.945c-0.259-0.533-0.505-1.094-0.773-1.766c-0.059-0.144-0.116-0.289-0.171-0.434 c-0.237-0.621-0.429-1.174-0.583-1.689l-0.002-0.004L23.668,21.9c-0.132-0.461-0.253-0.938-0.357-1.418l-0.018-0.076 c-0.031-0.144-0.063-0.289-0.091-0.432c-0.107-0.559-0.186-1.055-0.241-1.522c-0.013-0.111-0.023-0.227-0.031-0.34l-0.014-0.148 c-0.034-0.375-0.057-0.748-0.069-1.115c-0.008-0.098-0.013-0.156-0.014-0.209H22.83l0.002-0.352l-0.004-0.113l0,0v-0.02 l0.008-0.002c0.002-0.375,0.014-0.75,0.04-1.117c0.012-0.184,0.024-0.367,0.044-0.549c0.046-0.459,0.104-0.881,0.177-1.287 c0.021-0.111,0.044-0.225,0.066-0.336c0.09-0.436,0.187-0.83,0.3-1.227c0.047-0.164,0.097-0.328,0.15-0.49 c0.112-0.352,0.239-0.701,0.378-1.045l0.036-0.096c0.028-0.074,0.057-0.15,0.088-0.223c0.17-0.392,0.367-0.799,0.603-1.234 c0.056-0.102,0.113-0.201,0.172-0.301l0.049-0.086c0.183-0.314,0.375-0.619,0.578-0.918l0.065-0.098 c0.047-0.072,0.095-0.144,0.144-0.213c0.265-0.369,0.554-0.736,0.86-1.092c0.057-0.064,0.112-0.125,0.168-0.184l0.078-0.086 c0.252-0.277,0.514-0.547,0.788-0.809l0.067-0.061c0.071-0.07,0.143-0.139,0.216-0.205c0.376-0.34,0.735-0.641,1.1-0.916 c0.041-0.031,0.09-0.066,0.14-0.102L29.2,3.439c0.33-0.244,0.681-0.48,1.041-0.707c0.111-0.068,0.226-0.141,0.343-0.209 c0.485-0.289,0.904-0.518,1.317-0.717c7.837-3.801,16.299-1.1,21.497,6.693c5.158-7.895,13.329-10.582,21.2-6.822 c0.415,0.197,0.836,0.424,1.323,0.709c0.117,0.07,0.231,0.139,0.345,0.209c0.357,0.221,0.704,0.453,1.03,0.689l0.213,0.15 c0.37,0.277,0.73,0.574,1.104,0.91c0.077,0.068,0.152,0.141,0.228,0.213l0.064,0.063c0.267,0.25,0.524,0.514,0.772,0.781 l0.087,0.094c0.061,0.066,0.123,0.133,0.182,0.199c0.308,0.353,0.597,0.715,0.86,1.078c0.052,0.07,0.1,0.143,0.147,0.213 l0.069,0.105c0.2,0.291,0.39,0.588,0.568,0.891c0.082,0.139,0.165,0.279,0.243,0.424c0.232,0.426,0.426,0.815,0.589,1.188 c0.033,0.076,0.066,0.158,0.098,0.242l0.041,0.102c0.138,0.338,0.265,0.682,0.381,1.033c0.058,0.178,0.112,0.355,0.163,0.533 c0.096,0.328,0.18,0.666,0.255,1.01l0.032,0.137c0.023,0.098,0.047,0.193,0.065,0.293c0.079,0.412,0.144,0.861,0.198,1.373 c0.018,0.166,0.03,0.336,0.042,0.504l0.006,0.086c0.024,0.332,0.037,0.67,0.042,1.01c0.003,0.047,0.005,0.082,0.006,0.113 l0.005,0.018l-0.005,0.435l0.002,0.094h-0.006l-0.004,0.07c-0.012,0.387-0.033,0.764-0.066,1.142l-0.012,0.148 c-0.009,0.115-0.017,0.231-0.031,0.348c-0.054,0.475-0.131,0.986-0.231,1.52c-0.025,0.137-0.055,0.271-0.084,0.406l-0.02,0.09 c-0.104,0.492-0.218,0.951-0.347,1.408l-0.026,0.1c-0.016,0.063-0.032,0.125-0.05,0.188c-0.153,0.519-0.34,1.072-0.572,1.691 c-0.054,0.143-0.109,0.285-0.166,0.428c-0.266,0.674-0.508,1.234-0.764,1.772C77.809,33.356,56.482,51.908,54.062,54l-0.278,0.24 L53.405,54.25z M25.64,21.599c0.142,0.469,0.317,0.977,0.536,1.551c0.051,0.135,0.104,0.268,0.158,0.4 c0.252,0.629,0.479,1.15,0.718,1.639c3.204,6.609,22.55,23.484,26.349,26.76c8.257-7.17,23.48-21.25,26.185-26.918 c0.236-0.492,0.461-1.016,0.709-1.642l0.154-0.399c0.215-0.574,0.387-1.082,0.525-1.555l0.07-0.262 c0.118-0.418,0.221-0.838,0.317-1.287l0.02-0.092c0.025-0.119,0.052-0.238,0.074-0.357c0.091-0.484,0.161-0.947,0.21-1.375 c0.01-0.096,0.017-0.188,0.024-0.279l0.014-0.164c0.028-0.34,0.048-0.676,0.057-1.01l0.006-0.111l0.587-0.01l-0.583-0.023 l0.002-0.357h-0.001l-0.007-0.166c-0.004-0.299-0.016-0.598-0.037-0.893l-0.007-0.086c-0.01-0.149-0.021-0.295-0.036-0.439 c-0.047-0.453-0.104-0.85-0.173-1.209c-0.013-0.066-0.028-0.131-0.045-0.195l-0.042-0.18c-0.065-0.301-0.14-0.596-0.224-0.887 c-0.045-0.158-0.093-0.311-0.143-0.463c-0.101-0.305-0.212-0.607-0.333-0.902l-0.053-0.137c-0.021-0.053-0.041-0.106-0.063-0.156 c-0.142-0.324-0.31-0.662-0.515-1.037c-0.068-0.125-0.139-0.246-0.211-0.367c-0.156-0.266-0.32-0.522-0.493-0.773l-0.09-0.133 c-0.032-0.049-0.065-0.1-0.1-0.148c-0.227-0.313-0.479-0.627-0.748-0.935c-0.043-0.049-0.09-0.1-0.137-0.148l-0.099-0.107 c-0.216-0.234-0.442-0.463-0.677-0.686l-0.071-0.068c-0.06-0.057-0.119-0.113-0.181-0.168c-0.33-0.297-0.646-0.559-0.967-0.799 l-0.188-0.131c-0.295-0.215-0.598-0.416-0.91-0.609c-0.102-0.063-0.204-0.125-0.308-0.186c-0.438-0.258-0.81-0.457-1.174-0.631 c-7.307-3.486-14.951-0.578-19.476,7.416l-0.856,1.514l-0.866-1.508c-4.536-7.904-12.487-10.836-19.78-7.299 c-0.36,0.176-0.733,0.379-1.17,0.639c-0.103,0.061-0.201,0.123-0.3,0.184c-0.322,0.203-0.631,0.412-0.922,0.625l-0.165,0.117 c-0.324,0.246-0.64,0.51-0.972,0.811c-0.059,0.053-0.116,0.109-0.173,0.164l-0.073,0.07c-0.239,0.229-0.47,0.465-0.69,0.707 l-0.213,0.233c-0.265,0.307-0.517,0.627-0.746,0.947c-0.036,0.049-0.069,0.102-0.104,0.152l-0.078,0.12 c-0.177,0.26-0.344,0.525-0.502,0.797l-0.051,0.088c-0.048,0.082-0.097,0.166-0.142,0.25c-0.207,0.383-0.38,0.734-0.526,1.074 c-0.019,0.043-0.034,0.086-0.049,0.129l-0.057,0.147c-0.121,0.299-0.231,0.605-0.331,0.914c-0.047,0.144-0.09,0.283-0.131,0.426 c-0.095,0.334-0.18,0.676-0.251,1.023c-0.031,0.152-0.052,0.246-0.068,0.342c-0.064,0.357-0.115,0.728-0.156,1.139 c-0.017,0.16-0.028,0.32-0.038,0.481c-0.023,0.33-0.034,0.662-0.036,0.996l0.01,0.613c0.011,0.334,0.032,0.666,0.063,1.002 l0.015,0.174c0.008,0.088,0.015,0.176,0.025,0.264c0.049,0.422,0.12,0.871,0.218,1.377c0.025,0.127,0.054,0.258,0.082,0.387 l0.017,0.076c0.097,0.438,0.206,0.873,0.326,1.291L25.64,21.599z"/> </g><g id="XMLID_88_"> <g id="XMLID_291_"> <path id="XMLID_293_" style="fill:#66B406;" d="M56.943,89.525c0.035,0.064,0.073,0.125,0.108,0.189 c0.187,0.336,0.38,0.658,0.581,0.973c0.072,0.113,0.145,0.227,0.219,0.338c0.226,0.334,0.457,0.656,0.698,0.961 c0.079,0.1,0.161,0.193,0.242,0.289c0.186,0.223,0.375,0.438,0.568,0.645c0.038,0.041,0.073,0.088,0.112,0.129 c-0.007-0.008-0.014-0.012-0.021-0.019c0.01,0.012,0.021,0.019,0.03,0.031c0.057,0.059,0.115,0.113,0.173,0.172 c0.024,0.025,0.048,0.053,0.073,0.076c-0.019-0.018-0.035-0.039-0.053-0.057c0.018,0.018,0.036,0.033,0.054,0.049 c0.206,0.205,0.415,0.4,0.629,0.586c0.105,0.092,0.211,0.184,0.318,0.271c0.259,0.213,0.522,0.414,0.792,0.602 c0.083,0.057,0.168,0.111,0.252,0.168c0.258,0.17,0.52,0.328,0.785,0.475c0.113,0.063,0.227,0.123,0.341,0.182 c0.253,0.129,0.508,0.248,0.767,0.359c0.079,0.033,0.156,0.072,0.235,0.104c0.325,0.129,0.655,0.24,0.987,0.34 c0.108,0.031,0.218,0.059,0.327,0.088c0.265,0.07,0.532,0.131,0.801,0.184c0.093,0.018,0.187,0.037,0.28,0.053 c0.346,0.059,0.695,0.1,1.046,0.125c0.092,0.006,0.184,0.008,0.276,0.012c0.285,0.014,0.571,0.018,0.859,0.012 c0.099-0.002,0.197-0.004,0.296-0.008c0.361-0.018,0.724-0.049,1.086-0.098c0.06-0.008,0.121-0.021,0.182-0.031 c0.314-0.047,0.628-0.109,0.942-0.18c0.1-0.023,0.199-0.047,0.299-0.072c0.368-0.094,0.736-0.197,1.103-0.324 c6.216-2.158,9.863-8.412,7.673-16.504c8.078,2.238,14.206-1.223,16.4-7.426c0.129-0.365,0.235-0.732,0.331-1.1 c0.026-0.102,0.051-0.201,0.074-0.301c0.072-0.309,0.135-0.619,0.184-0.928c0.011-0.066,0.024-0.133,0.034-0.197 c0.052-0.361,0.085-0.723,0.104-1.084c0.005-0.1,0.006-0.201,0.009-0.301c0.008-0.281,0.006-0.561-0.006-0.84 c-0.004-0.1-0.006-0.201-0.012-0.301c-0.024-0.35-0.062-0.695-0.117-1.039c-0.015-0.098-0.037-0.191-0.055-0.287 c-0.049-0.264-0.105-0.523-0.173-0.781c-0.031-0.121-0.062-0.238-0.096-0.357c-0.095-0.32-0.198-0.639-0.321-0.953 c-0.034-0.086-0.074-0.172-0.11-0.258c-0.107-0.256-0.225-0.51-0.351-0.76c-0.063-0.125-0.129-0.25-0.197-0.373 c-0.127-0.23-0.264-0.457-0.407-0.682c-0.061-0.094-0.114-0.191-0.178-0.283c-0.196-0.289-0.41-0.57-0.635-0.848 c-0.095-0.117-0.194-0.232-0.294-0.346c-0.167-0.193-0.342-0.383-0.524-0.57c-0.034-0.033-0.063-0.07-0.098-0.106 c0.016,0.016,0.032,0.029,0.047,0.043c-0.019-0.02-0.042-0.039-0.061-0.059c-0.064-0.063-0.127-0.127-0.191-0.189 c-0.018-0.016-0.033-0.033-0.051-0.051c0.011,0.01,0.02,0.021,0.029,0.033c-0.025-0.025-0.056-0.049-0.082-0.074 c-0.208-0.195-0.424-0.389-0.648-0.578c-0.097-0.082-0.19-0.164-0.291-0.244c-0.305-0.244-0.625-0.479-0.958-0.705 c-0.107-0.072-0.218-0.145-0.327-0.215c-0.31-0.201-0.63-0.395-0.963-0.582c-0.067-0.039-0.132-0.078-0.2-0.115 c-0.397-0.217-0.816-0.42-1.246-0.617c-0.109-0.049-0.219-0.098-0.329-0.144c-0.452-0.195-0.914-0.385-1.401-0.557 c-6.433-2.275-31.474-0.416-31.479-0.414l0,0c0,0-2.013,25.033,0.225,31.48c0.169,0.488,0.356,0.951,0.548,1.404 c0.048,0.111,0.097,0.223,0.146,0.334C56.528,88.705,56.729,89.125,56.943,89.525z"/> <path id="XMLID_292_" style="fill:#66B406;" d="M49.641,89.525c-0.035,0.064-0.073,0.125-0.108,0.189 c-0.186,0.336-0.38,0.658-0.58,0.973c-0.073,0.113-0.145,0.227-0.22,0.338c-0.225,0.334-0.457,0.656-0.698,0.961 c-0.079,0.1-0.161,0.193-0.242,0.289c-0.186,0.223-0.374,0.438-0.567,0.645c-0.039,0.041-0.074,0.088-0.113,0.129 c0.007-0.008,0.014-0.012,0.021-0.019c-0.01,0.012-0.021,0.019-0.03,0.031c-0.057,0.059-0.115,0.113-0.173,0.172 c-0.024,0.025-0.048,0.053-0.073,0.076c0.019-0.018,0.035-0.039,0.053-0.057c-0.018,0.018-0.036,0.033-0.054,0.049 c-0.206,0.205-0.415,0.4-0.628,0.586c-0.106,0.092-0.212,0.184-0.319,0.271c-0.259,0.213-0.522,0.414-0.792,0.602 c-0.083,0.057-0.168,0.111-0.252,0.168c-0.258,0.17-0.52,0.328-0.785,0.475c-0.112,0.063-0.227,0.123-0.341,0.182 c-0.252,0.129-0.508,0.248-0.766,0.359c-0.079,0.033-0.157,0.072-0.236,0.104c-0.325,0.129-0.655,0.24-0.987,0.34 c-0.108,0.031-0.218,0.059-0.327,0.088c-0.265,0.07-0.531,0.131-0.801,0.184c-0.094,0.018-0.186,0.037-0.28,0.053 c-0.346,0.059-0.695,0.1-1.046,0.125c-0.092,0.006-0.184,0.008-0.275,0.012c-0.286,0.014-0.572,0.018-0.86,0.012 c-0.099-0.002-0.196-0.004-0.296-0.008c-0.361-0.018-0.724-0.049-1.086-0.098c-0.061-0.008-0.121-0.021-0.182-0.031 c-0.314-0.047-0.628-0.109-0.942-0.18c-0.1-0.023-0.199-0.047-0.299-0.072c-0.368-0.094-0.735-0.197-1.103-0.324 c-6.216-2.158-9.863-8.412-7.673-16.504c-8.078,2.238-14.206-1.223-16.4-7.426c-0.129-0.365-0.235-0.732-0.331-1.1 c-0.026-0.102-0.051-0.201-0.074-0.301c-0.072-0.309-0.135-0.619-0.184-0.928c-0.011-0.066-0.024-0.133-0.034-0.197 c-0.052-0.361-0.085-0.723-0.105-1.084c-0.005-0.1-0.006-0.201-0.009-0.301c-0.008-0.281-0.006-0.561,0.006-0.84 c0.004-0.1,0.006-0.201,0.013-0.301c0.023-0.35,0.062-0.695,0.116-1.039c0.015-0.098,0.037-0.191,0.055-0.287 c0.049-0.264,0.106-0.523,0.173-0.781c0.031-0.121,0.062-0.238,0.097-0.357c0.094-0.32,0.198-0.639,0.32-0.953 c0.034-0.086,0.074-0.172,0.11-0.258c0.107-0.256,0.225-0.51,0.351-0.76c0.063-0.125,0.129-0.25,0.196-0.373 c0.127-0.23,0.264-0.457,0.407-0.682c0.061-0.094,0.115-0.191,0.178-0.283c0.196-0.289,0.41-0.57,0.635-0.848 c0.095-0.117,0.194-0.232,0.294-0.346c0.167-0.193,0.342-0.383,0.523-0.57c0.034-0.033,0.063-0.07,0.098-0.106 c-0.015,0.016-0.031,0.029-0.047,0.043c0.02-0.02,0.042-0.039,0.062-0.059c0.063-0.063,0.127-0.127,0.191-0.189 c0.018-0.016,0.033-0.033,0.051-0.051c-0.01,0.01-0.019,0.021-0.029,0.033c0.025-0.025,0.056-0.049,0.082-0.074 c0.207-0.195,0.424-0.389,0.648-0.578c0.097-0.082,0.19-0.164,0.291-0.244c0.305-0.244,0.625-0.479,0.958-0.705 c0.107-0.072,0.218-0.145,0.327-0.215c0.309-0.201,0.63-0.395,0.963-0.582c0.068-0.039,0.132-0.078,0.2-0.115 c0.397-0.217,0.816-0.42,1.247-0.617c0.108-0.049,0.218-0.098,0.328-0.144c0.452-0.195,0.915-0.385,1.401-0.557 c6.434-2.275,31.474-0.416,31.479-0.414l0,0c0,0,2.013,25.033-0.225,31.48c-0.169,0.488-0.355,0.951-0.548,1.404 c-0.048,0.111-0.096,0.223-0.146,0.334C50.056,88.705,49.855,89.125,49.641,89.525z"/> </g> <path id="XMLID_208_" style="fill:#C12530;" d="M53.179,52.33c0.427,0,0.427,0,4.397,3.5c2.073,1.83,5.236,4.658,8.528,7.748 c8.519,7.996,13.636,13.697,15.211,16.945c0.259,0.533,0.505,1.094,0.773,1.766c0.059,0.145,0.116,0.289,0.172,0.434 c0.236,0.621,0.428,1.174,0.582,1.688l0.002,0.006l0.072,0.264c0.132,0.461,0.253,0.938,0.358,1.418l0.017,0.074 c0.031,0.145,0.064,0.289,0.091,0.434c0.107,0.557,0.187,1.055,0.241,1.521c0.013,0.111,0.022,0.225,0.031,0.34l0.014,0.148 c0.034,0.375,0.058,0.746,0.069,1.115c0.008,0.098,0.013,0.154,0.014,0.209h0.003l-0.001,0.351l0.004,0.111l0,0v0.021 l-0.008,0.002c-0.002,0.375-0.014,0.748-0.04,1.117c-0.012,0.184-0.024,0.365-0.044,0.547c-0.046,0.461-0.104,0.883-0.177,1.289 c-0.021,0.111-0.044,0.225-0.066,0.336c-0.09,0.436-0.187,0.83-0.3,1.227c-0.047,0.164-0.097,0.328-0.149,0.488 c-0.113,0.354-0.24,0.703-0.379,1.047l-0.036,0.096c-0.028,0.074-0.057,0.15-0.088,0.223c-0.17,0.393-0.367,0.799-0.603,1.234 c-0.056,0.101-0.113,0.201-0.172,0.301l-0.049,0.086c-0.183,0.314-0.375,0.619-0.578,0.918l-0.064,0.098 c-0.048,0.07-0.096,0.143-0.146,0.213c-0.265,0.369-0.554,0.736-0.86,1.092c-0.057,0.065-0.112,0.123-0.167,0.184l-0.078,0.086 c-0.253,0.277-0.515,0.547-0.789,0.809l-0.067,0.064c-0.071,0.068-0.143,0.137-0.216,0.205c-0.376,0.34-0.735,0.641-1.1,0.916 c-0.041,0.031-0.09,0.066-0.14,0.102l-0.057,0.039c-0.33,0.242-0.681,0.48-1.041,0.705c-0.111,0.07-0.226,0.143-0.343,0.211 c-0.485,0.289-0.904,0.516-1.317,0.717c-7.837,3.801-16.299,1.1-21.497-6.693c-5.158,7.895-13.328,10.582-21.2,6.822 c-0.415-0.197-0.836-0.424-1.323-0.709c-0.117-0.07-0.231-0.141-0.345-0.211c-0.357-0.221-0.704-0.451-1.03-0.689l-0.213-0.148 c-0.37-0.277-0.73-0.574-1.104-0.91c-0.077-0.07-0.152-0.141-0.228-0.213l-0.064-0.063c-0.266-0.252-0.524-0.514-0.772-0.783 l-0.087-0.092c-0.062-0.066-0.122-0.133-0.182-0.201c-0.308-0.352-0.597-0.713-0.86-1.076c-0.052-0.072-0.1-0.143-0.146-0.215 l-0.071-0.104c-0.199-0.291-0.388-0.588-0.567-0.893c-0.082-0.139-0.165-0.279-0.243-0.422c-0.232-0.428-0.426-0.814-0.588-1.188 c-0.034-0.076-0.067-0.158-0.099-0.242l-0.041-0.104c-0.137-0.336-0.265-0.68-0.381-1.031c-0.058-0.178-0.112-0.355-0.163-0.533 c-0.096-0.328-0.18-0.668-0.255-1.01l-0.032-0.137c-0.023-0.098-0.047-0.195-0.066-0.293c-0.079-0.412-0.143-0.861-0.198-1.373 c-0.018-0.166-0.03-0.336-0.042-0.506l-0.006-0.084c-0.024-0.334-0.037-0.67-0.042-1.01c-0.003-0.047-0.005-0.082-0.005-0.113 l-0.006-0.018l0.005-0.438l-0.002-0.092h0.007l0.003-0.07c0.012-0.387,0.033-0.764,0.066-1.143l0.012-0.148 c0.009-0.115,0.018-0.23,0.031-0.35c0.054-0.473,0.131-0.984,0.231-1.518c0.025-0.137,0.055-0.271,0.084-0.406l0.019-0.09 c0.105-0.492,0.218-0.953,0.347-1.41l0.026-0.098c0.016-0.063,0.032-0.125,0.05-0.188c0.153-0.52,0.34-1.072,0.572-1.691 c0.054-0.143,0.109-0.285,0.166-0.428c0.266-0.674,0.509-1.236,0.764-1.771c3.566-7.469,24.893-26.021,27.313-28.113l0.278-0.24 L53.179,52.33z M80.944,84.98c-0.142-0.469-0.316-0.977-0.536-1.553c-0.051-0.133-0.103-0.266-0.157-0.398 c-0.253-0.629-0.48-1.15-0.719-1.641c-3.205-6.607-22.55-23.482-26.349-26.757c-8.257,7.17-23.48,21.25-26.186,26.918 c-0.235,0.492-0.46,1.016-0.707,1.643l-0.155,0.398c-0.215,0.574-0.387,1.082-0.525,1.555l-0.07,0.262 c-0.118,0.418-0.221,0.838-0.317,1.285l-0.02,0.092c-0.025,0.121-0.051,0.24-0.074,0.359c-0.091,0.484-0.161,0.947-0.209,1.375 c-0.011,0.096-0.018,0.188-0.025,0.279l-0.013,0.164c-0.029,0.34-0.049,0.676-0.058,1.008l-0.006,0.113l-0.587,0.01l0.583,0.021 l-0.002,0.359h0.001l0.007,0.166c0.004,0.299,0.016,0.598,0.037,0.893l0.007,0.086c0.01,0.146,0.021,0.295,0.036,0.439 c0.048,0.453,0.104,0.85,0.174,1.209c0.012,0.066,0.028,0.131,0.044,0.195l0.042,0.18c0.065,0.301,0.14,0.596,0.224,0.887 c0.045,0.158,0.093,0.311,0.143,0.463c0.101,0.305,0.212,0.607,0.333,0.902l0.053,0.137c0.021,0.051,0.041,0.105,0.064,0.156 c0.141,0.324,0.309,0.662,0.514,1.037c0.068,0.125,0.139,0.244,0.211,0.367c0.156,0.266,0.32,0.521,0.494,0.774l0.089,0.133 c0.032,0.049,0.066,0.1,0.1,0.148c0.228,0.313,0.479,0.627,0.748,0.934c0.044,0.051,0.09,0.1,0.137,0.15l0.1,0.107 c0.215,0.234,0.441,0.463,0.676,0.684l0.071,0.068c0.06,0.057,0.119,0.115,0.181,0.17c0.33,0.297,0.646,0.559,0.967,0.797 l0.188,0.133c0.295,0.215,0.598,0.416,0.91,0.609c0.101,0.063,0.203,0.125,0.307,0.186c0.438,0.258,0.811,0.457,1.174,0.631 c7.307,3.486,14.951,0.576,19.476-7.416l0.857-1.514l0.865,1.508c4.536,7.904,12.487,10.836,19.78,7.297 c0.36-0.174,0.733-0.377,1.17-0.637c0.103-0.061,0.201-0.123,0.3-0.186c0.322-0.201,0.631-0.41,0.922-0.623l0.166-0.117 c0.323-0.246,0.639-0.51,0.971-0.811c0.059-0.053,0.116-0.109,0.173-0.164l0.073-0.07c0.239-0.229,0.47-0.465,0.69-0.707 l0.216-0.238c0.265-0.305,0.517-0.625,0.746-0.945c0.036-0.049,0.069-0.102,0.104-0.152l0.079-0.119 c0.177-0.26,0.344-0.525,0.502-0.797l0.051-0.088c0.048-0.084,0.097-0.166,0.142-0.25c0.206-0.383,0.379-0.734,0.525-1.076 c0.019-0.043,0.034-0.084,0.05-0.127l0.056-0.146c0.121-0.301,0.231-0.605,0.331-0.914c0.047-0.144,0.09-0.283,0.131-0.426 c0.095-0.334,0.18-0.676,0.251-1.023c0.031-0.152,0.052-0.246,0.068-0.342c0.064-0.357,0.115-0.729,0.156-1.139 c0.017-0.16,0.028-0.32,0.039-0.482c0.022-0.328,0.033-0.66,0.035-0.996l-0.01-0.613c-0.011-0.332-0.031-0.666-0.063-1.002 l-0.015-0.172c-0.008-0.088-0.015-0.176-0.024-0.266c-0.05-0.42-0.121-0.869-0.219-1.375c-0.025-0.127-0.054-0.258-0.082-0.387 l-0.017-0.076c-0.097-0.439-0.206-0.873-0.326-1.291L80.944,84.98z"/> </g></symbol><symbol id="leaf-2" viewBox="0 0 504.125 504.125"><title>leaf-2</title><path style="fill:#3A7F0D;" d="M339.772,0c0,0,44.536,108.954-146.337,182.138C89.719,221.893,10.059,323.789,105.173,481.193 c7.877-70.357,41.653-225.485,186.888-260.884c0,0-135.176,50.546-147.117,279.347c69.459,9.752,232.361,16.305,280.726-125.062 C489.536,187.817,339.772,0,339.772,0z"/><path style="fill:#49A010;" d="M145.007,498.704c147.456-58.849,254.748-196.71,269.556-361.283C384.418,56.107,339.772,0,339.772,0 s44.536,108.954-146.337,182.138C89.719,221.893,10.059,323.789,105.173,481.193c7.877-70.357,41.653-225.485,186.888-260.884 C292.053,220.31,157.279,270.73,145.007,498.704z"/><circle style="fill:#3A7F0D;" cx="90.459" cy="171.985" r="13.785"/><g> <circle style="fill:#49A010;" cx="133.782" cy="158.2" r="9.846"/> <circle style="fill:#49A010;" cx="124.921" cy="64.662" r="24.615"/> <circle style="fill:#49A010;" cx="200.736" cy="120.785" r="7.877"/> <circle style="fill:#49A010;" cx="266.713" cy="76.477" r="22.646"/> </g></symbol><symbol id="leaves" viewBox="0 0 504.123 504.123"><title>leaves</title><path style="fill:#3A7F0D;" d="M235.733,0c0,0,29.594,22.662-10.87,73.169c-22,27.427-27.475,68.017,23.662,95.815 c-9.082-20.48-24.639-68.277,9.389-101.155c0,0-28.861,35.415,4.435,99.864c20.543-8.444,66.111-32.689,56.737-79.045 C306.696,27.388,235.733,0,235.733,0z"/><path style="fill:#49A010;" d="M262.215,167.416c30.901-39.66,38.187-94.46,15.927-141.816C256.922,8.2,235.725,0,235.725,0 s29.594,22.662-10.87,73.169c-22,27.427-27.475,68.017,23.662,95.815c-9.082-20.48-24.639-68.277,9.389-101.155 C257.914,67.828,229.148,103.14,262.215,167.416z"/><circle style="fill:#3A7F0D;" cx="195.104" cy="86.835" r="4.372"/><g> <circle style="fill:#49A010;" cx="204.729" cy="76.154" r="3.127"/> <circle style="fill:#49A010;" cx="187.376" cy="52.011" r="7.79"/> <circle style="fill:#49A010;" cx="217.056" cy="55.225" r="2.489"/> <path style="fill:#49A010;" d="M234.189,28.956c1.993,3.434,0.851,7.814-2.576,9.815c-3.419,1.985-7.806,0.843-9.807-2.584 c-1.993-3.403-0.835-7.798,2.576-9.799C227.793,24.387,232.196,25.537,234.189,28.956z"/> </g><path style="fill:#3A7F0D;" d="M268.39,504.123c0,0-29.601-22.662,10.87-73.169c21.992-27.427,27.475-68.017-23.67-95.815 c9.09,20.48,24.647,68.261-9.381,101.14c0,0,28.853-35.399-4.435-99.848c-20.543,8.444-66.103,32.689-56.737,79.045 C197.427,476.735,268.39,504.123,268.39,504.123z"/><path style="fill:#49A010;" d="M241.908,336.691c-30.909,39.66-38.187,94.476-15.935,141.816 c21.228,17.416,42.425,25.616,42.425,25.616s-29.601-22.662,10.87-73.169c21.992-27.427,27.475-68.017-23.67-95.815 c9.09,20.48,24.647,68.261-9.381,101.14C246.209,436.279,274.976,400.967,241.908,336.691z"/><circle style="fill:#3A7F0D;" cx="309.012" cy="417.319" r="4.364"/><g> <circle style="fill:#49A010;" cx="299.402" cy="427.961" r="3.127"/> <circle style="fill:#49A010;" cx="316.731" cy="452.112" r="7.798"/> <circle style="fill:#49A010;" cx="287.067" cy="448.906" r="2.497"/> <circle style="fill:#49A010;" cx="276.086" cy="471.513" r="7.176"/> </g><path style="fill:#3A7F0D;" d="M418.745,62.275c0,0,4.907,36.951-59.431,44.064c-34.942,3.828-67.513,28.664-51.011,84.496 c8.05-20.921,30.846-65.709,78.155-64.89c0,0-45.442,4.632-67.466,73.736c20.504,8.554,69.853,23.631,96.004-15.77 C449.56,131.828,418.745,62.275,418.745,62.275z"/><path style="fill:#49A010;" d="M319.094,199.396c49.892-6.199,93.791-39.802,111.537-89.033 c-2.702-27.309-11.886-48.089-11.886-48.089s4.907,36.951-59.431,44.064c-34.942,3.828-67.513,28.664-51.011,84.496 c8.05-20.921,30.846-65.709,78.155-64.89C386.458,125.936,341.157,130.568,319.094,199.396z"/><circle style="fill:#3A7F0D;" cx="328.609" cy="94.956" r="4.364"/><g> <circle style="fill:#49A010;" cx="342.977" cy="94.216" r="3.119"/> <circle style="fill:#49A010;" cx="347.766" cy="64.859" r="7.798"/> <path style="fill:#49A010;" d="M368.9,88.757c-0.347,1.339-1.717,2.135-3.04,1.788c-1.339-0.354-2.135-1.709-1.788-3.064 c0.354-1.308,1.709-2.111,3.041-1.772C368.443,86.063,369.254,87.434,368.9,88.757z"/> <circle style="fill:#49A010;" cx="390.239" cy="79.856" r="7.168"/> </g><path style="fill:#3A7F0D;" d="M85.378,441.832c0,0-4.915-36.935,59.424-44.048c34.942-3.844,67.521-28.664,51.019-84.496 c-8.058,20.905-30.846,65.709-78.155,64.89c0,0,45.442-4.632,67.458-73.736c-20.496-8.57-69.853-23.631-96.004,15.754 C54.563,372.295,85.378,441.832,85.378,441.832z"/><path style="fill:#49A010;" d="M185.029,304.727c-49.892,6.199-93.798,39.802-111.537,89.017 c2.71,27.325,11.886,48.089,11.886,48.089s-4.915-36.943,59.424-44.048c34.942-3.844,67.521-28.664,51.019-84.496 c-8.058,20.905-30.846,65.709-78.155,64.89C117.665,378.187,162.966,373.555,185.029,304.727z"/><circle style="fill:#3A7F0D;" cx="175.514" cy="409.206" r="4.372"/><g> <circle style="fill:#49A010;" cx="161.146" cy="409.915" r="3.119"/> <circle style="fill:#49A010;" cx="156.349" cy="439.296" r="7.79"/> <circle style="fill:#49A010;" cx="137.633" cy="415.98" r="2.497"/> <circle style="fill:#49A010;" cx="113.885" cy="424.251" r="7.168"/> </g><path style="fill:#3A7F0D;" d="M504.123,235.725c0,0-22.662,29.601-73.177-10.862c-27.427-22-68.009-27.475-95.815,23.678 c20.488-9.106,68.277-24.647,101.148,9.366c0,0-35.399-28.861-99.848,4.443c8.444,20.535,32.689,66.111,79.045,56.737 C476.727,306.696,504.123,235.725,504.123,235.725z"/><path style="fill:#49A010;" d="M336.699,262.215c39.66,30.893,94.452,38.187,141.816,15.919 c17.4-21.213,25.608-42.409,25.608-42.409s-22.662,29.601-73.177-10.862c-27.427-22-68.009-27.475-95.815,23.678 c20.488-9.106,68.277-24.647,101.148,9.366C436.279,257.906,400.951,229.155,336.699,262.215z"/><circle style="fill:#3A7F0D;" cx="417.28" cy="195.111" r="4.356"/><g> <circle style="fill:#49A010;" cx="427.953" cy="204.721" r="3.127"/> <path style="fill:#49A010;" d="M456.042,194.095c-3.718,2.182-8.476,0.922-10.665-2.788c-2.166-3.742-0.922-8.507,2.788-10.665 c3.718-2.182,8.483-0.937,10.658,2.788C461.013,187.14,459.76,191.905,456.042,194.095z"/> <circle style="fill:#49A010;" cx="448.898" cy="217.009" r="2.497"/> <path style="fill:#49A010;" d="M475.152,234.197c-3.434,1.985-7.798,0.843-9.799-2.584c-1.993-3.403-0.851-7.814,2.568-9.815 c3.419-1.985,7.814-0.827,9.807,2.568C479.72,227.801,478.578,232.204,475.152,234.197z"/> </g><path style="fill:#3A7F0D;" d="M0,268.383c0,0,22.654-29.601,73.169,10.878c27.412,21.984,68.017,27.475,95.815-23.678 c-20.48,9.106-68.277,24.647-101.14-9.381c0,0,35.399,28.861,99.832-4.427c-8.428-20.551-32.673-66.111-79.029-56.737 C27.388,197.427,0,268.383,0,268.383z"/><path style="fill:#49A010;" d="M167.416,241.892c-39.66-30.893-94.46-38.172-141.816-15.911C8.2,247.217,0,268.383,0,268.383 s22.654-29.601,73.169,10.878c27.412,21.984,68.017,27.475,95.815-23.678c-20.48,9.106-68.277,24.647-101.14-9.381 C67.844,246.201,103.148,274.983,167.416,241.892z"/><circle style="fill:#3A7F0D;" cx="86.804" cy="309.02" r="4.372"/><g> <circle style="fill:#49A010;" cx="76.146" cy="299.386" r="3.119"/> <path style="fill:#49A010;" d="M48.073,310.012c3.718-2.166,8.483-0.906,10.665,2.812c2.166,3.71,0.922,8.476-2.788,10.65 c-3.718,2.182-8.483,0.922-10.665-2.788C43.095,316.967,44.363,312.202,48.073,310.012z"/> <circle style="fill:#49A010;" cx="55.217" cy="287.059" r="2.497"/> <circle style="fill:#49A010;" cx="32.579" cy="276.133" r="7.168"/> </g><path style="fill:#3A7F0D;" d="M441.84,418.737c0,0-36.943,4.907-44.056-59.431c-3.836-34.942-28.664-67.505-84.496-51.003 c20.913,8.042,65.709,30.846,64.89,78.155c0,0-4.632-45.45-73.736-67.474c-8.562,20.512-23.639,69.86,15.77,96.012 C372.295,449.552,441.84,418.737,441.84,418.737z"/><path style="fill:#49A010;" d="M304.727,319.094c6.199,49.892,39.802,93.783,89.017,111.537 c27.309-2.71,48.096-11.894,48.096-11.894s-36.943,4.907-44.056-59.431c-3.836-34.942-28.664-67.505-84.496-51.003 c20.913,8.042,65.709,30.846,64.89,78.155C378.187,386.458,373.547,341.157,304.727,319.094z"/><circle style="fill:#3A7F0D;" cx="409.159" cy="328.625" r="4.364"/><g> <path style="fill:#49A010;" d="M409.12,345.986c-1.67-0.433-2.655-2.135-2.221-3.781c0.433-1.678,2.135-2.678,3.789-2.245 c1.67,0.449,2.678,2.135,2.237,3.828C412.475,345.435,410.782,346.443,409.12,345.986z"/> <circle style="fill:#49A010;" cx="439.257" cy="347.766" r="7.79"/> <path style="fill:#49A010;" d="M415.358,368.908c-1.339-0.354-2.127-1.725-1.796-3.048c0.362-1.339,1.725-2.135,3.072-1.788 c1.315,0.354,2.111,1.709,1.764,3.033C418.06,368.443,416.681,369.262,415.358,368.908z"/> <circle style="fill:#49A010;" cx="424.267" cy="390.223" r="7.168"/> </g><path style="fill:#3A7F0D;" d="M62.283,85.37c0,0,36.935-4.907,44.04,59.431c3.844,34.942,28.68,67.521,84.504,51.019 c-20.913-8.042-65.701-30.846-64.882-78.155c0,0,4.632,45.434,73.736,67.458c8.554-20.496,23.631-69.86-15.762-96.012 C131.828,54.556,62.283,85.37,62.283,85.37z"/><path style="fill:#49A010;" d="M199.396,185.029c-6.199-49.892-39.81-93.798-89.033-111.537 C83.046,76.201,62.283,85.37,62.283,85.37s36.935-4.907,44.04,59.431c3.844,34.942,28.68,67.521,84.504,51.019 c-20.913-8.042-65.701-30.846-64.882-78.155C125.936,117.665,130.56,162.966,199.396,185.029z"/><circle style="fill:#3A7F0D;" cx="94.917" cy="175.498" r="4.364"/><g> <circle style="fill:#49A010;" cx="94.216" cy="161.146" r="3.127"/> <circle style="fill:#49A010;" cx="64.851" cy="156.349" r="7.798"/> <circle style="fill:#49A010;" cx="88.119" cy="137.633" r="2.497"/> <circle style="fill:#49A010;" cx="79.84" cy="113.885" r="7.168"/> </g></symbol></svg>